<?xml version="1.0" encoding="utf-8"?>
<svg xmlns="http://www.w3.org/2000/svg" style="margin: auto; background: none; display: block; shape-rendering: auto;" width="281" height="71" preserveAspectRatio="xMidYMid">
<style type="text/css">
  text {
    text-anchor: middle; font-size: 42px; opacity: 0;
  }
</style>
<g style="transform-origin:140.5px 35.5px;transform:scale(1)">
<g transform="translate(140.5,35.5)">
  <g transform="translate(0,0)"><g class="path" style="transform: matrix(1, 0, 0, 1, 0, 0); transform-origin: -80.75px -3.02952px; animation: 1s linear -0.605s infinite normal forwards running bounce-baea6187-5fad-4574-ac11-d6f1aae83674;"><path d="M12.94-0.04L12.94-0.04L10.54-0.08L10.54-0.08Q10.04-0.08 9.53-0.08L9.53-0.08L1.89 0.29L1.89 0.29Q1.26 0.29 1.26-0.13L1.26-0.13L1.26-0.13Q1.26-0.25 1.39-0.71L1.39-0.71L1.39-0.71Q1.81-1.68 2.00-6.85L2.00-6.85L2.00-6.85Q2.18-12.01 2.18-16.28L2.18-16.28L2.18-16.28Q2.18-20.54 2.02-23.18L2.02-23.18L2.02-23.18Q1.76-27.17 1.18-27.97L1.18-27.97L1.18-27.97Q0.71-28.56 0.71-28.73L0.71-28.73L0.71-28.73Q0.71-29.40 2.98-29.90L2.98-29.90L2.98-29.90Q5.25-30.41 6.24-30.41L6.24-30.41L6.24-30.41Q7.22-30.41 7.48-30.30L7.48-30.30L7.48-30.30Q7.73-30.20 7.73-29.86L7.73-29.86L7.73-29.86Q7.73-29.53 7.56-27.72L7.56-27.72L7.56-27.72Q7.14-22.39 7.14-15.31L7.14-15.31L7.14-15.31Q7.14-8.23 7.48-3.99L7.48-3.99L7.48-3.99Q7.48-3.53 8.27-3.19L8.27-3.19L8.27-3.19Q9.07-2.86 10.25-2.86L10.25-2.86L10.25-2.86Q14.36-2.86 14.36-9.20L14.36-9.20L14.36-9.20Q14.36-10.96 14.18-11.38L14.18-11.38L14.18-11.38Q13.99-11.80 13.99-11.93L13.99-11.93L13.99-11.93Q13.99-12.35 14.57-12.35L14.57-12.35L14.57-12.35Q15.04-12.35 15.81-11.89L15.81-11.89L15.81-11.89Q16.59-11.42 17.09-10.73L17.09-10.73L17.09-10.73Q17.60-10.04 18.02-8.55L18.02-8.55L18.02-8.55Q18.44-7.06 18.44-5.04L18.44-5.04L18.44-5.04Q18.44-0.04 17.22-0.04L17.22-0.04L17.22-0.04Q15.08-0.04 12.94-0.04" fill="#00a1d5" stroke="none" stroke-width="none" transform="translate(-90.32498168945312,12.030483570098877)" style="fill: rgb(0, 161, 213);"></path></g><g class="path" style="transform: matrix(1, 0, 0, 1, 0, 0); transform-origin: -62.67px 2.96048px; animation: 1s linear -0.55s infinite normal forwards running bounce-baea6187-5fad-4574-ac11-d6f1aae83674;"><path d="M24.11-15.83L24.11-15.83L24.11-15.83Q23.02-15.79 22.53-15.77L22.53-15.77L22.53-15.77Q22.05-15.75 22.05-16.00L22.05-16.00L22.05-16.00Q22.05-16.25 22.30-16.51L22.30-16.51L22.30-16.51Q24.99-18.98 31.37-18.98L31.37-18.98L31.37-18.98Q33.56-18.98 34.82-18.61L34.82-18.61L35.24-18.48L35.24-18.48Q35.74-18.27 35.74-18.02L35.74-18.02L35.74-18.02Q35.74-17.81 35.45-17.68L35.45-17.68L35.45-17.68Q34.31-17.35 33.26-16.61L33.26-16.61L33.26-16.61Q32.21-15.88 32.21-15.58L32.21-15.58L32.47-15.29L32.47-15.29Q33.81-14.53 34.55-12.89L34.55-12.89L34.55-12.89Q35.28-11.26 35.36-10.00L35.36-10.00L35.45-8.69L35.45-8.69Q35.45-4.54 33.14-1.85L33.14-1.85L33.14-1.85Q30.83 0.84 26.84 0.84L26.84 0.84L26.84 0.84Q24.82 0.84 23.35 0.13L23.35 0.13L23.35 0.13Q21.88-0.59 21.19-1.49L21.19-1.49L21.19-1.49Q20.50-2.39 20.08-3.53L20.08-3.53L20.08-3.53Q19.57-5.08 19.57-6.74L19.57-6.74L19.57-6.74Q19.57-8.40 20.14-10.08L20.14-10.08L20.14-10.08Q20.71-11.76 21.44-12.56L21.44-12.56L21.44-12.56Q22.18-13.36 23.10-13.86L23.10-13.86L23.10-13.86Q24.28-14.49 24.99-14.49L24.99-14.49L24.99-14.49Q25.70-14.49 25.70-14.20L25.70-14.20L25.45-13.78L25.45-13.78Q24.53-12.68 24.13-10.92L24.13-10.92L24.13-10.92Q23.73-9.16 23.73-7.79L23.73-7.79L23.73-7.79Q23.73-6.43 24.07-5.08L24.07-5.08L24.07-5.08Q24.40-3.74 24.82-3.09L24.82-3.09L24.82-3.09Q25.24-2.44 25.79-2.10L25.79-2.10L25.79-2.10Q26.59-1.60 27.47-1.60L27.47-1.60L27.47-1.60Q28.35-1.60 29.19-2.29L29.19-2.29L29.19-2.29Q30.03-2.98 30.41-4.12L30.41-4.12L30.41-4.12Q31.16-6.22 31.16-8.44L31.16-8.44L31.16-8.44Q31.16-11.97 29.38-13.90L29.38-13.90L29.38-13.90Q27.59-15.83 24.11-15.83" fill="#00a1d5" stroke="none" stroke-width="none" transform="translate(-90.32498168945312,12.030483570098877)" style="fill: rgb(0, 161, 213);"></path></g><g class="path" style="transform: matrix(1, 0, 0, 1, 0, 0); transform-origin: -45.43px 2.81548px; animation: 1s linear -0.495s infinite normal forwards running bounce-baea6187-5fad-4574-ac11-d6f1aae83674;"><path d="M51.66-12.60L51.66-12.60L51.58-7.22L51.58-7.22Q51.58-1.64 52.79-0.50L52.79-0.50L52.79-0.50Q52.96-0.34 52.96-0.13L52.96-0.13L52.96-0.13Q52.96 0.50 50.25 0.50L50.25 0.50L50.25 0.50Q47.54 0.50 47.38-1.09L47.38-1.09L47.38-1.09Q47.33-1.47 47.33-2.65L47.33-2.65L47.50-9.37L47.50-9.37Q47.50-9.66 47.17-9.66L47.17-9.66L47.17-9.66Q45.15-9.66 43.39-8.53L43.39-8.53L43.39-8.53Q41.62-7.39 41.62-5.63L41.62-5.63L41.62-5.63Q41.62-4.70 42.13-4.07L42.13-4.07L42.13-4.07Q42.63-3.44 43.37-3.44L43.37-3.44L43.37-3.44Q44.10-3.44 44.58-3.74L44.58-3.74L44.58-3.74Q45.07-4.03 45.15-4.07L45.15-4.07L45.15-4.07Q45.86-3.99 45.86-2.58L45.86-2.58L45.86-2.58Q45.86-1.18 44.56-0.32L44.56-0.32L44.56-0.32Q43.26 0.55 41.83 0.55L41.83 0.55L41.83 0.55Q40.40 0.55 39.38 0.04L39.38 0.04L39.38 0.04Q38.35-0.46 37.88-1.09L37.88-1.09L37.88-1.09Q37.42-1.72 37.13-2.52L37.13-2.52L37.13-2.52Q36.83-3.49 36.83-4.20L36.83-4.20L36.83-4.20Q36.83-7.14 38.68-8.90L38.68-8.90L38.68-8.90Q40.53-10.67 43.43-11.42L43.43-11.42L43.43-11.42Q47.25-12.18 47.42-12.81L47.42-12.81L47.42-12.81Q47.54-13.27 47.54-14.36L47.54-14.36L47.54-14.36Q47.54-16.59 45.28-16.59L45.28-16.59L45.28-16.59Q44.31-16.59 43.55-15.98L43.55-15.98L43.55-15.98Q42.80-15.37 42.80-14.45L42.80-14.45L43.05-13.44L43.05-13.44Q42.97-12.73 41.54-12.60L41.54-12.60L41.08-12.56L41.08-12.56Q39.82-12.56 39.08-13.19L39.08-13.19L39.08-13.19Q38.35-13.82 38.35-14.87L38.35-14.87L38.35-14.87Q38.35-15.54 38.79-16.36L38.79-16.36L38.79-16.36Q39.23-17.18 39.90-17.68L39.90-17.68L39.90-17.68Q40.57-18.19 41.98-18.59L41.98-18.59L41.98-18.59Q43.39-18.98 44.69-18.98L44.69-18.98L44.69-18.98Q45.99-18.98 46.70-18.90L46.70-18.90L46.70-18.90Q47.42-18.82 48.66-18.50L48.66-18.50L48.66-18.50Q49.90-18.19 50.72-17.30L50.72-17.30L50.72-17.30Q51.53-16.42 51.60-15.44L51.60-15.44L51.60-15.44Q51.66-14.45 51.66-12.60" fill="#00a1d5" stroke="none" stroke-width="none" transform="translate(-90.32498168945312,12.030483570098877)" style="fill: rgb(0, 161, 213);"></path></g><g class="path" style="transform: matrix(1, 0, 0, 1, 0, 0); transform-origin: -28.5px -2.30952px; animation: 1s linear -0.44s infinite normal forwards running bounce-baea6187-5fad-4574-ac11-d6f1aae83674;"><path d="M62.62-18.86L62.62-18.86L62.62-18.86Q63.38-18.86 63.99-18.67L63.99-18.67L63.99-18.67Q64.60-18.48 64.64-18.48L64.64-18.48L64.89-18.69L64.72-23.27L64.72-23.27Q64.64-24.44 64.22-25.28L64.22-25.28L64.22-25.28Q63.80-26.12 63.46-26.38L63.46-26.38L63.08-26.59L63.08-26.59Q62.83-26.75 62.83-26.96L62.83-26.96L62.83-26.96Q62.83-27.59 64.78-28.43L64.78-28.43L64.78-28.43Q66.74-29.27 67.83-29.27L67.83-29.27L67.83-29.27Q68.92-29.27 69.01-28.81L69.01-28.81L69.01-28.81Q69.22-27.38 69.22-23.37L69.22-23.37L69.22-23.37Q69.22-19.36 69.03-15.50L69.03-15.50L69.03-15.50Q68.84-11.63 68.84-6.74L68.84-6.74L68.84-6.74Q68.84-1.85 69.47-0.59L69.47-0.59L69.47-0.59Q69.64-0.29 69.64-0.04L69.64-0.04L69.64-0.04Q69.64 0.59 67.83 0.59L67.83 0.59L67.83 0.59Q64.39 0.59 64.39-1.05L64.39-1.05L64.39-1.05Q64.30-1.72 64.30-3.13L64.30-3.13L64.30-3.13Q64.30-4.54 64.58-8.38L64.58-8.38L64.58-8.38Q64.85-12.22 64.85-14.30L64.85-14.30L64.85-14.30Q64.85-16.38 62.77-16.38L62.77-16.38L62.77-16.38Q60.69-16.38 59.60-13.94L59.60-13.94L59.60-13.94Q58.51-11.51 58.51-9.07L58.51-9.07L58.51-9.07Q58.51-3.91 61.11-3.91L61.11-3.91L61.11-3.91Q61.49-3.91 61.85-4.05L61.85-4.05L61.85-4.05Q62.20-4.20 62.29-4.20L62.29-4.20L62.29-4.20Q62.62-4.20 62.81-3.78L62.81-3.78L62.81-3.78Q63-3.36 63-2.94L63-2.94L63-2.94Q63-1.51 61.87-0.53L61.87-0.53L61.87-0.53Q60.73 0.46 59.09 0.46L59.09 0.46L59.09 0.46Q56.57 0.46 55.29-1.74L55.29-1.74L55.29-1.74Q54.01-3.95 54.01-7.22L54.01-7.22L54.01-7.22Q54.01-11.38 55.99-14.95L55.99-14.95L55.99-14.95Q56.99-16.72 58.72-17.79L58.72-17.79L58.72-17.79Q60.44-18.86 62.62-18.86" fill="#00a1d5" stroke="none" stroke-width="none" transform="translate(-90.32498168945312,12.030483570098877)" style="fill: rgb(0, 161, 213);"></path></g><g class="path" style="transform: matrix(1, 0, 0, 1, 0, 0); transform-origin: -15.23px -12.1845px; animation: 1s linear -0.385s infinite normal forwards running bounce-baea6187-5fad-4574-ac11-d6f1aae83674;"><path d="M75.85-22.47L75.85-22.47L74.84-22.51L74.84-22.51Q73.71-22.51 73.37-21.97L73.37-21.97L73.37-21.97Q73.29-21.84 73.16-21.84L73.16-21.84L73.16-21.84Q72.62-21.84 72.62-23.71L72.62-23.71L72.62-23.71Q72.62-25.58 73.19-26.08L73.19-26.08L73.19-26.08Q73.75-26.59 75.16-26.59L75.16-26.59L75.16-26.59Q76.57-26.59 77.07-26.10L77.07-26.10L77.07-26.10Q77.57-25.62 77.57-24.49L77.57-24.49L77.57-24.49Q77.57-23.35 77.20-22.91L77.20-22.91L77.20-22.91Q76.82-22.47 75.85-22.47" fill="#00a1d5" stroke="none" stroke-width="none" transform="translate(-90.32498168945312,12.030483570098877)" style="fill: rgb(0, 161, 213);"></path></g><g class="path" style="transform: matrix(1, 0, 0, 1, 0, 0); transform-origin: -15.775px 3.02048px; animation: 1s linear -0.33s infinite normal forwards running bounce-baea6187-5fad-4574-ac11-d6f1aae83674;"><path d="M72.49-1.26L72.49-1.26L72.95-11.05L72.95-11.05Q72.95-14.53 72.16-15.79L72.16-15.79L72.16-15.79Q71.90-16.21 71.57-16.42L71.57-16.42L71.57-16.42Q71.32-16.51 71.32-16.76L71.32-16.76L71.32-16.76Q71.32-17.51 73.46-18.23L73.46-18.23L73.46-18.23Q75.60-18.94 76.59-18.94L76.59-18.94L76.59-18.94Q77.57-18.94 77.62-18.44L77.62-18.44L77.62-18.44Q77.62-17.60 77.39-13.67L77.39-13.67L77.39-13.67Q77.15-9.74 77.15-5.42L77.15-5.42L77.15-5.42Q77.15-1.09 77.66-0.04L77.66-0.04L77.66-0.04Q77.78 0.17 77.78 0.38L77.78 0.38L77.78 0.38Q77.78 0.92 76.19 0.92L76.19 0.92L76.19 0.92Q74.59 0.92 72.91 0.08L72.91 0.08L72.91 0.08Q72.49-0.13 72.49-1.26" fill="#00a1d5" stroke="none" stroke-width="none" transform="translate(-90.32498168945312,12.030483570098877)" style="fill: rgb(0, 161, 213);"></path></g><g class="path" style="transform: matrix(1, 0, 0, 1, 0, 0); transform-origin: -2.28998px 2.85548px; animation: 1s linear -0.275s infinite normal forwards running bounce-baea6187-5fad-4574-ac11-d6f1aae83674;"><path d="M80.35 0.29L80.35 0.29L80.35 0.29Q81.10-4.24 81.10-10.58L81.10-10.58L81.10-10.58Q81.10-16.93 80.72-18.82L80.72-18.82L80.72-18.82Q80.72-19.36 81.98-19.36L81.98-19.36L81.98-19.36Q83.92-19.36 84.55-17.89L84.55-17.89L84.55-17.89Q84.59-17.77 84.76-17.77L84.76-17.77L84.76-17.77Q84.92-17.77 85.01-17.85L85.01-17.85L85.01-17.85Q86.31-19.19 89.04-19.19L89.04-19.19L89.04-19.19Q91.77-19.19 93.37-17.81L93.37-17.81L93.37-17.81Q94.96-16.42 94.96-13.78L94.96-13.78L94.96-13.78Q94.96-12.18 94.69-9.24L94.69-9.24L94.69-9.24Q94.42-6.30 94.42-4.87L94.42-4.87L94.42-4.87Q94.42-1.47 95.55 0.04L95.55 0.04L95.55 0.04Q95.72 0.25 95.72 0.46L95.72 0.46L95.72 0.46Q95.72 1.01 94.54 1.01L94.54 1.01L94.54 1.01Q89.33 1.01 89.33-3.61L89.33-3.61L89.33-3.61Q89.33-5.38 90.13-8.53L90.13-8.53L90.13-8.53Q90.93-11.68 90.93-13.31L90.93-13.31L90.93-13.31Q90.93-16.67 88.16-16.67L88.16-16.67L88.16-16.67Q86.81-16.67 86.12-15.88L86.12-15.88L86.12-15.88Q85.43-15.08 85.34-14.05L85.34-14.05L85.34-14.05Q85.26-13.02 85.26-10.16L85.26-10.16L85.26-10.16Q85.26-5.80 85.55-2.56L85.55-2.56L85.64-1.64L85.64-1.64Q85.64-0.46 84.11 0.19L84.11 0.19L84.11 0.19Q82.57 0.84 81.46 0.84L81.46 0.84L81.46 0.84Q80.35 0.84 80.35 0.29" fill="#00a1d5" stroke="none" stroke-width="none" transform="translate(-90.32498168945312,12.030483570098877)" style="fill: rgb(0, 161, 213);"></path></g><g class="path" style="transform: matrix(1, 0, 0, 1, 0, 0); transform-origin: 13.94px 8.88048px; animation: 1s linear -0.22s infinite normal forwards running bounce-baea6187-5fad-4574-ac11-d6f1aae83674;"><path d="M99.88-16.95L99.88-16.95L99.88-16.95Q100.80-17.89 102.31-18.54L102.31-18.54L102.31-18.54Q103.82-19.19 105.21-19.19L105.21-19.19L105.21-19.19Q106.60-19.19 108.02-18.56L108.02-18.56L108.02-18.56Q108.19-18.56 108.28-18.65L108.28-18.65L108.28-18.65Q109.37-19.74 111.47-19.74L111.47-19.74L111.47-19.74Q111.97-19.74 111.97-19.28L111.97-19.28L111.97-19.28Q111.97-19.24 111.89-18.90L111.89-18.90L111.89-18.90Q111.80-18.56 111.68-17.91L111.68-17.91L111.68-17.91Q111.55-17.26 111.47-16.34L111.47-16.34L111.47-16.34Q111.17-13.94 111.15-11.05L111.15-11.05L111.15-11.05Q111.13-8.15 111.13-5.25L111.13-5.25L111.26 3.57L111.26 3.57Q111.26 7.81 109.07 10.63L109.07 10.63L109.07 10.63Q108.19 11.76 106.41 12.60L106.41 12.60L106.41 12.60Q104.62 13.44 102.23 13.44L102.23 13.44L102.23 13.44Q101.68 13.10 101.68 12.77L101.68 12.77L101.68 12.77Q101.68 12.43 102.14 12.22L102.14 12.22L102.14 12.22Q104.79 11.00 105.92 6.45L105.92 6.45L105.92 6.45Q107.06 1.89 107.06-7.39L107.06-7.39L106.97-13.27L106.85-16.13L106.85-16.13Q106.85-16.51 105.67-16.67L105.67-16.67L105.67-16.67Q104.16-16.67 103.13-15.69L103.13-15.69L103.13-15.69Q102.10-14.70 101.72-13.10L101.72-13.10L101.72-13.10Q101.05-10.54 101.05-8.67L101.05-8.67L101.05-8.67Q101.05-6.80 101.66-5.38L101.66-5.38L101.66-5.38Q102.27-3.95 103.78-3.95L103.78-3.95L103.78-3.95Q104.20-3.95 104.56-4.12L104.56-4.12L104.56-4.12Q104.92-4.28 105.04-4.28L105.04-4.28L105.04-4.28Q105.46-4.28 105.46-3.44L105.46-3.44L105.46-3.44Q105.46-2.60 105.34-2.08L105.34-2.08L105.34-2.08Q105.21-1.55 104.83-0.92L104.83-0.92L104.83-0.92Q103.99 0.46 101.56 0.46L101.56 0.46L101.56 0.46Q99.12 0.46 98.07-1.30L98.07-1.30L98.07-1.30Q96.98-3.11 96.81-4.54L96.81-4.54L96.81-4.54Q96.56-6.68 96.56-7.35L96.56-7.35L96.56-7.35Q96.56-8.02 96.58-8.42L96.58-8.42L96.58-8.42Q96.60-8.82 96.79-10.02L96.79-10.02L96.79-10.02Q96.98-11.21 97.29-12.29L97.29-12.29L97.29-12.29Q97.61-13.36 98.28-14.68L98.28-14.68L98.28-14.68Q98.95-16.00 99.88-16.95" fill="#00a1d5" stroke="none" stroke-width="none" transform="translate(-90.32498168945312,12.030483570098877)" style="fill: rgb(0, 161, 213);"></path></g><g class="path" style="transform: matrix(1, 0, 0, 1, 0, 0); transform-origin: 37.835px -2.89952px; animation: 1s linear -0.165s infinite normal forwards running bounce-baea6187-5fad-4574-ac11-d6f1aae83674;"><path d="M124.70-29.90L124.70-29.90L130.75-29.57L130.75-29.57Q134.78-29.57 136.54-30.53L136.54-30.53L136.54-30.53Q136.79-30.70 136.98-30.70L136.98-30.70L136.98-30.70Q137.17-30.70 137.17-30.11L137.17-30.11L137.17-30.11Q137.17-29.53 136.46-28.18L136.46-28.18L136.46-28.18Q135.41-26.12 133.43-26.12L133.43-26.12L131.12-26.17L131.12-26.17Q130.79-26.17 130.70-25.79L130.70-25.79L130.70-25.79Q130.41-19.61 130.41-12.45L130.41-12.45L130.41-12.45Q130.41-5.29 131.00-1.68L131.00-1.68L131.00-1.47L131.00-1.47Q131.00-0.42 129.00 0.21L129.00 0.21L129.00 0.21Q127.01 0.84 125.24 0.84L125.24 0.84L125.24 0.84Q124.40 0.84 124.40 0.38L124.40 0.38L124.40 0.38Q124.40 0.25 124.53-0.21L124.53-0.21L124.53-0.21Q124.99-1.13 125.35-9.16L125.35-9.16L125.35-9.16Q125.71-17.18 125.71-21.25L125.71-21.25L125.62-25.83L125.62-25.83Q125.62-26.08 125.37-26.12L125.37-26.12L125.37-26.12Q124.49-26.29 123.35-26.29L123.35-26.29L123.35-26.29Q121.09-26.29 119.99-25.37L119.99-25.37L119.99-25.37Q119.70-25.16 119.43-25.16L119.43-25.16L119.43-25.16Q119.15-25.16 119.15-25.49L119.15-25.49L119.15-25.49Q119.15-26.00 119.68-26.88L119.68-26.88L119.68-26.88Q120.20-27.76 120.79-28.39L120.79-28.39L120.79-28.39Q122.22-29.90 124.70-29.90" fill="#00a1d5" stroke="none" stroke-width="none" transform="translate(-90.32498168945312,12.030483570098877)" style="fill: rgb(0, 161, 213);"></path></g><g class="path" style="transform: matrix(1, 0, 0, 1, 0, 0); transform-origin: 52.18px 2.81548px; animation: 1s linear -0.11s infinite normal forwards running bounce-baea6187-5fad-4574-ac11-d6f1aae83674;"><path d="M149.27-12.60L149.27-12.60L149.18-7.22L149.18-7.22Q149.18-1.64 150.40-0.50L150.40-0.50L150.40-0.50Q150.57-0.34 150.57-0.13L150.57-0.13L150.57-0.13Q150.57 0.50 147.86 0.50L147.86 0.50L147.86 0.50Q145.15 0.50 144.98-1.09L144.98-1.09L144.98-1.09Q144.94-1.47 144.94-2.65L144.94-2.65L145.11-9.37L145.11-9.37Q145.11-9.66 144.77-9.66L144.77-9.66L144.77-9.66Q142.76-9.66 140.99-8.53L140.99-8.53L140.99-8.53Q139.23-7.39 139.23-5.63L139.23-5.63L139.23-5.63Q139.23-4.70 139.73-4.07L139.73-4.07L139.73-4.07Q140.24-3.44 140.97-3.44L140.97-3.44L140.97-3.44Q141.71-3.44 142.19-3.74L142.19-3.74L142.19-3.74Q142.67-4.03 142.76-4.07L142.76-4.07L142.76-4.07Q143.47-3.99 143.47-2.58L143.47-2.58L143.47-2.58Q143.47-1.18 142.17-0.32L142.17-0.32L142.17-0.32Q140.87 0.55 139.44 0.55L139.44 0.55L139.44 0.55Q138.01 0.55 136.98 0.04L136.98 0.04L136.98 0.04Q135.95-0.46 135.49-1.09L135.49-1.09L135.49-1.09Q135.03-1.72 134.74-2.52L134.74-2.52L134.74-2.52Q134.44-3.49 134.44-4.20L134.44-4.20L134.44-4.20Q134.44-7.14 136.29-8.90L136.29-8.90L136.29-8.90Q138.14-10.67 141.04-11.42L141.04-11.42L141.04-11.42Q144.86-12.18 145.03-12.81L145.03-12.81L145.03-12.81Q145.15-13.27 145.15-14.36L145.15-14.36L145.15-14.36Q145.15-16.59 142.88-16.59L142.88-16.59L142.88-16.59Q141.92-16.59 141.16-15.98L141.16-15.98L141.16-15.98Q140.41-15.37 140.41-14.45L140.41-14.45L140.66-13.44L140.66-13.44Q140.57-12.73 139.15-12.60L139.15-12.60L138.68-12.56L138.68-12.56Q137.42-12.56 136.69-13.19L136.69-13.19L136.69-13.19Q135.95-13.82 135.95-14.87L135.95-14.87L135.95-14.87Q135.95-15.54 136.40-16.36L136.40-16.36L136.40-16.36Q136.84-17.18 137.51-17.68L137.51-17.68L137.51-17.68Q138.18-18.19 139.59-18.59L139.59-18.59L139.59-18.59Q140.99-18.98 142.30-18.98L142.30-18.98L142.30-18.98Q143.60-18.98 144.31-18.90L144.31-18.90L144.31-18.90Q145.03-18.82 146.27-18.50L146.27-18.50L146.27-18.50Q147.50-18.19 148.32-17.30L148.32-17.30L148.32-17.30Q149.14-16.42 149.21-15.44L149.21-15.44L149.21-15.44Q149.27-14.45 149.27-12.60" fill="#00a1d5" stroke="none" stroke-width="none" transform="translate(-90.32498168945312,12.030483570098877)" style="fill: rgb(0, 161, 213);"></path></g><g class="path" style="transform: matrix(1, 0, 0, 1, 0, 0); transform-origin: 68.665px 8.88048px; animation: 1s linear -0.055s infinite normal forwards running bounce-baea6187-5fad-4574-ac11-d6f1aae83674;"><path d="M154.60-16.95L154.60-16.95L154.60-16.95Q155.53-17.89 157.04-18.54L157.04-18.54L157.04-18.54Q158.55-19.19 159.94-19.19L159.94-19.19L159.94-19.19Q161.32-19.19 162.75-18.56L162.75-18.56L162.75-18.56Q162.92-18.56 163.00-18.65L163.00-18.65L163.00-18.65Q164.09-19.74 166.19-19.74L166.19-19.74L166.19-19.74Q166.70-19.74 166.70-19.28L166.70-19.28L166.70-19.28Q166.70-19.24 166.61-18.90L166.61-18.90L166.61-18.90Q166.53-18.56 166.40-17.91L166.40-17.91L166.40-17.91Q166.28-17.26 166.19-16.34L166.19-16.34L166.19-16.34Q165.90-13.94 165.88-11.05L165.88-11.05L165.88-11.05Q165.86-8.15 165.86-5.25L165.86-5.25L165.98 3.57L165.98 3.57Q165.98 7.81 163.80 10.63L163.80 10.63L163.80 10.63Q162.92 11.76 161.13 12.60L161.13 12.60L161.13 12.60Q159.35 13.44 156.95 13.44L156.95 13.44L156.95 13.44Q156.41 13.10 156.41 12.77L156.41 12.77L156.41 12.77Q156.41 12.43 156.87 12.22L156.87 12.22L156.87 12.22Q159.52 11.00 160.65 6.45L160.65 6.45L160.65 6.45Q161.78 1.89 161.78-7.39L161.78-7.39L161.70-13.27L161.57-16.13L161.57-16.13Q161.57-16.51 160.40-16.67L160.40-16.67L160.40-16.67Q158.89-16.67 157.86-15.69L157.86-15.69L157.86-15.69Q156.83-14.70 156.45-13.10L156.45-13.10L156.45-13.10Q155.78-10.54 155.78-8.67L155.78-8.67L155.78-8.67Q155.78-6.80 156.39-5.38L156.39-5.38L156.39-5.38Q157.00-3.95 158.51-3.95L158.51-3.95L158.51-3.95Q158.93-3.95 159.29-4.12L159.29-4.12L159.29-4.12Q159.64-4.28 159.77-4.28L159.77-4.28L159.77-4.28Q160.19-4.28 160.19-3.44L160.19-3.44L160.19-3.44Q160.19-2.60 160.06-2.08L160.06-2.08L160.06-2.08Q159.94-1.55 159.56-0.92L159.56-0.92L159.56-0.92Q158.72 0.46 156.28 0.46L156.28 0.46L156.28 0.46Q153.85 0.46 152.80-1.30L152.80-1.30L152.80-1.30Q151.70-3.11 151.54-4.54L151.54-4.54L151.54-4.54Q151.28-6.68 151.28-7.35L151.28-7.35L151.28-7.35Q151.28-8.02 151.31-8.42L151.31-8.42L151.31-8.42Q151.33-8.82 151.52-10.02L151.52-10.02L151.52-10.02Q151.70-11.21 152.02-12.29L152.02-12.29L152.02-12.29Q152.33-13.36 153.01-14.68L153.01-14.68L153.01-14.68Q153.68-16.00 154.60-16.95" fill="#00a1d5" stroke="none" stroke-width="none" transform="translate(-90.32498168945312,12.030483570098877)" style="fill: rgb(0, 161, 213);"></path></g><g class="path" style="transform: matrix(1, 0, 0, 1, 0, 0); transform-origin: 84.23px 2.95548px; animation: 1s linear 0s infinite normal forwards running bounce-baea6187-5fad-4574-ac11-d6f1aae83674;"><path d="M181.36-5.75L181.36-5.75L181.36-5.75Q181.36-3.95 180.66-2.60L180.66-2.60L180.66-2.60Q179.97-1.26 179.09-0.63L179.09-0.63L179.09-0.63Q178.21 0 176.99 0.38L176.99 0.38L176.99 0.38Q175.39 0.88 174.09 0.88L174.09 0.88L174.09 0.88Q171.36 0.88 169.55-0.19L169.55-0.19L169.55-0.19Q167.75-1.26 167.75-3.61L167.75-3.61L167.75-3.61Q167.75-5.00 168.50-5.88L168.50-5.88L168.50-5.88Q169.68-7.18 171.32-7.18L171.32-7.18L171.32-7.18Q171.82-7.18 171.82-6.72L171.82-6.72L171.82-6.72Q171.82-6.68 171.63-6.07L171.63-6.07L171.63-6.07Q171.44-5.46 171.44-4.54L171.44-4.54L171.44-4.54Q171.44-3.61 172.18-2.90L172.18-2.90L172.18-2.90Q172.91-2.18 173.96-2.18L173.96-2.18L173.96-2.18Q175.01-2.18 175.64-2.54L175.64-2.54L175.64-2.54Q176.27-2.90 176.53-3.44L176.53-3.44L176.53-3.44Q176.90-4.20 176.90-4.87L176.90-4.87L176.90-4.87Q176.90-6.09 175.69-6.97L175.69-6.97L175.69-6.97Q174.47-7.85 173.00-8.36L173.00-8.36L173.00-8.36Q171.53-8.86 170.31-10.04L170.31-10.04L170.31-10.04Q169.09-11.21 169.09-12.98L169.09-12.98L169.09-12.98Q169.09-16.00 171.00-17.51L171.00-17.51L171.00-17.51Q172.91-19.03 176.19-19.03L176.19-19.03L176.19-19.03Q177.62-19.03 179.19-18.63L179.19-18.63L179.19-18.63Q180.77-18.23 180.77-17.28L180.77-17.28L180.77-17.28Q180.77-16.34 180.45-15.54L180.45-15.54L180.45-15.54Q180.14-14.74 179.68-14.74L179.68-14.74L179.68-14.74Q179.42-14.74 179.34-14.93L179.34-14.93L179.34-14.93Q179.26-15.12 179.05-15.37L179.05-15.37L179.05-15.37Q178.84-15.62 178.04-16.02L178.04-16.02L178.04-16.02Q177.24-16.42 176.67-16.42L176.67-16.42L176.67-16.42Q176.11-16.42 175.92-16.40L175.92-16.40L175.92-16.40Q175.73-16.38 175.27-16.28L175.27-16.28L175.27-16.28Q174.80-16.17 174.43-15.96L174.43-15.96L174.43-15.96Q173.46-15.41 173.46-14.36L173.46-14.36L173.46-14.36Q173.46-13.69 173.75-13.38L173.75-13.38L173.75-13.38Q174.05-13.06 174.22-12.89L174.22-12.89L174.22-12.89Q174.38-12.73 174.80-12.50L174.80-12.50L174.80-12.50Q175.22-12.26 175.39-12.18L175.39-12.18L175.39-12.18Q175.56-12.10 176.15-11.82L176.15-11.82L176.15-11.82Q176.74-11.55 176.90-11.47L176.90-11.47L176.90-11.47Q181.36-9.37 181.36-5.75" fill="#00a1d5" stroke="none" stroke-width="none" transform="translate(-90.32498168945312,12.030483570098877)" style="fill: rgb(0, 161, 213);"></path></g></g>
</g>
</g>
<style id="bounce-baea6187-5fad-4574-ac11-d6f1aae83674" data-anikit="">@keyframes bounce-baea6187-5fad-4574-ac11-d6f1aae83674
{
  0% {
    animation-timing-function: cubic-bezier(0.1361,0.2514,0.2175,0.8786);
    transform: translate(0,0px) scaleY(1);
  }
  37% {
    animation-timing-function: cubic-bezier(0.7674,0.1844,0.8382,0.7157);
    transform: translate(0,-6.993px) scaleY(1);
  }
  72% {
    animation-timing-function: cubic-bezier(0.3337,0.6674,0.6634,1);
    transform: translate(0,0px) scaleY(1);
  }
  87% {
    animation-timing-function: cubic-bezier(0.336,0.168,0.6659,0.4989);
    transform: translate(0,0.3600000000000003px) scaleY(0.99);
  }
  100% {
    transform: translate(0,0px) scaleY(1);
  }
}</style></svg>