<?xml version="1.0" encoding="utf-8"?>
<svg xmlns="http://www.w3.org/2000/svg" style="margin: auto; background: none; display: block; shape-rendering: auto;" width="281" height="71" preserveAspectRatio="xMidYMid">
<style type="text/css">
  text {
    text-anchor: middle; font-size: 42px; opacity: 0;
  }
</style>
<g style="transform-origin:140.5px 35.5px;transform:scale(1)">
<g transform="translate(140.5,35.5)">
  <g transform="translate(0,0)"><g class="path" style="transform: matrix(1, 0, 0, 1, 0, 0); transform-origin: -86.06px -3.12515px; animation: 1s linear -0.605s infinite normal forwards running bounce-baea6187-5fad-4574-ac11-d6f1aae83674;"><path d="M12.94-0.04L12.94-0.04L10.54-0.08L10.54-0.08Q10.04-0.08 9.53-0.08L9.53-0.08L1.89 0.29L1.89 0.29Q1.26 0.29 1.26-0.13L1.26-0.13L1.26-0.13Q1.26-0.25 1.39-0.71L1.39-0.71L1.39-0.71Q1.81-1.68 2.00-6.85L2.00-6.85L2.00-6.85Q2.18-12.01 2.18-16.28L2.18-16.28L2.18-16.28Q2.18-20.54 2.02-23.18L2.02-23.18L2.02-23.18Q1.76-27.17 1.18-27.97L1.18-27.97L1.18-27.97Q0.71-28.56 0.71-28.73L0.71-28.73L0.71-28.73Q0.71-29.40 2.98-29.90L2.98-29.90L2.98-29.90Q5.25-30.41 6.24-30.41L6.24-30.41L6.24-30.41Q7.22-30.41 7.48-30.30L7.48-30.30L7.48-30.30Q7.73-30.20 7.73-29.86L7.73-29.86L7.73-29.86Q7.73-29.53 7.56-27.72L7.56-27.72L7.56-27.72Q7.14-22.39 7.14-15.31L7.14-15.31L7.14-15.31Q7.14-8.23 7.48-3.99L7.48-3.99L7.48-3.99Q7.48-3.53 8.27-3.19L8.27-3.19L8.27-3.19Q9.07-2.86 10.25-2.86L10.25-2.86L10.25-2.86Q14.36-2.86 14.36-9.20L14.36-9.20L14.36-9.20Q14.36-10.96 14.18-11.38L14.18-11.38L14.18-11.38Q13.99-11.80 13.99-11.93L13.99-11.93L13.99-11.93Q13.99-12.35 14.57-12.35L14.57-12.35L14.57-12.35Q15.04-12.35 15.81-11.89L15.81-11.89L15.81-11.89Q16.59-11.42 17.09-10.73L17.09-10.73L17.09-10.73Q17.60-10.04 18.02-8.55L18.02-8.55L18.02-8.55Q18.44-7.06 18.44-5.04L18.44-5.04L18.44-5.04Q18.44-0.04 17.22-0.04L17.22-0.04L17.22-0.04Q15.08-0.04 12.94-0.04" fill="#00a1d5" stroke="none" stroke-width="none" transform="translate(-95.63497924804688,11.934849859873452)" style="fill: rgb(0, 161, 213);"></path></g><g class="path" style="transform: matrix(1, 0, 0, 1, 0, 0); transform-origin: -67.98px 2.86485px; animation: 1s linear -0.55s infinite normal forwards running bounce-baea6187-5fad-4574-ac11-d6f1aae83674;"><path d="M24.11-15.83L24.11-15.83L24.11-15.83Q23.02-15.79 22.53-15.77L22.53-15.77L22.53-15.77Q22.05-15.75 22.05-16.00L22.05-16.00L22.05-16.00Q22.05-16.25 22.30-16.51L22.30-16.51L22.30-16.51Q24.99-18.98 31.37-18.98L31.37-18.98L31.37-18.98Q33.56-18.98 34.82-18.61L34.82-18.61L35.24-18.48L35.24-18.48Q35.74-18.27 35.74-18.02L35.74-18.02L35.74-18.02Q35.74-17.81 35.45-17.68L35.45-17.68L35.45-17.68Q34.31-17.35 33.26-16.61L33.26-16.61L33.26-16.61Q32.21-15.88 32.21-15.58L32.21-15.58L32.47-15.29L32.47-15.29Q33.81-14.53 34.55-12.89L34.55-12.89L34.55-12.89Q35.28-11.26 35.36-10.00L35.36-10.00L35.45-8.69L35.45-8.69Q35.45-4.54 33.14-1.85L33.14-1.85L33.14-1.85Q30.83 0.84 26.84 0.84L26.84 0.84L26.84 0.84Q24.82 0.84 23.35 0.13L23.35 0.13L23.35 0.13Q21.88-0.59 21.19-1.49L21.19-1.49L21.19-1.49Q20.50-2.39 20.08-3.53L20.08-3.53L20.08-3.53Q19.57-5.08 19.57-6.74L19.57-6.74L19.57-6.74Q19.57-8.40 20.14-10.08L20.14-10.08L20.14-10.08Q20.71-11.76 21.44-12.56L21.44-12.56L21.44-12.56Q22.18-13.36 23.10-13.86L23.10-13.86L23.10-13.86Q24.28-14.49 24.99-14.49L24.99-14.49L24.99-14.49Q25.70-14.49 25.70-14.20L25.70-14.20L25.45-13.78L25.45-13.78Q24.53-12.68 24.13-10.92L24.13-10.92L24.13-10.92Q23.73-9.16 23.73-7.79L23.73-7.79L23.73-7.79Q23.73-6.43 24.07-5.08L24.07-5.08L24.07-5.08Q24.40-3.74 24.82-3.09L24.82-3.09L24.82-3.09Q25.24-2.44 25.79-2.10L25.79-2.10L25.79-2.10Q26.59-1.60 27.47-1.60L27.47-1.60L27.47-1.60Q28.35-1.60 29.19-2.29L29.19-2.29L29.19-2.29Q30.03-2.98 30.41-4.12L30.41-4.12L30.41-4.12Q31.16-6.22 31.16-8.44L31.16-8.44L31.16-8.44Q31.16-11.97 29.38-13.90L29.38-13.90L29.38-13.90Q27.59-15.83 24.11-15.83" fill="#00a1d5" stroke="none" stroke-width="none" transform="translate(-95.63497924804688,11.934849859873452)" style="fill: rgb(0, 161, 213);"></path></g><g class="path" style="transform: matrix(1, 0, 0, 1, 0, 0); transform-origin: -50.74px 2.71985px; animation: 1s linear -0.495s infinite normal forwards running bounce-baea6187-5fad-4574-ac11-d6f1aae83674;"><path d="M51.66-12.60L51.66-12.60L51.58-7.22L51.58-7.22Q51.58-1.64 52.79-0.50L52.79-0.50L52.79-0.50Q52.96-0.34 52.96-0.13L52.96-0.13L52.96-0.13Q52.96 0.50 50.25 0.50L50.25 0.50L50.25 0.50Q47.54 0.50 47.38-1.09L47.38-1.09L47.38-1.09Q47.33-1.47 47.33-2.65L47.33-2.65L47.50-9.37L47.50-9.37Q47.50-9.66 47.17-9.66L47.17-9.66L47.17-9.66Q45.15-9.66 43.39-8.53L43.39-8.53L43.39-8.53Q41.62-7.39 41.62-5.63L41.62-5.63L41.62-5.63Q41.62-4.70 42.13-4.07L42.13-4.07L42.13-4.07Q42.63-3.44 43.37-3.44L43.37-3.44L43.37-3.44Q44.10-3.44 44.58-3.74L44.58-3.74L44.58-3.74Q45.07-4.03 45.15-4.07L45.15-4.07L45.15-4.07Q45.86-3.99 45.86-2.58L45.86-2.58L45.86-2.58Q45.86-1.18 44.56-0.32L44.56-0.32L44.56-0.32Q43.26 0.55 41.83 0.55L41.83 0.55L41.83 0.55Q40.40 0.55 39.38 0.04L39.38 0.04L39.38 0.04Q38.35-0.46 37.88-1.09L37.88-1.09L37.88-1.09Q37.42-1.72 37.13-2.52L37.13-2.52L37.13-2.52Q36.83-3.49 36.83-4.20L36.83-4.20L36.83-4.20Q36.83-7.14 38.68-8.90L38.68-8.90L38.68-8.90Q40.53-10.67 43.43-11.42L43.43-11.42L43.43-11.42Q47.25-12.18 47.42-12.81L47.42-12.81L47.42-12.81Q47.54-13.27 47.54-14.36L47.54-14.36L47.54-14.36Q47.54-16.59 45.28-16.59L45.28-16.59L45.28-16.59Q44.31-16.59 43.55-15.98L43.55-15.98L43.55-15.98Q42.80-15.37 42.80-14.45L42.80-14.45L43.05-13.44L43.05-13.44Q42.97-12.73 41.54-12.60L41.54-12.60L41.08-12.56L41.08-12.56Q39.82-12.56 39.08-13.19L39.08-13.19L39.08-13.19Q38.35-13.82 38.35-14.87L38.35-14.87L38.35-14.87Q38.35-15.54 38.79-16.36L38.79-16.36L38.79-16.36Q39.23-17.18 39.90-17.68L39.90-17.68L39.90-17.68Q40.57-18.19 41.98-18.59L41.98-18.59L41.98-18.59Q43.39-18.98 44.69-18.98L44.69-18.98L44.69-18.98Q45.99-18.98 46.70-18.90L46.70-18.90L46.70-18.90Q47.42-18.82 48.66-18.50L48.66-18.50L48.66-18.50Q49.90-18.19 50.72-17.30L50.72-17.30L50.72-17.30Q51.53-16.42 51.60-15.44L51.60-15.44L51.60-15.44Q51.66-14.45 51.66-12.60" fill="#00a1d5" stroke="none" stroke-width="none" transform="translate(-95.63497924804688,11.934849859873452)" style="fill: rgb(0, 161, 213);"></path></g><g class="path" style="transform: matrix(1, 0, 0, 1, 0, 0); transform-origin: -33.81px -2.40515px; animation: 1s linear -0.44s infinite normal forwards running bounce-baea6187-5fad-4574-ac11-d6f1aae83674;"><path d="M62.62-18.86L62.62-18.86L62.62-18.86Q63.38-18.86 63.99-18.67L63.99-18.67L63.99-18.67Q64.60-18.48 64.64-18.48L64.64-18.48L64.89-18.69L64.72-23.27L64.72-23.27Q64.64-24.44 64.22-25.28L64.22-25.28L64.22-25.28Q63.80-26.12 63.46-26.38L63.46-26.38L63.08-26.59L63.08-26.59Q62.83-26.75 62.83-26.96L62.83-26.96L62.83-26.96Q62.83-27.59 64.78-28.43L64.78-28.43L64.78-28.43Q66.74-29.27 67.83-29.27L67.83-29.27L67.83-29.27Q68.92-29.27 69.01-28.81L69.01-28.81L69.01-28.81Q69.22-27.38 69.22-23.37L69.22-23.37L69.22-23.37Q69.22-19.36 69.03-15.50L69.03-15.50L69.03-15.50Q68.84-11.63 68.84-6.74L68.84-6.74L68.84-6.74Q68.84-1.85 69.47-0.59L69.47-0.59L69.47-0.59Q69.64-0.29 69.64-0.04L69.64-0.04L69.64-0.04Q69.64 0.59 67.83 0.59L67.83 0.59L67.83 0.59Q64.39 0.59 64.39-1.05L64.39-1.05L64.39-1.05Q64.30-1.72 64.30-3.13L64.30-3.13L64.30-3.13Q64.30-4.54 64.58-8.38L64.58-8.38L64.58-8.38Q64.85-12.22 64.85-14.30L64.85-14.30L64.85-14.30Q64.85-16.38 62.77-16.38L62.77-16.38L62.77-16.38Q60.69-16.38 59.60-13.94L59.60-13.94L59.60-13.94Q58.51-11.51 58.51-9.07L58.51-9.07L58.51-9.07Q58.51-3.91 61.11-3.91L61.11-3.91L61.11-3.91Q61.49-3.91 61.85-4.05L61.85-4.05L61.85-4.05Q62.20-4.20 62.29-4.20L62.29-4.20L62.29-4.20Q62.62-4.20 62.81-3.78L62.81-3.78L62.81-3.78Q63-3.36 63-2.94L63-2.94L63-2.94Q63-1.51 61.87-0.53L61.87-0.53L61.87-0.53Q60.73 0.46 59.09 0.46L59.09 0.46L59.09 0.46Q56.57 0.46 55.29-1.74L55.29-1.74L55.29-1.74Q54.01-3.95 54.01-7.22L54.01-7.22L54.01-7.22Q54.01-11.38 55.99-14.95L55.99-14.95L55.99-14.95Q56.99-16.72 58.72-17.79L58.72-17.79L58.72-17.79Q60.44-18.86 62.62-18.86" fill="#00a1d5" stroke="none" stroke-width="none" transform="translate(-95.63497924804688,11.934849859873452)" style="fill: rgb(0, 161, 213);"></path></g><g class="path" style="transform: matrix(1, 0, 0, 1, 0, 0); transform-origin: -20.54px -12.2802px; animation: 1s linear -0.385s infinite normal forwards running bounce-baea6187-5fad-4574-ac11-d6f1aae83674;"><path d="M75.85-22.47L75.85-22.47L74.84-22.51L74.84-22.51Q73.71-22.51 73.37-21.97L73.37-21.97L73.37-21.97Q73.29-21.84 73.16-21.84L73.16-21.84L73.16-21.84Q72.62-21.84 72.62-23.71L72.62-23.71L72.62-23.71Q72.62-25.58 73.19-26.08L73.19-26.08L73.19-26.08Q73.75-26.59 75.16-26.59L75.16-26.59L75.16-26.59Q76.57-26.59 77.07-26.10L77.07-26.10L77.07-26.10Q77.57-25.62 77.57-24.49L77.57-24.49L77.57-24.49Q77.57-23.35 77.20-22.91L77.20-22.91L77.20-22.91Q76.82-22.47 75.85-22.47" fill="#00a1d5" stroke="none" stroke-width="none" transform="translate(-95.63497924804688,11.934849859873452)" style="fill: rgb(0, 161, 213);"></path></g><g class="path" style="transform: matrix(1, 0, 0, 1, 0, 0); transform-origin: -21.085px 2.92485px; animation: 1s linear -0.33s infinite normal forwards running bounce-baea6187-5fad-4574-ac11-d6f1aae83674;"><path d="M72.49-1.26L72.49-1.26L72.95-11.05L72.95-11.05Q72.95-14.53 72.16-15.79L72.16-15.79L72.16-15.79Q71.90-16.21 71.57-16.42L71.57-16.42L71.57-16.42Q71.32-16.51 71.32-16.76L71.32-16.76L71.32-16.76Q71.32-17.51 73.46-18.23L73.46-18.23L73.46-18.23Q75.60-18.94 76.59-18.94L76.59-18.94L76.59-18.94Q77.57-18.94 77.62-18.44L77.62-18.44L77.62-18.44Q77.62-17.60 77.39-13.67L77.39-13.67L77.39-13.67Q77.15-9.74 77.15-5.42L77.15-5.42L77.15-5.42Q77.15-1.09 77.66-0.04L77.66-0.04L77.66-0.04Q77.78 0.17 77.78 0.38L77.78 0.38L77.78 0.38Q77.78 0.92 76.19 0.92L76.19 0.92L76.19 0.92Q74.59 0.92 72.91 0.08L72.91 0.08L72.91 0.08Q72.49-0.13 72.49-1.26" fill="#00a1d5" stroke="none" stroke-width="none" transform="translate(-95.63497924804688,11.934849859873452)" style="fill: rgb(0, 161, 213);"></path></g><g class="path" style="transform: matrix(1, 0, 0, 1, 0, 0); transform-origin: -7.59998px 2.75985px; animation: 1s linear -0.275s infinite normal forwards running bounce-baea6187-5fad-4574-ac11-d6f1aae83674;"><path d="M80.35 0.29L80.35 0.29L80.35 0.29Q81.10-4.24 81.10-10.58L81.10-10.58L81.10-10.58Q81.10-16.93 80.72-18.82L80.72-18.82L80.72-18.82Q80.72-19.36 81.98-19.36L81.98-19.36L81.98-19.36Q83.92-19.36 84.55-17.89L84.55-17.89L84.55-17.89Q84.59-17.77 84.76-17.77L84.76-17.77L84.76-17.77Q84.92-17.77 85.01-17.85L85.01-17.85L85.01-17.85Q86.31-19.19 89.04-19.19L89.04-19.19L89.04-19.19Q91.77-19.19 93.37-17.81L93.37-17.81L93.37-17.81Q94.96-16.42 94.96-13.78L94.96-13.78L94.96-13.78Q94.96-12.18 94.69-9.24L94.69-9.24L94.69-9.24Q94.42-6.30 94.42-4.87L94.42-4.87L94.42-4.87Q94.42-1.47 95.55 0.04L95.55 0.04L95.55 0.04Q95.72 0.25 95.72 0.46L95.72 0.46L95.72 0.46Q95.72 1.01 94.54 1.01L94.54 1.01L94.54 1.01Q89.33 1.01 89.33-3.61L89.33-3.61L89.33-3.61Q89.33-5.38 90.13-8.53L90.13-8.53L90.13-8.53Q90.93-11.68 90.93-13.31L90.93-13.31L90.93-13.31Q90.93-16.67 88.16-16.67L88.16-16.67L88.16-16.67Q86.81-16.67 86.12-15.88L86.12-15.88L86.12-15.88Q85.43-15.08 85.34-14.05L85.34-14.05L85.34-14.05Q85.26-13.02 85.26-10.16L85.26-10.16L85.26-10.16Q85.26-5.80 85.55-2.56L85.55-2.56L85.64-1.64L85.64-1.64Q85.64-0.46 84.11 0.19L84.11 0.19L84.11 0.19Q82.57 0.84 81.46 0.84L81.46 0.84L81.46 0.84Q80.35 0.84 80.35 0.29" fill="#00a1d5" stroke="none" stroke-width="none" transform="translate(-95.63497924804688,11.934849859873452)" style="fill: rgb(0, 161, 213);"></path></g><g class="path" style="transform: matrix(1, 0, 0, 1, 0, 0); transform-origin: 8.63002px 8.78485px; animation: 1s linear -0.22s infinite normal forwards running bounce-baea6187-5fad-4574-ac11-d6f1aae83674;"><path d="M99.88-16.95L99.88-16.95L99.88-16.95Q100.80-17.89 102.31-18.54L102.31-18.54L102.31-18.54Q103.82-19.19 105.21-19.19L105.21-19.19L105.21-19.19Q106.60-19.19 108.02-18.56L108.02-18.56L108.02-18.56Q108.19-18.56 108.28-18.65L108.28-18.65L108.28-18.65Q109.37-19.74 111.47-19.74L111.47-19.74L111.47-19.74Q111.97-19.74 111.97-19.28L111.97-19.28L111.97-19.28Q111.97-19.24 111.89-18.90L111.89-18.90L111.89-18.90Q111.80-18.56 111.68-17.91L111.68-17.91L111.68-17.91Q111.55-17.26 111.47-16.34L111.47-16.34L111.47-16.34Q111.17-13.94 111.15-11.05L111.15-11.05L111.15-11.05Q111.13-8.15 111.13-5.25L111.13-5.25L111.26 3.57L111.26 3.57Q111.26 7.81 109.07 10.63L109.07 10.63L109.07 10.63Q108.19 11.76 106.41 12.60L106.41 12.60L106.41 12.60Q104.62 13.44 102.23 13.44L102.23 13.44L102.23 13.44Q101.68 13.10 101.68 12.77L101.68 12.77L101.68 12.77Q101.68 12.43 102.14 12.22L102.14 12.22L102.14 12.22Q104.79 11.00 105.92 6.45L105.92 6.45L105.92 6.45Q107.06 1.89 107.06-7.39L107.06-7.39L106.97-13.27L106.85-16.13L106.85-16.13Q106.85-16.51 105.67-16.67L105.67-16.67L105.67-16.67Q104.16-16.67 103.13-15.69L103.13-15.69L103.13-15.69Q102.10-14.70 101.72-13.10L101.72-13.10L101.72-13.10Q101.05-10.54 101.05-8.67L101.05-8.67L101.05-8.67Q101.05-6.80 101.66-5.38L101.66-5.38L101.66-5.38Q102.27-3.95 103.78-3.95L103.78-3.95L103.78-3.95Q104.20-3.95 104.56-4.12L104.56-4.12L104.56-4.12Q104.92-4.28 105.04-4.28L105.04-4.28L105.04-4.28Q105.46-4.28 105.46-3.44L105.46-3.44L105.46-3.44Q105.46-2.60 105.34-2.08L105.34-2.08L105.34-2.08Q105.21-1.55 104.83-0.92L104.83-0.92L104.83-0.92Q103.99 0.46 101.56 0.46L101.56 0.46L101.56 0.46Q99.12 0.46 98.07-1.30L98.07-1.30L98.07-1.30Q96.98-3.11 96.81-4.54L96.81-4.54L96.81-4.54Q96.56-6.68 96.56-7.35L96.56-7.35L96.56-7.35Q96.56-8.02 96.58-8.42L96.58-8.42L96.58-8.42Q96.60-8.82 96.79-10.02L96.79-10.02L96.79-10.02Q96.98-11.21 97.29-12.29L97.29-12.29L97.29-12.29Q97.61-13.36 98.28-14.68L98.28-14.68L98.28-14.68Q98.95-16.00 99.88-16.95" fill="#00a1d5" stroke="none" stroke-width="none" transform="translate(-95.63497924804688,11.934849859873452)" style="fill: rgb(0, 161, 213);"></path></g><g class="path" style="transform: matrix(1, 0, 0, 1, 0, 0); transform-origin: 35.175px -2.76515px; animation: 1s linear -0.165s infinite normal forwards running bounce-baea6187-5fad-4574-ac11-d6f1aae83674;"><path d="M134.78-23.27L134.78-23.27L134.95-24.57L134.95-24.57Q134.95-26.50 133.43-27.05L133.43-27.05L133.43-27.05Q132.26-27.43 131.63-27.43L131.63-27.43L131.59-27.43L131.59-27.43Q130.33-27.43 129.40-27.03L129.40-27.03L129.40-27.03Q128.48-26.63 128.06-26.04L128.06-26.04L128.06-26.04Q127.18-24.82 127.05-23.48L127.05-23.48L127.05-23.48Q127.05-21.88 128.48-20.73L128.48-20.73L128.48-20.73Q129.91-19.57 131.94-18.71L131.94-18.71L131.94-18.71Q133.98-17.85 136.02-16.84L136.02-16.84L136.02-16.84Q138.05-15.83 139.48-13.94L139.48-13.94L139.48-13.94Q140.91-12.05 140.91-9.41L140.91-9.41L140.91-9.41Q140.91-4.24 137.66-1.68L137.66-1.68L137.66-1.68Q134.40 0.88 130.26 0.88L130.26 0.88L130.26 0.88Q126.13 0.88 123.42-0.99L123.42-0.99L123.42-0.99Q120.71-2.86 120.71-6.01L120.71-6.01L120.71-6.05L120.71-6.05Q120.71-7.60 121.19-8.76L121.19-8.76L121.19-8.76Q121.67-9.91 122.35-10.46L122.35-10.46L122.35-10.46Q123.73-11.59 124.87-11.68L124.87-11.68L125.37-11.72L125.37-11.72Q126.55-11.72 127.51-11.15L127.51-11.15L127.51-11.15Q128.48-10.58 128.48-9.58L128.48-9.58L128.48-9.58Q128.48-9.07 127.93-8.74L127.93-8.74L127.93-8.74Q127.39-8.40 126.99-7.73L126.99-7.73L126.99-7.73Q126.59-7.06 126.55-6.59L126.55-6.59L126.46-6.13L126.46-6.13Q126.46-3.57 128.81-2.73L128.81-2.73L128.81-2.73Q129.65-2.44 130.16-2.44L130.16-2.44L130.16-2.44Q132.47-2.44 133.88-3.82L133.88-3.82L133.88-3.82Q135.28-5.21 135.28-7.35L135.28-7.35L135.28-7.35Q135.28-9.91 133.10-11.51L133.10-11.51L133.10-11.51Q131.46-12.68 129.55-13.48L129.55-13.48L129.55-13.48Q127.64-14.28 126.97-14.62L126.97-14.62L126.97-14.62Q126.29-14.95 125.54-15.41L125.54-15.41L125.54-15.41Q124.78-15.88 123.86-16.72L123.86-16.72L123.86-16.72Q121.84-18.48 121.84-21.48L121.84-21.48L121.84-21.48Q121.84-24.49 123.48-26.54L123.48-26.54L123.48-26.54Q126.42-30.28 132.30-30.28L132.30-30.28L132.30-30.28Q135.41-30.28 137.55-29.09L137.55-29.09L137.55-29.09Q139.69-27.89 139.69-25.79L139.69-25.79L139.69-25.79Q139.69-24.28 138.83-23.27L138.83-23.27L138.83-23.27Q137.97-22.26 136.63-22.26L136.63-22.26L136.63-22.26Q136.00-22.26 135.39-22.51L135.39-22.51L135.39-22.51Q134.78-22.76 134.78-23.27" fill="#00a1d5" stroke="none" stroke-width="none" transform="translate(-95.63497924804688,11.934849859873452)" style="fill: rgb(0, 161, 213);"></path></g><g class="path" style="transform: matrix(1, 0, 0, 1, 0, 0); transform-origin: 54.87px 2.86485px; animation: 1s linear -0.11s infinite normal forwards running bounce-baea6187-5fad-4574-ac11-d6f1aae83674;"><path d="M146.96-15.83L146.96-15.83L146.96-15.83Q145.87-15.79 145.38-15.77L145.38-15.77L145.38-15.77Q144.90-15.75 144.90-16.00L144.90-16.00L144.90-16.00Q144.90-16.25 145.15-16.51L145.15-16.51L145.15-16.51Q147.84-18.98 154.22-18.98L154.22-18.98L154.22-18.98Q156.41-18.98 157.67-18.61L157.67-18.61L158.09-18.48L158.09-18.48Q158.59-18.27 158.59-18.02L158.59-18.02L158.59-18.02Q158.59-17.81 158.30-17.68L158.30-17.68L158.30-17.68Q157.16-17.35 156.11-16.61L156.11-16.61L156.11-16.61Q155.06-15.88 155.06-15.58L155.06-15.58L155.32-15.29L155.32-15.29Q156.66-14.53 157.40-12.89L157.40-12.89L157.40-12.89Q158.13-11.26 158.21-10.00L158.21-10.00L158.30-8.69L158.30-8.69Q158.30-4.54 155.99-1.85L155.99-1.85L155.99-1.85Q153.68 0.84 149.69 0.84L149.69 0.84L149.69 0.84Q147.67 0.84 146.20 0.13L146.20 0.13L146.20 0.13Q144.73-0.59 144.04-1.49L144.04-1.49L144.04-1.49Q143.35-2.39 142.93-3.53L142.93-3.53L142.93-3.53Q142.42-5.08 142.42-6.74L142.42-6.74L142.42-6.74Q142.42-8.40 142.99-10.08L142.99-10.08L142.99-10.08Q143.56-11.76 144.29-12.56L144.29-12.56L144.29-12.56Q145.03-13.36 145.95-13.86L145.95-13.86L145.95-13.86Q147.13-14.49 147.84-14.49L147.84-14.49L147.84-14.49Q148.55-14.49 148.55-14.20L148.55-14.20L148.30-13.78L148.30-13.78Q147.38-12.68 146.98-10.92L146.98-10.92L146.98-10.92Q146.58-9.16 146.58-7.79L146.58-7.79L146.58-7.79Q146.58-6.43 146.92-5.08L146.92-5.08L146.92-5.08Q147.25-3.74 147.67-3.09L147.67-3.09L147.67-3.09Q148.09-2.44 148.64-2.10L148.64-2.10L148.64-2.10Q149.44-1.60 150.32-1.60L150.32-1.60L150.32-1.60Q151.20-1.60 152.04-2.29L152.04-2.29L152.04-2.29Q152.88-2.98 153.26-4.12L153.26-4.12L153.26-4.12Q154.01-6.22 154.01-8.44L154.01-8.44L154.01-8.44Q154.01-11.97 152.23-13.90L152.23-13.90L152.23-13.90Q150.44-15.83 146.96-15.83" fill="#00a1d5" stroke="none" stroke-width="none" transform="translate(-95.63497924804688,11.934849859873452)" style="fill: rgb(0, 161, 213);"></path></g><g class="path" style="transform: matrix(1, 0, 0, 1, 0, 0); transform-origin: 72.41px 2.75985px; animation: 1s linear -0.055s infinite normal forwards running bounce-baea6187-5fad-4574-ac11-d6f1aae83674;"><path d="M160.36 0.29L160.36 0.29L160.36 0.29Q161.11-4.24 161.11-10.58L161.11-10.58L161.11-10.58Q161.11-16.93 160.73-18.82L160.73-18.82L160.73-18.82Q160.73-19.36 161.99-19.36L161.99-19.36L161.99-19.36Q163.93-19.36 164.56-17.89L164.56-17.89L164.56-17.89Q164.60-17.77 164.77-17.77L164.77-17.77L164.77-17.77Q164.93-17.77 165.02-17.85L165.02-17.85L165.02-17.85Q166.32-19.19 169.05-19.19L169.05-19.19L169.05-19.19Q171.78-19.19 173.38-17.81L173.38-17.81L173.38-17.81Q174.97-16.42 174.97-13.78L174.97-13.78L174.97-13.78Q174.97-12.18 174.70-9.24L174.70-9.24L174.70-9.24Q174.43-6.30 174.43-4.87L174.43-4.87L174.43-4.87Q174.43-1.47 175.56 0.04L175.56 0.04L175.56 0.04Q175.73 0.25 175.73 0.46L175.73 0.46L175.73 0.46Q175.73 1.01 174.55 1.01L174.55 1.01L174.55 1.01Q169.34 1.01 169.34-3.61L169.34-3.61L169.34-3.61Q169.34-5.38 170.14-8.53L170.14-8.53L170.14-8.53Q170.94-11.68 170.94-13.31L170.94-13.31L170.94-13.31Q170.94-16.67 168.17-16.67L168.17-16.67L168.17-16.67Q166.82-16.67 166.13-15.88L166.13-15.88L166.13-15.88Q165.44-15.08 165.35-14.05L165.35-14.05L165.35-14.05Q165.27-13.02 165.27-10.16L165.27-10.16L165.27-10.16Q165.27-5.80 165.56-2.56L165.56-2.56L165.65-1.64L165.65-1.64Q165.65-0.46 164.12 0.19L164.12 0.19L164.12 0.19Q162.58 0.84 161.47 0.84L161.47 0.84L161.47 0.84Q160.36 0.84 160.36 0.29" fill="#00a1d5" stroke="none" stroke-width="none" transform="translate(-95.63497924804688,11.934849859873452)" style="fill: rgb(0, 161, 213);"></path></g><g class="path" style="transform: matrix(1, 0, 0, 1, 0, 0); transform-origin: 88.64px 8.78485px; animation: 1s linear 0s infinite normal forwards running bounce-baea6187-5fad-4574-ac11-d6f1aae83674;"><path d="M179.89-16.95L179.89-16.95L179.89-16.95Q180.81-17.89 182.32-18.54L182.32-18.54L182.32-18.54Q183.83-19.19 185.22-19.19L185.22-19.19L185.22-19.19Q186.61-19.19 188.03-18.56L188.03-18.56L188.03-18.56Q188.20-18.56 188.29-18.65L188.29-18.65L188.29-18.65Q189.38-19.74 191.48-19.74L191.48-19.74L191.48-19.74Q191.98-19.74 191.98-19.28L191.98-19.28L191.98-19.28Q191.98-19.24 191.90-18.90L191.90-18.90L191.90-18.90Q191.81-18.56 191.69-17.91L191.69-17.91L191.69-17.91Q191.56-17.26 191.48-16.34L191.48-16.34L191.48-16.34Q191.18-13.94 191.16-11.05L191.16-11.05L191.16-11.05Q191.14-8.15 191.14-5.25L191.14-5.25L191.27 3.57L191.27 3.57Q191.27 7.81 189.08 10.63L189.08 10.63L189.08 10.63Q188.20 11.76 186.42 12.60L186.42 12.60L186.42 12.60Q184.63 13.44 182.24 13.44L182.24 13.44L182.24 13.44Q181.69 13.10 181.69 12.77L181.69 12.77L181.69 12.77Q181.69 12.43 182.15 12.22L182.15 12.22L182.15 12.22Q184.80 11.00 185.93 6.45L185.93 6.45L185.93 6.45Q187.07 1.89 187.07-7.39L187.07-7.39L186.98-13.27L186.86-16.13L186.86-16.13Q186.86-16.51 185.68-16.67L185.68-16.67L185.68-16.67Q184.17-16.67 183.14-15.69L183.14-15.69L183.14-15.69Q182.11-14.70 181.73-13.10L181.73-13.10L181.73-13.10Q181.06-10.54 181.06-8.67L181.06-8.67L181.06-8.67Q181.06-6.80 181.67-5.38L181.67-5.38L181.67-5.38Q182.28-3.95 183.79-3.95L183.79-3.95L183.79-3.95Q184.21-3.95 184.57-4.12L184.57-4.12L184.57-4.12Q184.93-4.28 185.05-4.28L185.05-4.28L185.05-4.28Q185.47-4.28 185.47-3.44L185.47-3.44L185.47-3.44Q185.47-2.60 185.35-2.08L185.35-2.08L185.35-2.08Q185.22-1.55 184.84-0.92L184.84-0.92L184.84-0.92Q184.00 0.46 181.57 0.46L181.57 0.46L181.57 0.46Q179.13 0.46 178.08-1.30L178.08-1.30L178.08-1.30Q176.99-3.11 176.82-4.54L176.82-4.54L176.82-4.54Q176.57-6.68 176.57-7.35L176.57-7.35L176.57-7.35Q176.57-8.02 176.59-8.42L176.59-8.42L176.59-8.42Q176.61-8.82 176.80-10.02L176.80-10.02L176.80-10.02Q176.99-11.21 177.30-12.29L177.30-12.29L177.30-12.29Q177.62-13.36 178.29-14.68L178.29-14.68L178.29-14.68Q178.96-16.00 179.89-16.95" fill="#00a1d5" stroke="none" stroke-width="none" transform="translate(-95.63497924804688,11.934849859873452)" style="fill: rgb(0, 161, 213);"></path></g></g>
</g>
</g>
<style id="bounce-baea6187-5fad-4574-ac11-d6f1aae83674" data-anikit="">@keyframes bounce-baea6187-5fad-4574-ac11-d6f1aae83674
{
  0% {
    animation-timing-function: cubic-bezier(0.1361,0.2514,0.2175,0.8786);
    transform: translate(0,0px) scaleY(1);
  }
  37% {
    animation-timing-function: cubic-bezier(0.7674,0.1844,0.8382,0.7157);
    transform: translate(0,-6.993px) scaleY(1);
  }
  72% {
    animation-timing-function: cubic-bezier(0.3337,0.6674,0.6634,1);
    transform: translate(0,0px) scaleY(1);
  }
  87% {
    animation-timing-function: cubic-bezier(0.336,0.168,0.6659,0.4989);
    transform: translate(0,0.3600000000000003px) scaleY(0.99);
  }
  100% {
    transform: translate(0,0px) scaleY(1);
  }
}</style></svg>