<?xml version="1.0" encoding="utf-8"?>
<svg xmlns="http://www.w3.org/2000/svg" style="margin: auto; background: none; display: block; shape-rendering: auto;" width="281" height="71" preserveAspectRatio="xMidYMid">
<style type="text/css">
  text {
    text-anchor: middle; font-size: 42px; opacity: 0;
  }
</style>
<g style="transform-origin: 140.5px 35.5px; transform: scale(0.84);">
<g transform="translate(140.5,35.5)">
  <g transform="translate(0,0)"><g class="path" style="transform: matrix(1, 0, 0, 1, 0, 0); transform-origin: -148.675px -4.28799px; animation: 1s linear -0.625263s infinite normal forwards running bounce-baea6187-5fad-4574-ac11-d6f1aae83674;"><path d="M15.40-0.05L15.40-0.05L12.55-0.10L12.55-0.10Q11.95-0.10 11.35-0.10L11.35-0.10L2.25 0.35L2.25 0.35Q1.50 0.35 1.50-0.15L1.50-0.15L1.50-0.15Q1.50-0.30 1.65-0.85L1.65-0.85L1.65-0.85Q2.15-2 2.38-8.15L2.38-8.15L2.38-8.15Q2.60-14.30 2.60-19.38L2.60-19.38L2.60-19.38Q2.60-24.45 2.40-27.60L2.40-27.60L2.40-27.60Q2.10-32.35 1.40-33.30L1.40-33.30L1.40-33.30Q0.85-34 0.85-34.20L0.85-34.20L0.85-34.20Q0.85-35 3.55-35.60L3.55-35.60L3.55-35.60Q6.25-36.20 7.43-36.20L7.43-36.20L7.43-36.20Q8.60-36.20 8.90-36.08L8.90-36.08L8.90-36.08Q9.20-35.95 9.20-35.55L9.20-35.55L9.20-35.55Q9.20-35.15 9-33L9-33L9-33Q8.50-26.65 8.50-18.23L8.50-18.23L8.50-18.23Q8.50-9.80 8.90-4.75L8.90-4.75L8.90-4.75Q8.90-4.20 9.85-3.80L9.85-3.80L9.85-3.80Q10.80-3.40 12.20-3.40L12.20-3.40L12.20-3.40Q17.10-3.40 17.10-10.95L17.10-10.95L17.10-10.95Q17.10-13.05 16.88-13.55L16.88-13.55L16.88-13.55Q16.65-14.05 16.65-14.20L16.65-14.20L16.65-14.20Q16.65-14.70 17.35-14.70L17.35-14.70L17.35-14.70Q17.90-14.70 18.82-14.15L18.82-14.15L18.82-14.15Q19.75-13.60 20.35-12.78L20.35-12.78L20.35-12.78Q20.95-11.95 21.45-10.18L21.45-10.18L21.45-10.18Q21.95-8.40 21.95-6L21.95-6L21.95-6Q21.95-0.05 20.50-0.05L20.50-0.05L20.50-0.05Q17.95-0.05 15.40-0.05" fill="#00a1d5" stroke="none" stroke-width="none" transform="translate(-160.07501220703125,13.63701042175293)" style="fill: rgb(0, 161, 213);"></path></g><g class="path" style="transform: matrix(1, 0, 0, 1, 0, 0); transform-origin: -127.15px 2.83701px; animation: 1s linear -0.590526s infinite normal forwards running bounce-baea6187-5fad-4574-ac11-d6f1aae83674;"><path d="M28.70-18.85L28.70-18.85L28.70-18.85Q27.40-18.80 26.83-18.78L26.83-18.78L26.83-18.78Q26.25-18.75 26.25-19.05L26.25-19.05L26.25-19.05Q26.25-19.35 26.55-19.65L26.55-19.65L26.55-19.65Q29.75-22.60 37.35-22.60L37.35-22.60L37.35-22.60Q39.95-22.60 41.45-22.15L41.45-22.15L41.95-22L41.95-22Q42.55-21.75 42.55-21.45L42.55-21.45L42.55-21.45Q42.55-21.20 42.20-21.05L42.20-21.05L42.20-21.05Q40.85-20.65 39.60-19.78L39.60-19.78L39.60-19.78Q38.35-18.90 38.35-18.55L38.35-18.55L38.65-18.20L38.65-18.20Q40.25-17.30 41.13-15.35L41.13-15.35L41.13-15.35Q42-13.40 42.10-11.90L42.10-11.90L42.20-10.35L42.20-10.35Q42.20-5.40 39.45-2.20L39.45-2.20L39.45-2.20Q36.70 1 31.95 1L31.95 1L31.95 1Q29.55 1 27.80 0.15L27.80 0.15L27.80 0.15Q26.05-0.70 25.23-1.78L25.23-1.78L25.23-1.78Q24.40-2.85 23.90-4.20L23.90-4.20L23.90-4.20Q23.30-6.05 23.30-8.03L23.30-8.03L23.30-8.03Q23.30-10 23.98-12L23.98-12L23.98-12Q24.65-14 25.53-14.95L25.53-14.95L25.53-14.95Q26.40-15.90 27.50-16.50L27.50-16.50L27.50-16.50Q28.90-17.25 29.75-17.25L29.75-17.25L29.75-17.25Q30.60-17.25 30.60-16.90L30.60-16.90L30.30-16.40L30.30-16.40Q29.20-15.10 28.73-13L28.73-13L28.73-13Q28.25-10.90 28.25-9.28L28.25-9.28L28.25-9.28Q28.25-7.65 28.65-6.05L28.65-6.05L28.65-6.05Q29.05-4.45 29.55-3.68L29.55-3.68L29.55-3.68Q30.05-2.90 30.70-2.50L30.70-2.50L30.70-2.50Q31.65-1.90 32.70-1.90L32.70-1.90L32.70-1.90Q33.75-1.90 34.75-2.73L34.75-2.73L34.75-2.73Q35.75-3.55 36.20-4.90L36.20-4.90L36.20-4.90Q37.10-7.40 37.10-10.05L37.10-10.05L37.10-10.05Q37.10-14.25 34.98-16.55L34.98-16.55L34.98-16.55Q32.85-18.85 28.70-18.85" fill="#00a1d5" stroke="none" stroke-width="none" transform="translate(-160.07501220703125,13.63701042175293)" style="fill: rgb(0, 161, 213);"></path></g><g class="path" style="transform: matrix(1, 0, 0, 1, 0, 0); transform-origin: -106.625px 2.66201px; animation: 1s linear -0.555789s infinite normal forwards running bounce-baea6187-5fad-4574-ac11-d6f1aae83674;"><path d="M61.50-15L61.50-15L61.40-8.60L61.40-8.60Q61.40-1.95 62.85-0.60L62.85-0.60L62.85-0.60Q63.05-0.40 63.05-0.15L63.05-0.15L63.05-0.15Q63.05 0.60 59.83 0.60L59.83 0.60L59.83 0.60Q56.60 0.60 56.40-1.30L56.40-1.30L56.40-1.30Q56.35-1.75 56.35-3.15L56.35-3.15L56.55-11.15L56.55-11.15Q56.55-11.50 56.15-11.50L56.15-11.50L56.15-11.50Q53.75-11.50 51.65-10.15L51.65-10.15L51.65-10.15Q49.55-8.80 49.55-6.70L49.55-6.70L49.55-6.70Q49.55-5.60 50.15-4.85L50.15-4.85L50.15-4.85Q50.75-4.10 51.63-4.10L51.63-4.10L51.63-4.10Q52.50-4.10 53.07-4.45L53.07-4.45L53.07-4.45Q53.65-4.80 53.75-4.85L53.75-4.85L53.75-4.85Q54.60-4.75 54.60-3.08L54.60-3.08L54.60-3.08Q54.60-1.40 53.05-0.38L53.05-0.38L53.05-0.38Q51.50 0.65 49.80 0.65L49.80 0.65L49.80 0.65Q48.10 0.65 46.88 0.05L46.88 0.05L46.88 0.05Q45.65-0.55 45.10-1.30L45.10-1.30L45.10-1.30Q44.55-2.05 44.20-3L44.20-3L44.20-3Q43.85-4.15 43.85-5L43.85-5L43.85-5Q43.85-8.50 46.05-10.60L46.05-10.60L46.05-10.60Q48.25-12.70 51.70-13.60L51.70-13.60L51.70-13.60Q56.25-14.50 56.45-15.25L56.45-15.25L56.45-15.25Q56.60-15.80 56.60-17.10L56.60-17.10L56.60-17.10Q56.60-19.75 53.90-19.75L53.90-19.75L53.90-19.75Q52.75-19.75 51.85-19.03L51.85-19.03L51.85-19.03Q50.95-18.30 50.95-17.20L50.95-17.20L51.25-16L51.25-16Q51.15-15.15 49.45-15L49.45-15L48.90-14.95L48.90-14.95Q47.40-14.95 46.52-15.70L46.52-15.70L46.52-15.70Q45.65-16.45 45.65-17.70L45.65-17.70L45.65-17.70Q45.65-18.50 46.17-19.48L46.17-19.48L46.17-19.48Q46.70-20.45 47.50-21.05L47.50-21.05L47.50-21.05Q48.30-21.65 49.97-22.13L49.97-22.13L49.97-22.13Q51.65-22.60 53.20-22.60L53.20-22.60L53.20-22.60Q54.75-22.60 55.60-22.50L55.60-22.50L55.60-22.50Q56.45-22.40 57.92-22.03L57.92-22.03L57.92-22.03Q59.40-21.65 60.38-20.60L60.38-20.60L60.38-20.60Q61.35-19.55 61.42-18.38L61.42-18.38L61.42-18.38Q61.50-17.20 61.50-15" fill="#00a1d5" stroke="none" stroke-width="none" transform="translate(-160.07501220703125,13.63701042175293)" style="fill: rgb(0, 161, 213);"></path></g><g class="path" style="transform: matrix(1, 0, 0, 1, 0, 0); transform-origin: -86.475px -3.43799px; animation: 1s linear -0.521053s infinite normal forwards running bounce-baea6187-5fad-4574-ac11-d6f1aae83674;"><path d="M74.55-22.45L74.55-22.45L74.55-22.45Q75.45-22.45 76.17-22.23L76.17-22.23L76.17-22.23Q76.90-22 76.95-22L76.95-22L77.25-22.25L77.05-27.70L77.05-27.70Q76.95-29.10 76.45-30.10L76.45-30.10L76.45-30.10Q75.95-31.10 75.55-31.40L75.55-31.40L75.10-31.65L75.10-31.65Q74.80-31.85 74.80-32.10L74.80-32.10L74.80-32.10Q74.80-32.85 77.13-33.85L77.13-33.85L77.13-33.85Q79.45-34.85 80.75-34.85L80.75-34.85L80.75-34.85Q82.05-34.85 82.15-34.30L82.15-34.30L82.15-34.30Q82.40-32.60 82.40-27.83L82.40-27.83L82.40-27.83Q82.40-23.05 82.17-18.45L82.17-18.45L82.17-18.45Q81.95-13.85 81.95-8.03L81.95-8.03L81.95-8.03Q81.95-2.20 82.70-0.70L82.70-0.70L82.70-0.70Q82.90-0.35 82.90-0.05L82.90-0.05L82.90-0.05Q82.90 0.70 80.75 0.70L80.75 0.70L80.75 0.70Q76.65 0.70 76.65-1.25L76.65-1.25L76.65-1.25Q76.55-2.05 76.55-3.73L76.55-3.73L76.55-3.73Q76.55-5.40 76.88-9.98L76.88-9.98L76.88-9.98Q77.20-14.55 77.20-17.03L77.20-17.03L77.20-17.03Q77.20-19.50 74.72-19.50L74.72-19.50L74.72-19.50Q72.25-19.50 70.95-16.60L70.95-16.60L70.95-16.60Q69.65-13.70 69.65-10.80L69.65-10.80L69.65-10.80Q69.65-4.65 72.75-4.65L72.75-4.65L72.75-4.65Q73.20-4.65 73.63-4.83L73.63-4.83L73.63-4.83Q74.05-5 74.15-5L74.15-5L74.15-5Q74.55-5 74.78-4.50L74.78-4.50L74.78-4.50Q75-4 75-3.50L75-3.50L75-3.50Q75-1.80 73.65-0.63L73.65-0.63L73.65-0.63Q72.30 0.55 70.35 0.55L70.35 0.55L70.35 0.55Q67.35 0.55 65.83-2.08L65.83-2.08L65.83-2.08Q64.30-4.70 64.30-8.60L64.30-8.60L64.30-8.60Q64.30-13.55 66.65-17.80L66.65-17.80L66.65-17.80Q67.85-19.90 69.90-21.18L69.90-21.18L69.90-21.18Q71.95-22.45 74.55-22.45" fill="#00a1d5" stroke="none" stroke-width="none" transform="translate(-160.07501220703125,13.63701042175293)" style="fill: rgb(0, 161, 213);"></path></g><g class="path" style="transform: matrix(1, 0, 0, 1, 0, 0); transform-origin: -70.675px -15.188px; animation: 1s linear -0.486316s infinite normal forwards running bounce-baea6187-5fad-4574-ac11-d6f1aae83674;"><path d="M90.30-26.75L90.30-26.75L89.10-26.80L89.10-26.80Q87.75-26.80 87.35-26.15L87.35-26.15L87.35-26.15Q87.25-26 87.10-26L87.10-26L87.10-26Q86.45-26 86.45-28.23L86.45-28.23L86.45-28.23Q86.45-30.45 87.13-31.05L87.13-31.05L87.13-31.05Q87.80-31.65 89.48-31.65L89.48-31.65L89.48-31.65Q91.15-31.65 91.75-31.08L91.75-31.08L91.75-31.08Q92.35-30.50 92.35-29.15L92.35-29.15L92.35-29.15Q92.35-27.80 91.90-27.28L91.90-27.28L91.90-27.28Q91.45-26.75 90.30-26.75" fill="#00a1d5" stroke="none" stroke-width="none" transform="translate(-160.07501220703125,13.63701042175293)" style="fill: rgb(0, 161, 213);"></path></g><g class="path" style="transform: matrix(1, 0, 0, 1, 0, 0); transform-origin: -71.325px 2.91201px; animation: 1s linear -0.451579s infinite normal forwards running bounce-baea6187-5fad-4574-ac11-d6f1aae83674;"><path d="M86.30-1.50L86.30-1.50L86.85-13.15L86.85-13.15Q86.85-17.30 85.90-18.80L85.90-18.80L85.90-18.80Q85.60-19.30 85.20-19.55L85.20-19.55L85.20-19.55Q84.90-19.65 84.90-19.95L84.90-19.95L84.90-19.95Q84.90-20.85 87.45-21.70L87.45-21.70L87.45-21.70Q90-22.55 91.18-22.55L91.18-22.55L91.18-22.55Q92.35-22.55 92.40-21.95L92.40-21.95L92.40-21.95Q92.40-20.95 92.13-16.28L92.13-16.28L92.13-16.28Q91.85-11.60 91.85-6.45L91.85-6.45L91.85-6.45Q91.85-1.30 92.45-0.05L92.45-0.05L92.45-0.05Q92.60 0.20 92.60 0.45L92.60 0.45L92.60 0.45Q92.60 1.10 90.70 1.10L90.70 1.10L90.70 1.10Q88.80 1.10 86.80 0.10L86.80 0.10L86.80 0.10Q86.30-0.15 86.30-1.50" fill="#00a1d5" stroke="none" stroke-width="none" transform="translate(-160.07501220703125,13.63701042175293)" style="fill: rgb(0, 161, 213);"></path></g><g class="path" style="transform: matrix(1, 0, 0, 1, 0, 0); transform-origin: -55.275px 2.71201px; animation: 1s linear -0.416842s infinite normal forwards running bounce-baea6187-5fad-4574-ac11-d6f1aae83674;"><path d="M95.65 0.35L95.65 0.35L95.65 0.35Q96.55-5.05 96.55-12.60L96.55-12.60L96.55-12.60Q96.55-20.15 96.10-22.40L96.10-22.40L96.10-22.40Q96.10-23.05 97.60-23.05L97.60-23.05L97.60-23.05Q99.90-23.05 100.65-21.30L100.65-21.30L100.65-21.30Q100.70-21.15 100.90-21.15L100.90-21.15L100.90-21.15Q101.10-21.15 101.20-21.25L101.20-21.25L101.20-21.25Q102.75-22.85 106-22.85L106-22.85L106-22.85Q109.25-22.85 111.15-21.20L111.15-21.20L111.15-21.20Q113.05-19.55 113.05-16.40L113.05-16.40L113.05-16.40Q113.05-14.50 112.73-11L112.73-11L112.73-11Q112.40-7.50 112.40-5.80L112.40-5.80L112.40-5.80Q112.40-1.75 113.75 0.05L113.75 0.05L113.75 0.05Q113.95 0.30 113.95 0.55L113.95 0.55L113.95 0.55Q113.95 1.20 112.55 1.20L112.55 1.20L112.55 1.20Q106.35 1.20 106.35-4.30L106.35-4.30L106.35-4.30Q106.35-6.40 107.30-10.15L107.30-10.15L107.30-10.15Q108.25-13.90 108.25-15.85L108.25-15.85L108.25-15.85Q108.25-19.85 104.95-19.85L104.95-19.85L104.95-19.85Q103.35-19.85 102.53-18.90L102.53-18.90L102.53-18.90Q101.70-17.95 101.60-16.73L101.60-16.73L101.60-16.73Q101.50-15.50 101.50-12.10L101.50-12.10L101.50-12.10Q101.50-6.90 101.85-3.05L101.85-3.05L101.95-1.95L101.95-1.95Q101.95-0.55 100.13 0.23L100.13 0.23L100.13 0.23Q98.30 1 96.98 1L96.98 1L96.98 1Q95.65 1 95.65 0.35" fill="#00a1d5" stroke="none" stroke-width="none" transform="translate(-160.07501220703125,13.63701042175293)" style="fill: rgb(0, 161, 213);"></path></g><g class="path" style="transform: matrix(1, 0, 0, 1, 0, 0); transform-origin: -35.95px 9.88701px; animation: 1s linear -0.382105s infinite normal forwards running bounce-baea6187-5fad-4574-ac11-d6f1aae83674;"><path d="M118.90-20.18L118.90-20.18L118.90-20.18Q120.00-21.30 121.80-22.08L121.80-22.08L121.80-22.08Q123.60-22.85 125.25-22.85L125.25-22.85L125.25-22.85Q126.90-22.85 128.60-22.10L128.60-22.10L128.60-22.10Q128.80-22.10 128.90-22.20L128.90-22.20L128.90-22.20Q130.20-23.50 132.70-23.50L132.70-23.50L132.70-23.50Q133.30-23.50 133.30-22.95L133.30-22.95L133.30-22.95Q133.30-22.90 133.20-22.50L133.20-22.50L133.20-22.50Q133.10-22.10 132.95-21.33L132.95-21.33L132.95-21.33Q132.80-20.55 132.70-19.45L132.70-19.45L132.70-19.45Q132.35-16.60 132.33-13.15L132.33-13.15L132.33-13.15Q132.30-9.70 132.30-6.25L132.30-6.25L132.45 4.25L132.45 4.25Q132.45 9.30 129.85 12.65L129.85 12.65L129.85 12.65Q128.80 14 126.68 15L126.68 15L126.68 15Q124.55 16 121.70 16L121.70 16L121.70 16Q121.05 15.60 121.05 15.20L121.05 15.20L121.05 15.20Q121.05 14.80 121.60 14.55L121.60 14.55L121.60 14.55Q124.75 13.10 126.10 7.68L126.10 7.68L126.10 7.68Q127.45 2.25 127.45-8.80L127.45-8.80L127.35-15.80L127.20-19.20L127.20-19.20Q127.20-19.65 125.80-19.85L125.80-19.85L125.80-19.85Q124.00-19.85 122.78-18.68L122.78-18.68L122.78-18.68Q121.55-17.50 121.10-15.60L121.10-15.60L121.10-15.60Q120.30-12.55 120.30-10.33L120.30-10.33L120.30-10.33Q120.30-8.10 121.03-6.40L121.03-6.40L121.03-6.40Q121.75-4.70 123.55-4.70L123.55-4.70L123.55-4.70Q124.05-4.70 124.48-4.90L124.48-4.90L124.48-4.90Q124.90-5.10 125.05-5.10L125.05-5.10L125.05-5.10Q125.55-5.10 125.55-4.10L125.55-4.10L125.55-4.10Q125.55-3.10 125.40-2.48L125.40-2.48L125.40-2.48Q125.25-1.85 124.80-1.10L124.80-1.10L124.80-1.10Q123.80 0.55 120.90 0.55L120.90 0.55L120.90 0.55Q118.00 0.55 116.75-1.55L116.75-1.55L116.75-1.55Q115.45-3.70 115.25-5.40L115.25-5.40L115.25-5.40Q114.95-7.95 114.95-8.75L114.95-8.75L114.95-8.75Q114.95-9.55 114.98-10.03L114.98-10.03L114.98-10.03Q115.00-10.50 115.23-11.93L115.23-11.93L115.23-11.93Q115.45-13.35 115.83-14.63L115.83-14.63L115.83-14.63Q116.20-15.90 117.00-17.48L117.00-17.48L117.00-17.48Q117.80-19.05 118.90-20.18" fill="#00a1d5" stroke="none" stroke-width="none" transform="translate(-160.07501220703125,13.63701042175293)" style="fill: rgb(0, 161, 213);"></path></g><g class="path" style="transform: matrix(1, 0, 0, 1, 0, 0); transform-origin: -4.17502px -3.71273px; animation: 1s linear -0.347368s infinite normal forwards running bounce-baea6187-5fad-4574-ac11-d6f1aae83674;"><path d="M166.15-11.45L166.15-11.45L166.15-11.45Q167.10-11.45 167.10-9.05L167.10-9.05L167.10-9.05Q167.10-6.65 166.20-4.75L166.20-4.75L166.20-4.75Q165.30-2.85 164.03-1.80L164.03-1.80L164.03-1.80Q162.75-0.75 161.15-0.10L161.15-0.10L161.15-0.10Q155.80 2.25 151.15-0.20L151.15-0.20L151.15-0.20Q148.80-1.45 147.55-3.18L147.55-3.18L147.55-3.18Q146.30-4.90 145.55-7.30L145.55-7.30L145.55-7.30Q144.40-10.90 144.40-14.85L144.40-14.85L144.40-14.85Q144.40-18.80 145.15-22.25L145.15-22.25L145.15-22.25Q145.90-25.70 147.45-28.83L147.45-28.83L147.45-28.83Q149-31.95 151.85-33.85L151.85-33.85L151.85-33.85Q154.70-35.75 158.45-35.75L158.45-35.75L158.45-35.75Q160.05-35.75 161.78-35.23L161.78-35.23L161.78-35.23Q163.50-34.70 164.60-33.93L164.60-33.93L164.60-33.93Q165.70-33.15 166.55-31.55L166.55-31.55L166.55-31.55Q167.40-29.95 167.40-27.80L167.40-27.80L167.40-27.80Q167.40-25.50 166.30-23.65L166.30-23.65L166.30-23.65Q165.80-22.80 164.70-22.13L164.70-22.13L164.70-22.13Q163.60-21.45 162.10-21.45L162.10-21.45L162.10-21.45Q159.80-21.45 158.85-23.50L158.85-23.50L158.85-23.50Q158.45-24.30 158.45-25.25L158.45-25.25L158.45-25.25Q158.45-26.20 159.10-26.35L159.10-26.35L159.10-26.35Q159.80-26.55 160.40-27.45L160.40-27.45L160.40-27.45Q161-28.35 161-29.55L161-29.55L161-29.55Q161-30.50 160.50-31.20L160.50-31.20L160.50-31.20Q159.55-32.45 157.75-32.45L157.75-32.45L157.75-32.45Q155.95-32.45 154.48-30.80L154.48-30.80L154.48-30.80Q153-29.15 152.25-26.65L152.25-26.65L152.25-26.65Q150.75-21.65 150.75-17.45L150.75-17.45L150.75-17.45Q150.75-13.25 151.90-10.70L151.90-10.70L151.90-10.70Q153.30-7.55 155.45-6.50L155.45-6.50L155.45-6.50Q156.80-5.85 158.55-5.85L158.55-5.85L158.55-5.85Q161.50-5.85 163.85-8.50L163.85-8.50L163.85-8.50Q164.85-9.55 165.50-11L165.50-11L165.50-11Q165.75-11.45 166.15-11.45" fill="#00a1d5" stroke="none" stroke-width="none" transform="translate(-160.07501220703125,13.63701042175293)" style="fill: rgb(0, 161, 213);"></path></g><g class="path" style="transform: matrix(1, 0, 0, 1, 0, 0); transform-origin: 18.425px 2.66201px; animation: 1s linear -0.312632s infinite normal forwards running bounce-baea6187-5fad-4574-ac11-d6f1aae83674;"><path d="M186.55-15L186.55-15L186.45-8.60L186.45-8.60Q186.45-1.95 187.90-0.60L187.90-0.60L187.90-0.60Q188.10-0.40 188.10-0.15L188.10-0.15L188.10-0.15Q188.10 0.60 184.88 0.60L184.88 0.60L184.88 0.60Q181.65 0.60 181.45-1.30L181.45-1.30L181.45-1.30Q181.40-1.75 181.40-3.15L181.40-3.15L181.60-11.15L181.60-11.15Q181.60-11.50 181.20-11.50L181.20-11.50L181.20-11.50Q178.80-11.50 176.70-10.15L176.70-10.15L176.70-10.15Q174.60-8.80 174.60-6.70L174.60-6.70L174.60-6.70Q174.60-5.60 175.20-4.85L175.20-4.85L175.20-4.85Q175.80-4.10 176.68-4.10L176.68-4.10L176.68-4.10Q177.55-4.10 178.13-4.45L178.13-4.45L178.13-4.45Q178.70-4.80 178.80-4.85L178.80-4.85L178.80-4.85Q179.65-4.75 179.65-3.08L179.65-3.08L179.65-3.08Q179.65-1.40 178.10-0.38L178.10-0.38L178.10-0.38Q176.55 0.65 174.85 0.65L174.85 0.65L174.85 0.65Q173.15 0.65 171.93 0.05L171.93 0.05L171.93 0.05Q170.70-0.55 170.15-1.30L170.15-1.30L170.15-1.30Q169.60-2.05 169.25-3L169.25-3L169.25-3Q168.90-4.15 168.90-5L168.90-5L168.90-5Q168.90-8.50 171.10-10.60L171.10-10.60L171.10-10.60Q173.30-12.70 176.75-13.60L176.75-13.60L176.75-13.60Q181.30-14.50 181.50-15.25L181.50-15.25L181.50-15.25Q181.65-15.80 181.65-17.10L181.65-17.10L181.65-17.10Q181.65-19.75 178.95-19.75L178.95-19.75L178.95-19.75Q177.80-19.75 176.90-19.03L176.90-19.03L176.90-19.03Q176.00-18.30 176.00-17.20L176.00-17.20L176.30-16L176.30-16Q176.20-15.15 174.50-15L174.50-15L173.95-14.95L173.95-14.95Q172.45-14.95 171.58-15.70L171.58-15.70L171.58-15.70Q170.70-16.45 170.70-17.70L170.70-17.70L170.70-17.70Q170.70-18.50 171.23-19.48L171.23-19.48L171.23-19.48Q171.75-20.45 172.55-21.05L172.55-21.05L172.55-21.05Q173.35-21.65 175.03-22.13L175.03-22.13L175.03-22.13Q176.70-22.60 178.25-22.60L178.25-22.60L178.25-22.60Q179.80-22.60 180.65-22.50L180.65-22.50L180.65-22.50Q181.50-22.40 182.98-22.03L182.98-22.03L182.98-22.03Q184.45-21.65 185.43-20.60L185.43-20.60L185.43-20.60Q186.40-19.55 186.48-18.38L186.48-18.38L186.48-18.38Q186.55-17.20 186.55-15" fill="#00a1d5" stroke="none" stroke-width="none" transform="translate(-160.07501220703125,13.63701042175293)" style="fill: rgb(0, 161, 213);"></path></g><g class="path" style="transform: matrix(1, 0, 0, 1, 0, 0); transform-origin: 34.375px -0.337989px; animation: 1s linear -0.277895s infinite normal forwards running bounce-baea6187-5fad-4574-ac11-d6f1aae83674;"><path d="M188.85-19.50L188.85-19.50L189.00-21.50L189.00-21.50Q189.05-21.95 189.70-21.95L189.70-21.95L191.45-21.95L191.25-25.95L191.25-26.15L191.25-26.15Q191.25-27.30 193.00-28.35L193.00-28.35L193.00-28.35Q194.75-29.40 196.20-29.40L196.20-29.40L196.20-29.40Q196.65-29.40 196.65-29L196.65-29L196.65-28.95L196.65-28.95Q196.45-27.60 196.25-22L196.25-22L196.25-22Q198.45-22 199.05-22.10L199.05-22.10L199.05-22.10Q199.65-22.20 199.70-22.20L199.70-22.20L199.70-22.20Q200.05-22.20 200.05-21.60L200.05-21.60L200.05-21.60Q200.05-21 199.50-20.08L199.50-20.08L199.50-20.08Q198.95-19.15 198.30-19.10L198.30-19.10L196.20-19.10L196.20-19.10Q196.15-17.40 196.15-13.38L196.15-13.38L196.15-13.38Q196.15-9.35 196.23-6.75L196.23-6.75L196.23-6.75Q196.30-4.15 196.40-2.83L196.40-2.83L196.40-2.83Q196.50-1.50 196.63-0.70L196.63-0.70L196.63-0.70Q196.75 0.10 196.83 0.45L196.83 0.45L196.83 0.45Q196.90 0.80 196.90 0.90L196.90 0.90L196.90 0.90Q196.90 1.40 196.25 1.45L196.25 1.45L196.25 1.45Q194.30 1.45 192.38 0.90L192.38 0.90L192.38 0.90Q190.45 0.35 190.45-1L190.45-1L190.45-1Q191.50-9.40 191.50-19.05L191.50-19.05L191.50-19.05Q190.15-19.05 189.45-18.95L189.45-18.95L189.40-18.95L189.40-18.95Q188.95-18.95 188.85-19.50" fill="#00a1d5" stroke="none" stroke-width="none" transform="translate(-160.07501220703125,13.63701042175293)" style="fill: rgb(0, 161, 213);"></path></g><g class="path" style="transform: matrix(1, 0, 0, 1, 0, 0); transform-origin: 48.05px 2.76201px; animation: 1s linear -0.243158s infinite normal forwards running bounce-baea6187-5fad-4574-ac11-d6f1aae83674;"><path d="M205.05-12.70L205.05-12.70L205.10-11.45L205.10-11.45Q205.10-11.15 205.50-11.15L205.50-11.15L205.50-11.15Q207.10-11.30 208.30-11.98L208.30-11.98L208.30-11.98Q209.50-12.65 210.10-13.50L210.10-13.50L210.10-13.50Q211.30-15.35 211.40-16.70L211.40-16.70L211.45-17.30L211.45-17.30Q211.45-20 209.30-20L209.30-20L209.30-20Q207.70-20 206.70-18.60L206.70-18.60L206.70-18.60Q205.05-16.40 205.05-12.70zM215.95-6.05L215.95-6.05L215.95-6.05Q215.95-4.15 215.18-2.73L215.18-2.73L215.18-2.73Q214.40-1.30 213.43-0.63L213.43-0.63L213.43-0.63Q212.45 0.05 211.15 0.45L211.15 0.45L211.15 0.45Q209.50 0.95 208 0.95L208 0.95L208 0.95Q203.80 0.95 201.80-2.20L201.80-2.20L201.80-2.20Q199.80-5.35 199.80-10.23L199.80-10.23L199.80-10.23Q199.80-15.10 202.28-18.90L202.28-18.90L202.28-18.90Q204.75-22.70 209.70-22.70L209.70-22.70L209.70-22.70Q214.20-22.70 215.80-19.55L215.80-19.55L215.80-19.55Q216.45-18.35 216.45-17.28L216.45-17.28L216.45-17.28Q216.45-16.20 216.35-15.58L216.35-15.58L216.35-15.58Q216.25-14.95 215.65-13.70L215.65-13.70L215.65-13.70Q215.05-12.45 214.05-11.45L214.05-11.45L214.05-11.45Q213.05-10.45 210.90-9.55L210.90-9.55L210.90-9.55Q208.75-8.65 205.85-8.35L205.85-8.35L205.85-8.35Q205.45-8.35 205.45-8L205.45-8L205.45-8Q205.45-7.55 205.78-6.68L205.78-6.68L205.78-6.68Q206.10-5.80 206.50-5.20L206.50-5.20L206.50-5.20Q207.60-3.80 209.75-3.80L209.75-3.80L209.75-3.80Q211.90-3.80 213.40-5.20L213.40-5.20L213.40-5.20Q214.20-5.95 214.70-7.05L214.70-7.05L214.70-7.05Q214.90-7.45 215.23-7.45L215.23-7.45L215.23-7.45Q215.55-7.45 215.75-6.90L215.75-6.90L215.75-6.90Q215.95-6.35 215.95-6.05" fill="#00a1d5" stroke="none" stroke-width="none" transform="translate(-160.07501220703125,13.63701042175293)" style="fill: rgb(0, 161, 213);"></path></g><g class="path" style="transform: matrix(1, 0, 0, 1, 0, 0); transform-origin: 67.15px 9.88701px; animation: 1s linear -0.208421s infinite normal forwards running bounce-baea6187-5fad-4574-ac11-d6f1aae83674;"><path d="M222.00-20.18L222.00-20.18L222.00-20.18Q223.10-21.30 224.90-22.08L224.90-22.08L224.90-22.08Q226.70-22.85 228.35-22.85L228.35-22.85L228.35-22.85Q230.00-22.85 231.70-22.10L231.70-22.10L231.70-22.10Q231.90-22.10 232.00-22.20L232.00-22.20L232.00-22.20Q233.30-23.50 235.80-23.50L235.80-23.50L235.80-23.50Q236.40-23.50 236.40-22.95L236.40-22.95L236.40-22.95Q236.40-22.90 236.30-22.50L236.30-22.50L236.30-22.50Q236.20-22.10 236.05-21.33L236.05-21.33L236.05-21.33Q235.90-20.55 235.80-19.45L235.80-19.45L235.80-19.45Q235.45-16.60 235.43-13.15L235.43-13.15L235.43-13.15Q235.40-9.70 235.40-6.25L235.40-6.25L235.55 4.25L235.55 4.25Q235.55 9.30 232.95 12.65L232.95 12.65L232.95 12.65Q231.90 14 229.78 15L229.78 15L229.78 15Q227.65 16 224.80 16L224.80 16L224.80 16Q224.15 15.60 224.15 15.20L224.15 15.20L224.15 15.20Q224.15 14.80 224.70 14.55L224.70 14.55L224.70 14.55Q227.85 13.10 229.20 7.68L229.20 7.68L229.20 7.68Q230.55 2.25 230.55-8.80L230.55-8.80L230.45-15.80L230.30-19.20L230.30-19.20Q230.30-19.65 228.90-19.85L228.90-19.85L228.90-19.85Q227.10-19.85 225.88-18.68L225.88-18.68L225.88-18.68Q224.65-17.50 224.20-15.60L224.20-15.60L224.20-15.60Q223.40-12.55 223.40-10.33L223.40-10.33L223.40-10.33Q223.40-8.10 224.13-6.40L224.13-6.40L224.13-6.40Q224.85-4.70 226.65-4.70L226.65-4.70L226.65-4.70Q227.15-4.70 227.58-4.90L227.58-4.90L227.58-4.90Q228.00-5.10 228.15-5.10L228.15-5.10L228.15-5.10Q228.65-5.10 228.65-4.10L228.65-4.10L228.65-4.10Q228.65-3.10 228.50-2.48L228.50-2.48L228.50-2.48Q228.35-1.85 227.90-1.10L227.90-1.10L227.90-1.10Q226.90 0.55 224.00 0.55L224.00 0.55L224.00 0.55Q221.10 0.55 219.85-1.55L219.85-1.55L219.85-1.55Q218.55-3.70 218.35-5.40L218.35-5.40L218.35-5.40Q218.05-7.95 218.05-8.75L218.05-8.75L218.05-8.75Q218.05-9.55 218.08-10.03L218.08-10.03L218.08-10.03Q218.10-10.50 218.33-11.93L218.33-11.93L218.33-11.93Q218.55-13.35 218.93-14.63L218.93-14.63L218.93-14.63Q219.30-15.90 220.10-17.48L220.10-17.48L220.10-17.48Q220.90-19.05 222.00-20.18" fill="#00a1d5" stroke="none" stroke-width="none" transform="translate(-160.07501220703125,13.63701042175293)" style="fill: rgb(0, 161, 213);"></path></g><g class="path" style="transform: matrix(1, 0, 0, 1, 0, 0); transform-origin: 87.7px 2.83701px; animation: 1s linear -0.173684s infinite normal forwards running bounce-baea6187-5fad-4574-ac11-d6f1aae83674;"><path d="M243.55-18.85L243.55-18.85L243.55-18.85Q242.25-18.80 241.68-18.78L241.68-18.78L241.68-18.78Q241.10-18.75 241.10-19.05L241.10-19.05L241.10-19.05Q241.10-19.35 241.40-19.65L241.40-19.65L241.40-19.65Q244.60-22.60 252.20-22.60L252.20-22.60L252.20-22.60Q254.80-22.60 256.30-22.15L256.30-22.15L256.80-22L256.80-22Q257.40-21.75 257.40-21.45L257.40-21.45L257.40-21.45Q257.40-21.20 257.05-21.05L257.05-21.05L257.05-21.05Q255.70-20.65 254.45-19.78L254.45-19.78L254.45-19.78Q253.20-18.90 253.20-18.55L253.20-18.55L253.50-18.20L253.50-18.20Q255.10-17.30 255.98-15.35L255.98-15.35L255.98-15.35Q256.85-13.40 256.95-11.90L256.95-11.90L257.05-10.35L257.05-10.35Q257.05-5.40 254.30-2.20L254.30-2.20L254.30-2.20Q251.55 1 246.80 1L246.80 1L246.80 1Q244.40 1 242.65 0.15L242.65 0.15L242.65 0.15Q240.90-0.70 240.08-1.78L240.08-1.78L240.08-1.78Q239.25-2.85 238.75-4.20L238.75-4.20L238.75-4.20Q238.15-6.05 238.15-8.03L238.15-8.03L238.15-8.03Q238.15-10 238.83-12L238.83-12L238.83-12Q239.50-14 240.38-14.95L240.38-14.95L240.38-14.95Q241.25-15.90 242.35-16.50L242.35-16.50L242.35-16.50Q243.75-17.25 244.60-17.25L244.60-17.25L244.60-17.25Q245.45-17.25 245.45-16.90L245.45-16.90L245.15-16.40L245.15-16.40Q244.05-15.10 243.58-13L243.58-13L243.58-13Q243.10-10.90 243.10-9.28L243.10-9.28L243.10-9.28Q243.10-7.65 243.50-6.05L243.50-6.05L243.50-6.05Q243.90-4.45 244.40-3.68L244.40-3.68L244.40-3.68Q244.90-2.90 245.55-2.50L245.55-2.50L245.55-2.50Q246.50-1.90 247.55-1.90L247.55-1.90L247.55-1.90Q248.60-1.90 249.60-2.73L249.60-2.73L249.60-2.73Q250.60-3.55 251.05-4.90L251.05-4.90L251.05-4.90Q251.95-7.40 251.95-10.05L251.95-10.05L251.95-10.05Q251.95-14.25 249.83-16.55L249.83-16.55L249.83-16.55Q247.70-18.85 243.55-18.85" fill="#00a1d5" stroke="none" stroke-width="none" transform="translate(-160.07501220703125,13.63701042175293)" style="fill: rgb(0, 161, 213);"></path></g><g class="path" style="transform: matrix(1, 0, 0, 1, 0, 0); transform-origin: 106.825px 2.66201px; animation: 1s linear -0.138947s infinite normal forwards running bounce-baea6187-5fad-4574-ac11-d6f1aae83674;"><path d="M274.65-17.20L274.40-13.40L274.60-11.65L274.60-11.65Q274.60-10.70 272.80-10.70L272.80-10.70L272.80-10.70Q269.15-10.70 269.15-13.45L269.15-13.45L269.15-13.45Q269.15-14.10 269.50-15.25L269.50-15.25L269.50-15.25Q269.85-16.40 269.85-17.25L269.85-17.25L269.85-17.25Q269.85-18.10 269.35-18.73L269.35-18.73L269.35-18.73Q268.85-19.35 267.90-19.35L267.90-19.35L267.90-19.35Q266.95-19.35 266.28-18.68L266.28-18.68L266.28-18.68Q265.60-18 265.45-17.30L265.45-17.30L265.25-16.60L265.25-16.60Q264.95-15.05 264.95-11.43L264.95-11.43L264.95-11.43Q264.95-7.80 265.05-5.73L265.05-5.73L265.05-5.73Q265.15-3.65 265.25-2.88L265.25-2.88L265.25-2.88Q265.35-2.10 265.35-1.95L265.35-1.95L265.35-1.95Q265.35-0.70 263.80 0.08L263.80 0.08L263.80 0.08Q262.25 0.85 260.70 0.85L260.70 0.85L260.70 0.85Q259.15 0.85 259.15 0.20L259.15 0.20L259.40-1.35L259.40-1.35Q260.10-5.70 260.10-12.70L260.10-12.70L260.10-12.70Q260.10-19.70 259.60-22.20L259.60-22.20L259.60-22.20Q259.60-22.80 260.65-22.80L260.65-22.80L260.65-22.80Q263.35-22.80 264.25-20.95L264.25-20.95L264.25-20.95Q264.30-20.75 264.43-20.75L264.43-20.75L264.43-20.75Q264.55-20.75 265.10-21.20L265.10-21.20L265.10-21.20Q266.75-22.55 269.00-22.55L269.00-22.55L269.00-22.55Q270.40-22.55 271.80-22L271.80-22L271.80-22Q274.65-20.85 274.65-17.20L274.65-17.20" fill="#00a1d5" stroke="none" stroke-width="none" transform="translate(-160.07501220703125,13.63701042175293)" style="fill: rgb(0, 161, 213);"></path></g><g class="path" style="transform: matrix(1, 0, 0, 1, 0, 0); transform-origin: 121.075px -15.188px; animation: 1s linear -0.104211s infinite normal forwards running bounce-baea6187-5fad-4574-ac11-d6f1aae83674;"><path d="M282.05-26.75L282.05-26.75L280.85-26.80L280.85-26.80Q279.50-26.80 279.10-26.15L279.10-26.15L279.10-26.15Q279.00-26 278.85-26L278.85-26L278.85-26Q278.20-26 278.20-28.23L278.20-28.23L278.20-28.23Q278.20-30.45 278.88-31.05L278.88-31.05L278.88-31.05Q279.55-31.65 281.23-31.65L281.23-31.65L281.23-31.65Q282.90-31.65 283.50-31.08L283.50-31.08L283.50-31.08Q284.10-30.50 284.10-29.15L284.10-29.15L284.10-29.15Q284.10-27.80 283.65-27.28L283.65-27.28L283.65-27.28Q283.20-26.75 282.05-26.75" fill="#00a1d5" stroke="none" stroke-width="none" transform="translate(-160.07501220703125,13.63701042175293)" style="fill: rgb(0, 161, 213);"></path></g><g class="path" style="transform: matrix(1, 0, 0, 1, 0, 0); transform-origin: 120.425px 2.91201px; animation: 1s linear -0.0694737s infinite normal forwards running bounce-baea6187-5fad-4574-ac11-d6f1aae83674;"><path d="M278.05-1.50L278.05-1.50L278.60-13.15L278.60-13.15Q278.60-17.30 277.65-18.80L277.65-18.80L277.65-18.80Q277.35-19.30 276.95-19.55L276.95-19.55L276.95-19.55Q276.65-19.65 276.65-19.95L276.65-19.95L276.65-19.95Q276.65-20.85 279.20-21.70L279.20-21.70L279.20-21.70Q281.75-22.55 282.93-22.55L282.93-22.55L282.93-22.55Q284.10-22.55 284.15-21.95L284.15-21.95L284.15-21.95Q284.15-20.95 283.88-16.28L283.88-16.28L283.88-16.28Q283.60-11.60 283.60-6.45L283.60-6.45L283.60-6.45Q283.60-1.30 284.20-0.05L284.20-0.05L284.20-0.05Q284.35 0.20 284.35 0.45L284.35 0.45L284.35 0.45Q284.35 1.10 282.45 1.10L282.45 1.10L282.45 1.10Q280.55 1.10 278.55 0.10L278.55 0.10L278.55 0.10Q278.05-0.15 278.05-1.50" fill="#00a1d5" stroke="none" stroke-width="none" transform="translate(-160.07501220703125,13.63701042175293)" style="fill: rgb(0, 161, 213);"></path></g><g class="path" style="transform: matrix(1, 0, 0, 1, 0, 0); transform-origin: 135.15px 2.76201px; animation: 1s linear -0.0347368s infinite normal forwards running bounce-baea6187-5fad-4574-ac11-d6f1aae83674;"><path d="M292.15-12.70L292.15-12.70L292.20-11.45L292.20-11.45Q292.20-11.15 292.60-11.15L292.60-11.15L292.60-11.15Q294.20-11.30 295.40-11.98L295.40-11.98L295.40-11.98Q296.60-12.65 297.20-13.50L297.20-13.50L297.20-13.50Q298.40-15.35 298.50-16.70L298.50-16.70L298.55-17.30L298.55-17.30Q298.55-20 296.40-20L296.40-20L296.40-20Q294.80-20 293.80-18.60L293.80-18.60L293.80-18.60Q292.15-16.40 292.15-12.70zM303.05-6.05L303.05-6.05L303.05-6.05Q303.05-4.15 302.28-2.73L302.28-2.73L302.28-2.73Q301.50-1.30 300.53-0.63L300.53-0.63L300.53-0.63Q299.55 0.05 298.25 0.45L298.25 0.45L298.25 0.45Q296.60 0.95 295.10 0.95L295.10 0.95L295.10 0.95Q290.90 0.95 288.90-2.20L288.90-2.20L288.90-2.20Q286.90-5.35 286.90-10.23L286.90-10.23L286.90-10.23Q286.90-15.10 289.38-18.90L289.38-18.90L289.38-18.90Q291.85-22.70 296.80-22.70L296.80-22.70L296.80-22.70Q301.30-22.70 302.90-19.55L302.90-19.55L302.90-19.55Q303.55-18.35 303.55-17.28L303.55-17.28L303.55-17.28Q303.55-16.20 303.45-15.58L303.45-15.58L303.45-15.58Q303.35-14.95 302.75-13.70L302.75-13.70L302.75-13.70Q302.15-12.45 301.15-11.45L301.15-11.45L301.15-11.45Q300.15-10.45 298.00-9.55L298.00-9.55L298.00-9.55Q295.85-8.65 292.95-8.35L292.95-8.35L292.95-8.35Q292.55-8.35 292.55-8L292.55-8L292.55-8Q292.55-7.55 292.88-6.68L292.88-6.68L292.88-6.68Q293.20-5.80 293.60-5.20L293.60-5.20L293.60-5.20Q294.70-3.80 296.85-3.80L296.85-3.80L296.85-3.80Q299.00-3.80 300.50-5.20L300.50-5.20L300.50-5.20Q301.30-5.95 301.80-7.05L301.80-7.05L301.80-7.05Q302.00-7.45 302.33-7.45L302.33-7.45L302.33-7.45Q302.65-7.45 302.85-6.90L302.85-6.90L302.85-6.90Q303.05-6.35 303.05-6.05" fill="#00a1d5" stroke="none" stroke-width="none" transform="translate(-160.07501220703125,13.63701042175293)" style="fill: rgb(0, 161, 213);"></path></g><g class="path" style="transform: matrix(1, 0, 0, 1, 0, 0); transform-origin: 152.825px 2.83701px; animation: 1s linear 0s infinite normal forwards running bounce-baea6187-5fad-4574-ac11-d6f1aae83674;"><path d="M321-6.85L321-6.85L321-6.85Q321-4.70 320.18-3.10L320.18-3.10L320.18-3.10Q319.35-1.50 318.30-0.75L318.30-0.75L318.30-0.75Q317.25 0 315.80 0.45L315.80 0.45L315.80 0.45Q313.90 1.05 312.35 1.05L312.35 1.05L312.35 1.05Q309.10 1.05 306.95-0.23L306.95-0.23L306.95-0.23Q304.80-1.50 304.80-4.30L304.80-4.30L304.80-4.30Q304.80-5.95 305.70-7L305.70-7L305.70-7Q307.10-8.55 309.05-8.55L309.05-8.55L309.05-8.55Q309.65-8.55 309.65-8L309.65-8L309.65-8Q309.65-7.95 309.43-7.23L309.43-7.23L309.43-7.23Q309.20-6.50 309.20-5.40L309.20-5.40L309.20-5.40Q309.20-4.30 310.07-3.45L310.07-3.45L310.07-3.45Q310.95-2.60 312.20-2.60L312.20-2.60L312.20-2.60Q313.45-2.60 314.20-3.03L314.20-3.03L314.20-3.03Q314.95-3.45 315.25-4.10L315.25-4.10L315.25-4.10Q315.70-5 315.70-5.80L315.70-5.80L315.70-5.80Q315.70-7.25 314.25-8.30L314.25-8.30L314.25-8.30Q312.80-9.35 311.05-9.95L311.05-9.95L311.05-9.95Q309.30-10.55 307.85-11.95L307.85-11.95L307.85-11.95Q306.40-13.35 306.40-15.45L306.40-15.45L306.40-15.45Q306.40-19.05 308.68-20.85L308.68-20.85L308.68-20.85Q310.95-22.65 314.85-22.65L314.85-22.65L314.85-22.65Q316.55-22.65 318.43-22.18L318.43-22.18L318.43-22.18Q320.30-21.70 320.30-20.58L320.30-20.58L320.30-20.58Q320.30-19.45 319.93-18.50L319.93-18.50L319.93-18.50Q319.55-17.55 319-17.55L319-17.55L319-17.55Q318.70-17.55 318.60-17.78L318.60-17.78L318.60-17.78Q318.50-18 318.25-18.30L318.25-18.30L318.25-18.30Q318-18.60 317.05-19.07L317.05-19.07L317.05-19.07Q316.10-19.55 315.43-19.55L315.43-19.55L315.43-19.55Q314.75-19.55 314.53-19.53L314.53-19.53L314.53-19.53Q314.30-19.50 313.75-19.38L313.75-19.38L313.75-19.38Q313.20-19.25 312.75-19L312.75-19L312.75-19Q311.60-18.35 311.60-17.10L311.60-17.10L311.60-17.10Q311.60-16.30 311.95-15.93L311.95-15.93L311.95-15.93Q312.30-15.55 312.50-15.35L312.50-15.35L312.50-15.35Q312.70-15.15 313.20-14.88L313.20-14.88L313.20-14.88Q313.70-14.60 313.90-14.50L313.90-14.50L313.90-14.50Q314.10-14.40 314.80-14.08L314.80-14.08L314.80-14.08Q315.50-13.75 315.70-13.65L315.70-13.65L315.70-13.65Q321-11.15 321-6.85" fill="#00a1d5" stroke="none" stroke-width="none" transform="translate(-160.07501220703125,13.63701042175293)" style="fill: rgb(0, 161, 213);"></path></g></g>
</g>
</g>
<style id="bounce-baea6187-5fad-4574-ac11-d6f1aae83674" data-anikit="">@keyframes bounce-baea6187-5fad-4574-ac11-d6f1aae83674
{
  0% {
    animation-timing-function: cubic-bezier(0.1361,0.2514,0.2175,0.8786);
    transform: translate(0,0px) scaleY(1);
  }
  37% {
    animation-timing-function: cubic-bezier(0.7674,0.1844,0.8382,0.7157);
    transform: translate(0,-6.993px) scaleY(1);
  }
  72% {
    animation-timing-function: cubic-bezier(0.3337,0.6674,0.6634,1);
    transform: translate(0,0px) scaleY(1);
  }
  87% {
    animation-timing-function: cubic-bezier(0.336,0.168,0.6659,0.4989);
    transform: translate(0,0.3600000000000003px) scaleY(0.99);
  }
  100% {
    transform: translate(0,0px) scaleY(1);
  }
}</style></svg>