<?xml version="1.0" encoding="utf-8"?>
<svg xmlns="http://www.w3.org/2000/svg" style="margin: auto; background: none; display: block; shape-rendering: auto;" width="281" height="71" preserveAspectRatio="xMidYMid">
<style type="text/css">
  text {
    text-anchor: middle; font-size: 42px; opacity: 0;
  }
</style>
<g style="transform-origin:140.5px 35.5px;transform:scale(1)">
<g transform="translate(140.5,35.5)">
  <g transform="translate(0,0)"><g class="path" style="transform: matrix(1, 0, 0, 1, 0, 0); transform-origin: -103.64px -3.67995px; animation: 1s linear -0.61875s infinite normal forwards running bounce-baea6187-5fad-4574-ac11-d6f1aae83674;"><path d="M12.94-0.04L12.94-0.04L10.54-0.08L10.54-0.08Q10.04-0.08 9.53-0.08L9.53-0.08L1.89 0.29L1.89 0.29Q1.26 0.29 1.26-0.13L1.26-0.13L1.26-0.13Q1.26-0.25 1.39-0.71L1.39-0.71L1.39-0.71Q1.81-1.68 2.00-6.85L2.00-6.85L2.00-6.85Q2.18-12.01 2.18-16.28L2.18-16.28L2.18-16.28Q2.18-20.54 2.02-23.18L2.02-23.18L2.02-23.18Q1.76-27.17 1.18-27.97L1.18-27.97L1.18-27.97Q0.71-28.56 0.71-28.73L0.71-28.73L0.71-28.73Q0.71-29.40 2.98-29.90L2.98-29.90L2.98-29.90Q5.25-30.41 6.24-30.41L6.24-30.41L6.24-30.41Q7.22-30.41 7.48-30.30L7.48-30.30L7.48-30.30Q7.73-30.20 7.73-29.86L7.73-29.86L7.73-29.86Q7.73-29.53 7.56-27.72L7.56-27.72L7.56-27.72Q7.14-22.39 7.14-15.31L7.14-15.31L7.14-15.31Q7.14-8.23 7.48-3.99L7.48-3.99L7.48-3.99Q7.48-3.53 8.27-3.19L8.27-3.19L8.27-3.19Q9.07-2.86 10.25-2.86L10.25-2.86L10.25-2.86Q14.36-2.86 14.36-9.20L14.36-9.20L14.36-9.20Q14.36-10.96 14.18-11.38L14.18-11.38L14.18-11.38Q13.99-11.80 13.99-11.93L13.99-11.93L13.99-11.93Q13.99-12.35 14.57-12.35L14.57-12.35L14.57-12.35Q15.04-12.35 15.81-11.89L15.81-11.89L15.81-11.89Q16.59-11.42 17.09-10.73L17.09-10.73L17.09-10.73Q17.60-10.04 18.02-8.55L18.02-8.55L18.02-8.55Q18.44-7.06 18.44-5.04L18.44-5.04L18.44-5.04Q18.44-0.04 17.22-0.04L17.22-0.04L17.22-0.04Q15.08-0.04 12.94-0.04" fill="#00a1d5" stroke="none" stroke-width="none" transform="translate(-113.21499633789062,11.380049905776978)" style="fill: rgb(0, 161, 213);"></path></g><g class="path" style="transform: matrix(1, 0, 0, 1, 0, 0); transform-origin: -85.56px 2.31005px; animation: 1s linear -0.5775s infinite normal forwards running bounce-baea6187-5fad-4574-ac11-d6f1aae83674;"><path d="M24.11-15.83L24.11-15.83L24.11-15.83Q23.02-15.79 22.53-15.77L22.53-15.77L22.53-15.77Q22.05-15.75 22.05-16.00L22.05-16.00L22.05-16.00Q22.05-16.25 22.30-16.51L22.30-16.51L22.30-16.51Q24.99-18.98 31.37-18.98L31.37-18.98L31.37-18.98Q33.56-18.98 34.82-18.61L34.82-18.61L35.24-18.48L35.24-18.48Q35.74-18.27 35.74-18.02L35.74-18.02L35.74-18.02Q35.74-17.81 35.45-17.68L35.45-17.68L35.45-17.68Q34.31-17.35 33.26-16.61L33.26-16.61L33.26-16.61Q32.21-15.88 32.21-15.58L32.21-15.58L32.47-15.29L32.47-15.29Q33.81-14.53 34.55-12.89L34.55-12.89L34.55-12.89Q35.28-11.26 35.36-10.00L35.36-10.00L35.45-8.69L35.45-8.69Q35.45-4.54 33.14-1.85L33.14-1.85L33.14-1.85Q30.83 0.84 26.84 0.84L26.84 0.84L26.84 0.84Q24.82 0.84 23.35 0.13L23.35 0.13L23.35 0.13Q21.88-0.59 21.19-1.49L21.19-1.49L21.19-1.49Q20.50-2.39 20.08-3.53L20.08-3.53L20.08-3.53Q19.57-5.08 19.57-6.74L19.57-6.74L19.57-6.74Q19.57-8.40 20.14-10.08L20.14-10.08L20.14-10.08Q20.71-11.76 21.44-12.56L21.44-12.56L21.44-12.56Q22.18-13.36 23.10-13.86L23.10-13.86L23.10-13.86Q24.28-14.49 24.99-14.49L24.99-14.49L24.99-14.49Q25.70-14.49 25.70-14.20L25.70-14.20L25.45-13.78L25.45-13.78Q24.53-12.68 24.13-10.92L24.13-10.92L24.13-10.92Q23.73-9.16 23.73-7.79L23.73-7.79L23.73-7.79Q23.73-6.43 24.07-5.08L24.07-5.08L24.07-5.08Q24.40-3.74 24.82-3.09L24.82-3.09L24.82-3.09Q25.24-2.44 25.79-2.10L25.79-2.10L25.79-2.10Q26.59-1.60 27.47-1.60L27.47-1.60L27.47-1.60Q28.35-1.60 29.19-2.29L29.19-2.29L29.19-2.29Q30.03-2.98 30.41-4.12L30.41-4.12L30.41-4.12Q31.16-6.22 31.16-8.44L31.16-8.44L31.16-8.44Q31.16-11.97 29.38-13.90L29.38-13.90L29.38-13.90Q27.59-15.83 24.11-15.83" fill="#00a1d5" stroke="none" stroke-width="none" transform="translate(-113.21499633789062,11.380049905776978)" style="fill: rgb(0, 161, 213);"></path></g><g class="path" style="transform: matrix(1, 0, 0, 1, 0, 0); transform-origin: -68.32px 2.16505px; animation: 1s linear -0.53625s infinite normal forwards running bounce-baea6187-5fad-4574-ac11-d6f1aae83674;"><path d="M51.66-12.60L51.66-12.60L51.58-7.22L51.58-7.22Q51.58-1.64 52.79-0.50L52.79-0.50L52.79-0.50Q52.96-0.34 52.96-0.13L52.96-0.13L52.96-0.13Q52.96 0.50 50.25 0.50L50.25 0.50L50.25 0.50Q47.54 0.50 47.38-1.09L47.38-1.09L47.38-1.09Q47.33-1.47 47.33-2.65L47.33-2.65L47.50-9.37L47.50-9.37Q47.50-9.66 47.17-9.66L47.17-9.66L47.17-9.66Q45.15-9.66 43.39-8.53L43.39-8.53L43.39-8.53Q41.62-7.39 41.62-5.63L41.62-5.63L41.62-5.63Q41.62-4.70 42.13-4.07L42.13-4.07L42.13-4.07Q42.63-3.44 43.37-3.44L43.37-3.44L43.37-3.44Q44.10-3.44 44.58-3.74L44.58-3.74L44.58-3.74Q45.07-4.03 45.15-4.07L45.15-4.07L45.15-4.07Q45.86-3.99 45.86-2.58L45.86-2.58L45.86-2.58Q45.86-1.18 44.56-0.32L44.56-0.32L44.56-0.32Q43.26 0.55 41.83 0.55L41.83 0.55L41.83 0.55Q40.40 0.55 39.38 0.04L39.38 0.04L39.38 0.04Q38.35-0.46 37.88-1.09L37.88-1.09L37.88-1.09Q37.42-1.72 37.13-2.52L37.13-2.52L37.13-2.52Q36.83-3.49 36.83-4.20L36.83-4.20L36.83-4.20Q36.83-7.14 38.68-8.90L38.68-8.90L38.68-8.90Q40.53-10.67 43.43-11.42L43.43-11.42L43.43-11.42Q47.25-12.18 47.42-12.81L47.42-12.81L47.42-12.81Q47.54-13.27 47.54-14.36L47.54-14.36L47.54-14.36Q47.54-16.59 45.28-16.59L45.28-16.59L45.28-16.59Q44.31-16.59 43.55-15.98L43.55-15.98L43.55-15.98Q42.80-15.37 42.80-14.45L42.80-14.45L43.05-13.44L43.05-13.44Q42.97-12.73 41.54-12.60L41.54-12.60L41.08-12.56L41.08-12.56Q39.82-12.56 39.08-13.19L39.08-13.19L39.08-13.19Q38.35-13.82 38.35-14.87L38.35-14.87L38.35-14.87Q38.35-15.54 38.79-16.36L38.79-16.36L38.79-16.36Q39.23-17.18 39.90-17.68L39.90-17.68L39.90-17.68Q40.57-18.19 41.98-18.59L41.98-18.59L41.98-18.59Q43.39-18.98 44.69-18.98L44.69-18.98L44.69-18.98Q45.99-18.98 46.70-18.90L46.70-18.90L46.70-18.90Q47.42-18.82 48.66-18.50L48.66-18.50L48.66-18.50Q49.90-18.19 50.72-17.30L50.72-17.30L50.72-17.30Q51.53-16.42 51.60-15.44L51.60-15.44L51.60-15.44Q51.66-14.45 51.66-12.60" fill="#00a1d5" stroke="none" stroke-width="none" transform="translate(-113.21499633789062,11.380049905776978)" style="fill: rgb(0, 161, 213);"></path></g><g class="path" style="transform: matrix(1, 0, 0, 1, 0, 0); transform-origin: -51.39px -2.95995px; animation: 1s linear -0.495s infinite normal forwards running bounce-baea6187-5fad-4574-ac11-d6f1aae83674;"><path d="M62.62-18.86L62.62-18.86L62.62-18.86Q63.38-18.86 63.99-18.67L63.99-18.67L63.99-18.67Q64.60-18.48 64.64-18.48L64.64-18.48L64.89-18.69L64.72-23.27L64.72-23.27Q64.64-24.44 64.22-25.28L64.22-25.28L64.22-25.28Q63.80-26.12 63.46-26.38L63.46-26.38L63.08-26.59L63.08-26.59Q62.83-26.75 62.83-26.96L62.83-26.96L62.83-26.96Q62.83-27.59 64.78-28.43L64.78-28.43L64.78-28.43Q66.74-29.27 67.83-29.27L67.83-29.27L67.83-29.27Q68.92-29.27 69.01-28.81L69.01-28.81L69.01-28.81Q69.22-27.38 69.22-23.37L69.22-23.37L69.22-23.37Q69.22-19.36 69.03-15.50L69.03-15.50L69.03-15.50Q68.84-11.63 68.84-6.74L68.84-6.74L68.84-6.74Q68.84-1.85 69.47-0.59L69.47-0.59L69.47-0.59Q69.64-0.29 69.64-0.04L69.64-0.04L69.64-0.04Q69.64 0.59 67.83 0.59L67.83 0.59L67.83 0.59Q64.39 0.59 64.39-1.05L64.39-1.05L64.39-1.05Q64.30-1.72 64.30-3.13L64.30-3.13L64.30-3.13Q64.30-4.54 64.58-8.38L64.58-8.38L64.58-8.38Q64.85-12.22 64.85-14.30L64.85-14.30L64.85-14.30Q64.85-16.38 62.77-16.38L62.77-16.38L62.77-16.38Q60.69-16.38 59.60-13.94L59.60-13.94L59.60-13.94Q58.51-11.51 58.51-9.07L58.51-9.07L58.51-9.07Q58.51-3.91 61.11-3.91L61.11-3.91L61.11-3.91Q61.49-3.91 61.85-4.05L61.85-4.05L61.85-4.05Q62.20-4.20 62.29-4.20L62.29-4.20L62.29-4.20Q62.62-4.20 62.81-3.78L62.81-3.78L62.81-3.78Q63-3.36 63-2.94L63-2.94L63-2.94Q63-1.51 61.87-0.53L61.87-0.53L61.87-0.53Q60.73 0.46 59.09 0.46L59.09 0.46L59.09 0.46Q56.57 0.46 55.29-1.74L55.29-1.74L55.29-1.74Q54.01-3.95 54.01-7.22L54.01-7.22L54.01-7.22Q54.01-11.38 55.99-14.95L55.99-14.95L55.99-14.95Q56.99-16.72 58.72-17.79L58.72-17.79L58.72-17.79Q60.44-18.86 62.62-18.86" fill="#00a1d5" stroke="none" stroke-width="none" transform="translate(-113.21499633789062,11.380049905776978)" style="fill: rgb(0, 161, 213);"></path></g><g class="path" style="transform: matrix(1, 0, 0, 1, 0, 0); transform-origin: -38.12px -12.835px; animation: 1s linear -0.45375s infinite normal forwards running bounce-baea6187-5fad-4574-ac11-d6f1aae83674;"><path d="M75.85-22.47L75.85-22.47L74.84-22.51L74.84-22.51Q73.71-22.51 73.37-21.97L73.37-21.97L73.37-21.97Q73.29-21.84 73.16-21.84L73.16-21.84L73.16-21.84Q72.62-21.84 72.62-23.71L72.62-23.71L72.62-23.71Q72.62-25.58 73.19-26.08L73.19-26.08L73.19-26.08Q73.75-26.59 75.16-26.59L75.16-26.59L75.16-26.59Q76.57-26.59 77.07-26.10L77.07-26.10L77.07-26.10Q77.57-25.62 77.57-24.49L77.57-24.49L77.57-24.49Q77.57-23.35 77.20-22.91L77.20-22.91L77.20-22.91Q76.82-22.47 75.85-22.47" fill="#00a1d5" stroke="none" stroke-width="none" transform="translate(-113.21499633789062,11.380049905776978)" style="fill: rgb(0, 161, 213);"></path></g><g class="path" style="transform: matrix(1, 0, 0, 1, 0, 0); transform-origin: -38.665px 2.37005px; animation: 1s linear -0.4125s infinite normal forwards running bounce-baea6187-5fad-4574-ac11-d6f1aae83674;"><path d="M72.49-1.26L72.49-1.26L72.95-11.05L72.95-11.05Q72.95-14.53 72.16-15.79L72.16-15.79L72.16-15.79Q71.90-16.21 71.57-16.42L71.57-16.42L71.57-16.42Q71.32-16.51 71.32-16.76L71.32-16.76L71.32-16.76Q71.32-17.51 73.46-18.23L73.46-18.23L73.46-18.23Q75.60-18.94 76.59-18.94L76.59-18.94L76.59-18.94Q77.57-18.94 77.62-18.44L77.62-18.44L77.62-18.44Q77.62-17.60 77.39-13.67L77.39-13.67L77.39-13.67Q77.15-9.74 77.15-5.42L77.15-5.42L77.15-5.42Q77.15-1.09 77.66-0.04L77.66-0.04L77.66-0.04Q77.78 0.17 77.78 0.38L77.78 0.38L77.78 0.38Q77.78 0.92 76.19 0.92L76.19 0.92L76.19 0.92Q74.59 0.92 72.91 0.08L72.91 0.08L72.91 0.08Q72.49-0.13 72.49-1.26" fill="#00a1d5" stroke="none" stroke-width="none" transform="translate(-113.21499633789062,11.380049905776978)" style="fill: rgb(0, 161, 213);"></path></g><g class="path" style="transform: matrix(1, 0, 0, 1, 0, 0); transform-origin: -25.18px 2.20505px; animation: 1s linear -0.37125s infinite normal forwards running bounce-baea6187-5fad-4574-ac11-d6f1aae83674;"><path d="M80.35 0.29L80.35 0.29L80.35 0.29Q81.10-4.24 81.10-10.58L81.10-10.58L81.10-10.58Q81.10-16.93 80.72-18.82L80.72-18.82L80.72-18.82Q80.72-19.36 81.98-19.36L81.98-19.36L81.98-19.36Q83.92-19.36 84.55-17.89L84.55-17.89L84.55-17.89Q84.59-17.77 84.76-17.77L84.76-17.77L84.76-17.77Q84.92-17.77 85.01-17.85L85.01-17.85L85.01-17.85Q86.31-19.19 89.04-19.19L89.04-19.19L89.04-19.19Q91.77-19.19 93.37-17.81L93.37-17.81L93.37-17.81Q94.96-16.42 94.96-13.78L94.96-13.78L94.96-13.78Q94.96-12.18 94.69-9.24L94.69-9.24L94.69-9.24Q94.42-6.30 94.42-4.87L94.42-4.87L94.42-4.87Q94.42-1.47 95.55 0.04L95.55 0.04L95.55 0.04Q95.72 0.25 95.72 0.46L95.72 0.46L95.72 0.46Q95.72 1.01 94.54 1.01L94.54 1.01L94.54 1.01Q89.33 1.01 89.33-3.61L89.33-3.61L89.33-3.61Q89.33-5.38 90.13-8.53L90.13-8.53L90.13-8.53Q90.93-11.68 90.93-13.31L90.93-13.31L90.93-13.31Q90.93-16.67 88.16-16.67L88.16-16.67L88.16-16.67Q86.81-16.67 86.12-15.88L86.12-15.88L86.12-15.88Q85.43-15.08 85.34-14.05L85.34-14.05L85.34-14.05Q85.26-13.02 85.26-10.16L85.26-10.16L85.26-10.16Q85.26-5.80 85.55-2.56L85.55-2.56L85.64-1.64L85.64-1.64Q85.64-0.46 84.11 0.19L84.11 0.19L84.11 0.19Q82.57 0.84 81.46 0.84L81.46 0.84L81.46 0.84Q80.35 0.84 80.35 0.29" fill="#00a1d5" stroke="none" stroke-width="none" transform="translate(-113.21499633789062,11.380049905776978)" style="fill: rgb(0, 161, 213);"></path></g><g class="path" style="transform: matrix(1, 0, 0, 1, 0, 0); transform-origin: -8.95px 8.23005px; animation: 1s linear -0.33s infinite normal forwards running bounce-baea6187-5fad-4574-ac11-d6f1aae83674;"><path d="M99.88-16.95L99.88-16.95L99.88-16.95Q100.80-17.89 102.31-18.54L102.31-18.54L102.31-18.54Q103.82-19.19 105.21-19.19L105.21-19.19L105.21-19.19Q106.60-19.19 108.02-18.56L108.02-18.56L108.02-18.56Q108.19-18.56 108.28-18.65L108.28-18.65L108.28-18.65Q109.37-19.74 111.47-19.74L111.47-19.74L111.47-19.74Q111.97-19.74 111.97-19.28L111.97-19.28L111.97-19.28Q111.97-19.24 111.89-18.90L111.89-18.90L111.89-18.90Q111.80-18.56 111.68-17.91L111.68-17.91L111.68-17.91Q111.55-17.26 111.47-16.34L111.47-16.34L111.47-16.34Q111.17-13.94 111.15-11.05L111.15-11.05L111.15-11.05Q111.13-8.15 111.13-5.25L111.13-5.25L111.26 3.57L111.26 3.57Q111.26 7.81 109.07 10.63L109.07 10.63L109.07 10.63Q108.19 11.76 106.41 12.60L106.41 12.60L106.41 12.60Q104.62 13.44 102.23 13.44L102.23 13.44L102.23 13.44Q101.68 13.10 101.68 12.77L101.68 12.77L101.68 12.77Q101.68 12.43 102.14 12.22L102.14 12.22L102.14 12.22Q104.79 11.00 105.92 6.45L105.92 6.45L105.92 6.45Q107.06 1.89 107.06-7.39L107.06-7.39L106.97-13.27L106.85-16.13L106.85-16.13Q106.85-16.51 105.67-16.67L105.67-16.67L105.67-16.67Q104.16-16.67 103.13-15.69L103.13-15.69L103.13-15.69Q102.10-14.70 101.72-13.10L101.72-13.10L101.72-13.10Q101.05-10.54 101.05-8.67L101.05-8.67L101.05-8.67Q101.05-6.80 101.66-5.38L101.66-5.38L101.66-5.38Q102.27-3.95 103.78-3.95L103.78-3.95L103.78-3.95Q104.20-3.95 104.56-4.12L104.56-4.12L104.56-4.12Q104.92-4.28 105.04-4.28L105.04-4.28L105.04-4.28Q105.46-4.28 105.46-3.44L105.46-3.44L105.46-3.44Q105.46-2.60 105.34-2.08L105.34-2.08L105.34-2.08Q105.21-1.55 104.83-0.92L104.83-0.92L104.83-0.92Q103.99 0.46 101.56 0.46L101.56 0.46L101.56 0.46Q99.12 0.46 98.07-1.30L98.07-1.30L98.07-1.30Q96.98-3.11 96.81-4.54L96.81-4.54L96.81-4.54Q96.56-6.68 96.56-7.35L96.56-7.35L96.56-7.35Q96.56-8.02 96.58-8.42L96.58-8.42L96.58-8.42Q96.60-8.82 96.79-10.02L96.79-10.02L96.79-10.02Q96.98-11.21 97.29-12.29L97.29-12.29L97.29-12.29Q97.61-13.36 98.28-14.68L98.28-14.68L98.28-14.68Q98.95-16.00 99.88-16.95" fill="#00a1d5" stroke="none" stroke-width="none" transform="translate(-113.21499633789062,11.380049905776978)" style="fill: rgb(0, 161, 213);"></path></g><g class="path" style="transform: matrix(1, 0, 0, 1, 0, 0); transform-origin: 17.595px -3.31995px; animation: 1s linear -0.28875s infinite normal forwards running bounce-baea6187-5fad-4574-ac11-d6f1aae83674;"><path d="M134.78-23.27L134.78-23.27L134.95-24.57L134.95-24.57Q134.95-26.50 133.43-27.05L133.43-27.05L133.43-27.05Q132.26-27.43 131.63-27.43L131.63-27.43L131.59-27.43L131.59-27.43Q130.33-27.43 129.40-27.03L129.40-27.03L129.40-27.03Q128.48-26.63 128.06-26.04L128.06-26.04L128.06-26.04Q127.18-24.82 127.05-23.48L127.05-23.48L127.05-23.48Q127.05-21.88 128.48-20.73L128.48-20.73L128.48-20.73Q129.91-19.57 131.94-18.71L131.94-18.71L131.94-18.71Q133.98-17.85 136.02-16.84L136.02-16.84L136.02-16.84Q138.05-15.83 139.48-13.94L139.48-13.94L139.48-13.94Q140.91-12.05 140.91-9.41L140.91-9.41L140.91-9.41Q140.91-4.24 137.66-1.68L137.66-1.68L137.66-1.68Q134.40 0.88 130.26 0.88L130.26 0.88L130.26 0.88Q126.13 0.88 123.42-0.99L123.42-0.99L123.42-0.99Q120.71-2.86 120.71-6.01L120.71-6.01L120.71-6.05L120.71-6.05Q120.71-7.60 121.19-8.76L121.19-8.76L121.19-8.76Q121.67-9.91 122.35-10.46L122.35-10.46L122.35-10.46Q123.73-11.59 124.87-11.68L124.87-11.68L125.37-11.72L125.37-11.72Q126.55-11.72 127.51-11.15L127.51-11.15L127.51-11.15Q128.48-10.58 128.48-9.58L128.48-9.58L128.48-9.58Q128.48-9.07 127.93-8.74L127.93-8.74L127.93-8.74Q127.39-8.40 126.99-7.73L126.99-7.73L126.99-7.73Q126.59-7.06 126.55-6.59L126.55-6.59L126.46-6.13L126.46-6.13Q126.46-3.57 128.81-2.73L128.81-2.73L128.81-2.73Q129.65-2.44 130.16-2.44L130.16-2.44L130.16-2.44Q132.47-2.44 133.88-3.82L133.88-3.82L133.88-3.82Q135.28-5.21 135.28-7.35L135.28-7.35L135.28-7.35Q135.28-9.91 133.10-11.51L133.10-11.51L133.10-11.51Q131.46-12.68 129.55-13.48L129.55-13.48L129.55-13.48Q127.64-14.28 126.97-14.62L126.97-14.62L126.97-14.62Q126.29-14.95 125.54-15.41L125.54-15.41L125.54-15.41Q124.78-15.88 123.86-16.72L123.86-16.72L123.86-16.72Q121.84-18.48 121.84-21.48L121.84-21.48L121.84-21.48Q121.84-24.49 123.48-26.54L123.48-26.54L123.48-26.54Q126.42-30.28 132.30-30.28L132.30-30.28L132.30-30.28Q135.41-30.28 137.55-29.09L137.55-29.09L137.55-29.09Q139.69-27.89 139.69-25.79L139.69-25.79L139.69-25.79Q139.69-24.28 138.83-23.27L138.83-23.27L138.83-23.27Q137.97-22.26 136.63-22.26L136.63-22.26L136.63-22.26Q136.00-22.26 135.39-22.51L135.39-22.51L135.39-22.51Q134.78-22.76 134.78-23.27" fill="#00a1d5" stroke="none" stroke-width="none" transform="translate(-113.21499633789062,11.380049905776978)" style="fill: rgb(0, 161, 213);"></path></g><g class="path" style="transform: matrix(1, 0, 0, 1, 0, 0); transform-origin: 33.195px -12.835px; animation: 1s linear -0.2475s infinite normal forwards running bounce-baea6187-5fad-4574-ac11-d6f1aae83674;"><path d="M147.17-22.47L147.17-22.47L146.16-22.51L146.16-22.51Q145.03-22.51 144.69-21.97L144.69-21.97L144.69-21.97Q144.61-21.84 144.48-21.84L144.48-21.84L144.48-21.84Q143.93-21.84 143.93-23.71L143.93-23.71L143.93-23.71Q143.93-25.58 144.50-26.08L144.50-26.08L144.50-26.08Q145.07-26.59 146.48-26.59L146.48-26.59L146.48-26.59Q147.88-26.59 148.39-26.10L148.39-26.10L148.39-26.10Q148.89-25.62 148.89-24.49L148.89-24.49L148.89-24.49Q148.89-23.35 148.51-22.91L148.51-22.91L148.51-22.91Q148.13-22.47 147.17-22.47" fill="#00a1d5" stroke="none" stroke-width="none" transform="translate(-113.21499633789062,11.380049905776978)" style="fill: rgb(0, 161, 213);"></path></g><g class="path" style="transform: matrix(1, 0, 0, 1, 0, 0); transform-origin: 32.65px 2.37005px; animation: 1s linear -0.20625s infinite normal forwards running bounce-baea6187-5fad-4574-ac11-d6f1aae83674;"><path d="M143.81-1.26L143.81-1.26L144.27-11.05L144.27-11.05Q144.27-14.53 143.47-15.79L143.47-15.79L143.47-15.79Q143.22-16.21 142.88-16.42L142.88-16.42L142.88-16.42Q142.63-16.51 142.63-16.76L142.63-16.76L142.63-16.76Q142.63-17.51 144.77-18.23L144.77-18.23L144.77-18.23Q146.92-18.94 147.90-18.94L147.90-18.94L147.90-18.94Q148.89-18.94 148.93-18.44L148.93-18.44L148.93-18.44Q148.93-17.60 148.70-13.67L148.70-13.67L148.70-13.67Q148.47-9.74 148.47-5.42L148.47-5.42L148.47-5.42Q148.47-1.09 148.97-0.04L148.97-0.04L148.97-0.04Q149.10 0.17 149.10 0.38L149.10 0.38L149.10 0.38Q149.10 0.92 147.50 0.92L147.50 0.92L147.50 0.92Q145.91 0.92 144.23 0.08L144.23 0.08L144.23 0.08Q143.81-0.13 143.81-1.26" fill="#00a1d5" stroke="none" stroke-width="none" transform="translate(-113.21499633789062,11.380049905776978)" style="fill: rgb(0, 161, 213);"></path></g><g class="path" style="transform: matrix(1, 0, 0, 1, 0, 0); transform-origin: 46.13px 2.20505px; animation: 1s linear -0.165s infinite normal forwards running bounce-baea6187-5fad-4574-ac11-d6f1aae83674;"><path d="M151.66 0.29L151.66 0.29L151.66 0.29Q152.42-4.24 152.42-10.58L152.42-10.58L152.42-10.58Q152.42-16.93 152.04-18.82L152.04-18.82L152.04-18.82Q152.04-19.36 153.30-19.36L153.30-19.36L153.30-19.36Q155.23-19.36 155.86-17.89L155.86-17.89L155.86-17.89Q155.90-17.77 156.07-17.77L156.07-17.77L156.07-17.77Q156.24-17.77 156.32-17.85L156.32-17.85L156.32-17.85Q157.63-19.19 160.36-19.19L160.36-19.19L160.36-19.19Q163.09-19.19 164.68-17.81L164.68-17.81L164.68-17.81Q166.28-16.42 166.28-13.78L166.28-13.78L166.28-13.78Q166.28-12.18 166.01-9.24L166.01-9.24L166.01-9.24Q165.73-6.30 165.73-4.87L165.73-4.87L165.73-4.87Q165.73-1.47 166.87 0.04L166.87 0.04L166.87 0.04Q167.03 0.25 167.03 0.46L167.03 0.46L167.03 0.46Q167.03 1.01 165.86 1.01L165.86 1.01L165.86 1.01Q160.65 1.01 160.65-3.61L160.65-3.61L160.65-3.61Q160.65-5.38 161.45-8.53L161.45-8.53L161.45-8.53Q162.25-11.68 162.25-13.31L162.25-13.31L162.25-13.31Q162.25-16.67 159.47-16.67L159.47-16.67L159.47-16.67Q158.13-16.67 157.44-15.88L157.44-15.88L157.44-15.88Q156.74-15.08 156.66-14.05L156.66-14.05L156.66-14.05Q156.58-13.02 156.58-10.16L156.58-10.16L156.58-10.16Q156.58-5.80 156.87-2.56L156.87-2.56L156.95-1.64L156.95-1.64Q156.95-0.46 155.42 0.19L155.42 0.19L155.42 0.19Q153.89 0.84 152.78 0.84L152.78 0.84L152.78 0.84Q151.66 0.84 151.66 0.29" fill="#00a1d5" stroke="none" stroke-width="none" transform="translate(-113.21499633789062,11.380049905776978)" style="fill: rgb(0, 161, 213);"></path></g><g class="path" style="transform: matrix(1, 0, 0, 1, 0, 0); transform-origin: 62.365px 8.23005px; animation: 1s linear -0.12375s infinite normal forwards running bounce-baea6187-5fad-4574-ac11-d6f1aae83674;"><path d="M171.19-16.95L171.19-16.95L171.19-16.95Q172.12-17.89 173.63-18.54L173.63-18.54L173.63-18.54Q175.14-19.19 176.53-19.19L176.53-19.19L176.53-19.19Q177.91-19.19 179.34-18.56L179.34-18.56L179.34-18.56Q179.51-18.56 179.59-18.65L179.59-18.65L179.59-18.65Q180.68-19.74 182.78-19.74L182.78-19.74L182.78-19.74Q183.29-19.74 183.29-19.28L183.29-19.28L183.29-19.28Q183.29-19.24 183.20-18.90L183.20-18.90L183.20-18.90Q183.12-18.56 182.99-17.91L182.99-17.91L182.99-17.91Q182.87-17.26 182.78-16.34L182.78-16.34L182.78-16.34Q182.49-13.94 182.47-11.05L182.47-11.05L182.47-11.05Q182.45-8.15 182.45-5.25L182.45-5.25L182.57 3.57L182.57 3.57Q182.57 7.81 180.39 10.63L180.39 10.63L180.39 10.63Q179.51 11.76 177.72 12.60L177.72 12.60L177.72 12.60Q175.94 13.44 173.54 13.44L173.54 13.44L173.54 13.44Q173.00 13.10 173.00 12.77L173.00 12.77L173.00 12.77Q173.00 12.43 173.46 12.22L173.46 12.22L173.46 12.22Q176.11 11.00 177.24 6.45L177.24 6.45L177.24 6.45Q178.37 1.89 178.37-7.39L178.37-7.39L178.29-13.27L178.16-16.13L178.16-16.13Q178.16-16.51 176.99-16.67L176.99-16.67L176.99-16.67Q175.48-16.67 174.45-15.69L174.45-15.69L174.45-15.69Q173.42-14.70 173.04-13.10L173.04-13.10L173.04-13.10Q172.37-10.54 172.37-8.67L172.37-8.67L172.37-8.67Q172.37-6.80 172.98-5.38L172.98-5.38L172.98-5.38Q173.59-3.95 175.10-3.95L175.10-3.95L175.10-3.95Q175.52-3.95 175.88-4.12L175.88-4.12L175.88-4.12Q176.23-4.28 176.36-4.28L176.36-4.28L176.36-4.28Q176.78-4.28 176.78-3.44L176.78-3.44L176.78-3.44Q176.78-2.60 176.65-2.08L176.65-2.08L176.65-2.08Q176.53-1.55 176.15-0.92L176.15-0.92L176.15-0.92Q175.31 0.46 172.87 0.46L172.87 0.46L172.87 0.46Q170.44 0.46 169.39-1.30L169.39-1.30L169.39-1.30Q168.29-3.11 168.13-4.54L168.13-4.54L168.13-4.54Q167.87-6.68 167.87-7.35L167.87-7.35L167.87-7.35Q167.87-8.02 167.90-8.42L167.90-8.42L167.90-8.42Q167.92-8.82 168.11-10.02L168.11-10.02L168.11-10.02Q168.29-11.21 168.61-12.29L168.61-12.29L168.61-12.29Q168.92-13.36 169.60-14.68L169.60-14.68L169.60-14.68Q170.27-16.00 171.19-16.95" fill="#00a1d5" stroke="none" stroke-width="none" transform="translate(-113.21499633789062,11.380049905776978)" style="fill: rgb(0, 161, 213);"></path></g><g class="path" style="transform: matrix(1, 0, 0, 1, 0, 0); transform-origin: 78.535px 2.24505px; animation: 1s linear -0.0825s infinite normal forwards running bounce-baea6187-5fad-4574-ac11-d6f1aae83674;"><path d="M189.17-10.67L189.17-10.67L189.21-9.62L189.21-9.62Q189.21-9.37 189.55-9.37L189.55-9.37L189.55-9.37Q190.89-9.49 191.90-10.06L191.90-10.06L191.90-10.06Q192.91-10.63 193.41-11.34L193.41-11.34L193.41-11.34Q194.42-12.89 194.50-14.03L194.50-14.03L194.54-14.53L194.54-14.53Q194.54-16.80 192.74-16.80L192.74-16.80L192.74-16.80Q191.39-16.80 190.55-15.62L190.55-15.62L190.55-15.62Q189.17-13.78 189.17-10.67zM198.32-5.08L198.32-5.08L198.32-5.08Q198.32-3.49 197.67-2.29L197.67-2.29L197.67-2.29Q197.02-1.09 196.20-0.53L196.20-0.53L196.20-0.53Q195.38 0.04 194.29 0.38L194.29 0.38L194.29 0.38Q192.91 0.80 191.65 0.80L191.65 0.80L191.65 0.80Q188.12 0.80 186.44-1.85L186.44-1.85L186.44-1.85Q184.76-4.49 184.76-8.59L184.76-8.59L184.76-8.59Q184.76-12.68 186.84-15.88L186.84-15.88L186.84-15.88Q188.92-19.07 193.07-19.07L193.07-19.07L193.07-19.07Q196.85-19.07 198.20-16.42L198.20-16.42L198.20-16.42Q198.74-15.41 198.74-14.51L198.74-14.51L198.74-14.51Q198.74-13.61 198.66-13.08L198.66-13.08L198.66-13.08Q198.58-12.56 198.07-11.51L198.07-11.51L198.07-11.51Q197.57-10.46 196.73-9.62L196.73-9.62L196.73-9.62Q195.89-8.78 194.08-8.02L194.08-8.02L194.08-8.02Q192.28-7.27 189.84-7.01L189.84-7.01L189.84-7.01Q189.50-7.01 189.50-6.72L189.50-6.72L189.50-6.72Q189.50-6.34 189.78-5.61L189.78-5.61L189.78-5.61Q190.05-4.87 190.39-4.37L190.39-4.37L190.39-4.37Q191.31-3.19 193.12-3.19L193.12-3.19L193.12-3.19Q194.92-3.19 196.18-4.37L196.18-4.37L196.18-4.37Q196.85-5.00 197.27-5.92L197.27-5.92L197.27-5.92Q197.44-6.26 197.72-6.26L197.72-6.26L197.72-6.26Q197.99-6.26 198.16-5.80L198.16-5.80L198.16-5.80Q198.32-5.33 198.32-5.08" fill="#00a1d5" stroke="none" stroke-width="none" transform="translate(-113.21499633789062,11.380049905776978)" style="fill: rgb(0, 161, 213);"></path></g><g class="path" style="transform: matrix(1, 0, 0, 1, 0, 0); transform-origin: 93.505px 2.16005px; animation: 1s linear -0.04125s infinite normal forwards running bounce-baea6187-5fad-4574-ac11-d6f1aae83674;"><path d="M213.23-14.45L213.02-11.26L213.19-9.79L213.19-9.79Q213.19-8.99 211.68-8.99L211.68-8.99L211.68-8.99Q208.61-8.99 208.61-11.30L208.61-11.30L208.61-11.30Q208.61-11.84 208.91-12.81L208.91-12.81L208.91-12.81Q209.20-13.78 209.20-14.49L209.20-14.49L209.20-14.49Q209.20-15.20 208.78-15.73L208.78-15.73L208.78-15.73Q208.36-16.25 207.56-16.25L207.56-16.25L207.56-16.25Q206.77-16.25 206.20-15.69L206.20-15.69L206.20-15.69Q205.63-15.12 205.51-14.53L205.51-14.53L205.34-13.94L205.34-13.94Q205.09-12.64 205.09-9.60L205.09-9.60L205.09-9.60Q205.09-6.55 205.17-4.81L205.17-4.81L205.17-4.81Q205.25-3.07 205.34-2.42L205.34-2.42L205.34-2.42Q205.42-1.76 205.42-1.64L205.42-1.64L205.42-1.64Q205.42-0.59 204.12 0.06L204.12 0.06L204.12 0.06Q202.82 0.71 201.52 0.71L201.52 0.71L201.52 0.71Q200.21 0.71 200.21 0.17L200.21 0.17L200.42-1.13L200.42-1.13Q201.01-4.79 201.01-10.67L201.01-10.67L201.01-10.67Q201.01-16.55 200.59-18.65L200.59-18.65L200.59-18.65Q200.59-19.15 201.47-19.15L201.47-19.15L201.47-19.15Q203.74-19.15 204.50-17.60L204.50-17.60L204.50-17.60Q204.54-17.43 204.65-17.43L204.65-17.43L204.65-17.43Q204.75-17.43 205.21-17.81L205.21-17.81L205.21-17.81Q206.60-18.94 208.49-18.94L208.49-18.94L208.49-18.94Q209.66-18.94 210.84-18.48L210.84-18.48L210.84-18.48Q213.23-17.51 213.23-14.45L213.23-14.45" fill="#00a1d5" stroke="none" stroke-width="none" transform="translate(-113.21499633789062,11.380049905776978)" style="fill: rgb(0, 161, 213);"></path></g><g class="path" style="transform: matrix(1, 0, 0, 1, 0, 0); transform-origin: 107.12px 2.30505px; animation: 1s linear 0s infinite normal forwards running bounce-baea6187-5fad-4574-ac11-d6f1aae83674;"><path d="M227.14-5.75L227.14-5.75L227.14-5.75Q227.14-3.95 226.44-2.60L226.44-2.60L226.44-2.60Q225.75-1.26 224.87-0.63L224.87-0.63L224.87-0.63Q223.99 0 222.77 0.38L222.77 0.38L222.77 0.38Q221.17 0.88 219.87 0.88L219.87 0.88L219.87 0.88Q217.14 0.88 215.33-0.19L215.33-0.19L215.33-0.19Q213.53-1.26 213.53-3.61L213.53-3.61L213.53-3.61Q213.53-5.00 214.28-5.88L214.28-5.88L214.28-5.88Q215.46-7.18 217.10-7.18L217.10-7.18L217.10-7.18Q217.60-7.18 217.60-6.72L217.60-6.72L217.60-6.72Q217.60-6.68 217.41-6.07L217.41-6.07L217.41-6.07Q217.22-5.46 217.22-4.54L217.22-4.54L217.22-4.54Q217.22-3.61 217.96-2.90L217.96-2.90L217.96-2.90Q218.69-2.18 219.74-2.18L219.74-2.18L219.74-2.18Q220.79-2.18 221.42-2.54L221.42-2.54L221.42-2.54Q222.05-2.90 222.31-3.44L222.31-3.44L222.31-3.44Q222.68-4.20 222.68-4.87L222.68-4.87L222.68-4.87Q222.68-6.09 221.47-6.97L221.47-6.97L221.47-6.97Q220.25-7.85 218.78-8.36L218.78-8.36L218.78-8.36Q217.31-8.86 216.09-10.04L216.09-10.04L216.09-10.04Q214.87-11.21 214.87-12.98L214.87-12.98L214.87-12.98Q214.87-16.00 216.78-17.51L216.78-17.51L216.78-17.51Q218.69-19.03 221.97-19.03L221.97-19.03L221.97-19.03Q223.40-19.03 224.97-18.63L224.97-18.63L224.97-18.63Q226.55-18.23 226.55-17.28L226.55-17.28L226.55-17.28Q226.55-16.34 226.23-15.54L226.23-15.54L226.23-15.54Q225.92-14.74 225.46-14.74L225.46-14.74L225.46-14.74Q225.20-14.74 225.12-14.93L225.12-14.93L225.12-14.93Q225.04-15.12 224.83-15.37L224.83-15.37L224.83-15.37Q224.62-15.62 223.82-16.02L223.82-16.02L223.82-16.02Q223.02-16.42 222.45-16.42L222.45-16.42L222.45-16.42Q221.89-16.42 221.70-16.40L221.70-16.40L221.70-16.40Q221.51-16.38 221.05-16.28L221.05-16.28L221.05-16.28Q220.58-16.17 220.21-15.96L220.21-15.96L220.21-15.96Q219.24-15.41 219.24-14.36L219.24-14.36L219.24-14.36Q219.24-13.69 219.53-13.38L219.53-13.38L219.53-13.38Q219.83-13.06 220.00-12.89L220.00-12.89L220.00-12.89Q220.16-12.73 220.58-12.50L220.58-12.50L220.58-12.50Q221.00-12.26 221.17-12.18L221.17-12.18L221.17-12.18Q221.34-12.10 221.93-11.82L221.93-11.82L221.93-11.82Q222.52-11.55 222.68-11.47L222.68-11.47L222.68-11.47Q227.14-9.37 227.14-5.75" fill="#00a1d5" stroke="none" stroke-width="none" transform="translate(-113.21499633789062,11.380049905776978)" style="fill: rgb(0, 161, 213);"></path></g></g>
</g>
</g>
<style id="bounce-baea6187-5fad-4574-ac11-d6f1aae83674" data-anikit="">@keyframes bounce-baea6187-5fad-4574-ac11-d6f1aae83674
{
  0% {
    animation-timing-function: cubic-bezier(0.1361,0.2514,0.2175,0.8786);
    transform: translate(0,0px) scaleY(1);
  }
  37% {
    animation-timing-function: cubic-bezier(0.7674,0.1844,0.8382,0.7157);
    transform: translate(0,-6.993px) scaleY(1);
  }
  72% {
    animation-timing-function: cubic-bezier(0.3337,0.6674,0.6634,1);
    transform: translate(0,0px) scaleY(1);
  }
  87% {
    animation-timing-function: cubic-bezier(0.336,0.168,0.6659,0.4989);
    transform: translate(0,0.3600000000000003px) scaleY(0.99);
  }
  100% {
    transform: translate(0,0px) scaleY(1);
  }
}</style></svg>