<?xml version="1.0" encoding="utf-8"?>
<svg xmlns="http://www.w3.org/2000/svg" style="margin: auto; background: none; display: block; shape-rendering: auto;" width="281" height="71" preserveAspectRatio="xMidYMid">
<style type="text/css">
  text {
    text-anchor: middle; font-size: 42px; opacity: 0;
  }
</style>
<g style="transform-origin:140.5px 35.5px;transform:scale(1)">
<g transform="translate(140.5,35.5)">
  <g transform="translate(0,0)"><g class="path" style="transform: matrix(1, 0, 0, 1, 0, 0); transform-origin: -103.66px -3.37256px; animation: 1s linear -0.612857s infinite normal forwards running bounce-baea6187-5fad-4574-ac11-d6f1aae83674;"><path d="M12.94-0.04L12.94-0.04L10.54-0.08L10.54-0.08Q10.04-0.08 9.53-0.08L9.53-0.08L1.89 0.29L1.89 0.29Q1.26 0.29 1.26-0.13L1.26-0.13L1.26-0.13Q1.26-0.25 1.39-0.71L1.39-0.71L1.39-0.71Q1.81-1.68 2.00-6.85L2.00-6.85L2.00-6.85Q2.18-12.01 2.18-16.28L2.18-16.28L2.18-16.28Q2.18-20.54 2.02-23.18L2.02-23.18L2.02-23.18Q1.76-27.17 1.18-27.97L1.18-27.97L1.18-27.97Q0.71-28.56 0.71-28.73L0.71-28.73L0.71-28.73Q0.71-29.40 2.98-29.90L2.98-29.90L2.98-29.90Q5.25-30.41 6.24-30.41L6.24-30.41L6.24-30.41Q7.22-30.41 7.48-30.30L7.48-30.30L7.48-30.30Q7.73-30.20 7.73-29.86L7.73-29.86L7.73-29.86Q7.73-29.53 7.56-27.72L7.56-27.72L7.56-27.72Q7.14-22.39 7.14-15.31L7.14-15.31L7.14-15.31Q7.14-8.23 7.48-3.99L7.48-3.99L7.48-3.99Q7.48-3.53 8.27-3.19L8.27-3.19L8.27-3.19Q9.07-2.86 10.25-2.86L10.25-2.86L10.25-2.86Q14.36-2.86 14.36-9.20L14.36-9.20L14.36-9.20Q14.36-10.96 14.18-11.38L14.18-11.38L14.18-11.38Q13.99-11.80 13.99-11.93L13.99-11.93L13.99-11.93Q13.99-12.35 14.57-12.35L14.57-12.35L14.57-12.35Q15.04-12.35 15.81-11.89L15.81-11.89L15.81-11.89Q16.59-11.42 17.09-10.73L17.09-10.73L17.09-10.73Q17.60-10.04 18.02-8.55L18.02-8.55L18.02-8.55Q18.44-7.06 18.44-5.04L18.44-5.04L18.44-5.04Q18.44-0.04 17.22-0.04L17.22-0.04L17.22-0.04Q15.08-0.04 12.94-0.04" fill="#00a1d5" stroke="none" stroke-width="none" transform="translate(-113.2349853515625,11.687442861284527)" style="fill: rgb(0, 161, 213);"></path></g><g class="path" style="transform: matrix(1, 0, 0, 1, 0, 0); transform-origin: -85.58px 2.61744px; animation: 1s linear -0.565714s infinite normal forwards running bounce-baea6187-5fad-4574-ac11-d6f1aae83674;"><path d="M24.11-15.83L24.11-15.83L24.11-15.83Q23.02-15.79 22.53-15.77L22.53-15.77L22.53-15.77Q22.05-15.75 22.05-16.00L22.05-16.00L22.05-16.00Q22.05-16.25 22.30-16.51L22.30-16.51L22.30-16.51Q24.99-18.98 31.37-18.98L31.37-18.98L31.37-18.98Q33.56-18.98 34.82-18.61L34.82-18.61L35.24-18.48L35.24-18.48Q35.74-18.27 35.74-18.02L35.74-18.02L35.74-18.02Q35.74-17.81 35.45-17.68L35.45-17.68L35.45-17.68Q34.31-17.35 33.26-16.61L33.26-16.61L33.26-16.61Q32.21-15.88 32.21-15.58L32.21-15.58L32.47-15.29L32.47-15.29Q33.81-14.53 34.55-12.89L34.55-12.89L34.55-12.89Q35.28-11.26 35.36-10.00L35.36-10.00L35.45-8.69L35.45-8.69Q35.45-4.54 33.14-1.85L33.14-1.85L33.14-1.85Q30.83 0.84 26.84 0.84L26.84 0.84L26.84 0.84Q24.82 0.84 23.35 0.13L23.35 0.13L23.35 0.13Q21.88-0.59 21.19-1.49L21.19-1.49L21.19-1.49Q20.50-2.39 20.08-3.53L20.08-3.53L20.08-3.53Q19.57-5.08 19.57-6.74L19.57-6.74L19.57-6.74Q19.57-8.40 20.14-10.08L20.14-10.08L20.14-10.08Q20.71-11.76 21.44-12.56L21.44-12.56L21.44-12.56Q22.18-13.36 23.10-13.86L23.10-13.86L23.10-13.86Q24.28-14.49 24.99-14.49L24.99-14.49L24.99-14.49Q25.70-14.49 25.70-14.20L25.70-14.20L25.45-13.78L25.45-13.78Q24.53-12.68 24.13-10.92L24.13-10.92L24.13-10.92Q23.73-9.16 23.73-7.79L23.73-7.79L23.73-7.79Q23.73-6.43 24.07-5.08L24.07-5.08L24.07-5.08Q24.40-3.74 24.82-3.09L24.82-3.09L24.82-3.09Q25.24-2.44 25.79-2.10L25.79-2.10L25.79-2.10Q26.59-1.60 27.47-1.60L27.47-1.60L27.47-1.60Q28.35-1.60 29.19-2.29L29.19-2.29L29.19-2.29Q30.03-2.98 30.41-4.12L30.41-4.12L30.41-4.12Q31.16-6.22 31.16-8.44L31.16-8.44L31.16-8.44Q31.16-11.97 29.38-13.90L29.38-13.90L29.38-13.90Q27.59-15.83 24.11-15.83" fill="#00a1d5" stroke="none" stroke-width="none" transform="translate(-113.2349853515625,11.687442861284527)" style="fill: rgb(0, 161, 213);"></path></g><g class="path" style="transform: matrix(1, 0, 0, 1, 0, 0); transform-origin: -68.34px 2.47244px; animation: 1s linear -0.518571s infinite normal forwards running bounce-baea6187-5fad-4574-ac11-d6f1aae83674;"><path d="M51.66-12.60L51.66-12.60L51.58-7.22L51.58-7.22Q51.58-1.64 52.79-0.50L52.79-0.50L52.79-0.50Q52.96-0.34 52.96-0.13L52.96-0.13L52.96-0.13Q52.96 0.50 50.25 0.50L50.25 0.50L50.25 0.50Q47.54 0.50 47.38-1.09L47.38-1.09L47.38-1.09Q47.33-1.47 47.33-2.65L47.33-2.65L47.50-9.37L47.50-9.37Q47.50-9.66 47.17-9.66L47.17-9.66L47.17-9.66Q45.15-9.66 43.39-8.53L43.39-8.53L43.39-8.53Q41.62-7.39 41.62-5.63L41.62-5.63L41.62-5.63Q41.62-4.70 42.13-4.07L42.13-4.07L42.13-4.07Q42.63-3.44 43.37-3.44L43.37-3.44L43.37-3.44Q44.10-3.44 44.58-3.74L44.58-3.74L44.58-3.74Q45.07-4.03 45.15-4.07L45.15-4.07L45.15-4.07Q45.86-3.99 45.86-2.58L45.86-2.58L45.86-2.58Q45.86-1.18 44.56-0.32L44.56-0.32L44.56-0.32Q43.26 0.55 41.83 0.55L41.83 0.55L41.83 0.55Q40.40 0.55 39.38 0.04L39.38 0.04L39.38 0.04Q38.35-0.46 37.88-1.09L37.88-1.09L37.88-1.09Q37.42-1.72 37.13-2.52L37.13-2.52L37.13-2.52Q36.83-3.49 36.83-4.20L36.83-4.20L36.83-4.20Q36.83-7.14 38.68-8.90L38.68-8.90L38.68-8.90Q40.53-10.67 43.43-11.42L43.43-11.42L43.43-11.42Q47.25-12.18 47.42-12.81L47.42-12.81L47.42-12.81Q47.54-13.27 47.54-14.36L47.54-14.36L47.54-14.36Q47.54-16.59 45.28-16.59L45.28-16.59L45.28-16.59Q44.31-16.59 43.55-15.98L43.55-15.98L43.55-15.98Q42.80-15.37 42.80-14.45L42.80-14.45L43.05-13.44L43.05-13.44Q42.97-12.73 41.54-12.60L41.54-12.60L41.08-12.56L41.08-12.56Q39.82-12.56 39.08-13.19L39.08-13.19L39.08-13.19Q38.35-13.82 38.35-14.87L38.35-14.87L38.35-14.87Q38.35-15.54 38.79-16.36L38.79-16.36L38.79-16.36Q39.23-17.18 39.90-17.68L39.90-17.68L39.90-17.68Q40.57-18.19 41.98-18.59L41.98-18.59L41.98-18.59Q43.39-18.98 44.69-18.98L44.69-18.98L44.69-18.98Q45.99-18.98 46.70-18.90L46.70-18.90L46.70-18.90Q47.42-18.82 48.66-18.50L48.66-18.50L48.66-18.50Q49.90-18.19 50.72-17.30L50.72-17.30L50.72-17.30Q51.53-16.42 51.60-15.44L51.60-15.44L51.60-15.44Q51.66-14.45 51.66-12.60" fill="#00a1d5" stroke="none" stroke-width="none" transform="translate(-113.2349853515625,11.687442861284527)" style="fill: rgb(0, 161, 213);"></path></g><g class="path" style="transform: matrix(1, 0, 0, 1, 0, 0); transform-origin: -51.41px -2.65256px; animation: 1s linear -0.471429s infinite normal forwards running bounce-baea6187-5fad-4574-ac11-d6f1aae83674;"><path d="M62.62-18.86L62.62-18.86L62.62-18.86Q63.38-18.86 63.99-18.67L63.99-18.67L63.99-18.67Q64.60-18.48 64.64-18.48L64.64-18.48L64.89-18.69L64.72-23.27L64.72-23.27Q64.64-24.44 64.22-25.28L64.22-25.28L64.22-25.28Q63.80-26.12 63.46-26.38L63.46-26.38L63.08-26.59L63.08-26.59Q62.83-26.75 62.83-26.96L62.83-26.96L62.83-26.96Q62.83-27.59 64.78-28.43L64.78-28.43L64.78-28.43Q66.74-29.27 67.83-29.27L67.83-29.27L67.83-29.27Q68.92-29.27 69.01-28.81L69.01-28.81L69.01-28.81Q69.22-27.38 69.22-23.37L69.22-23.37L69.22-23.37Q69.22-19.36 69.03-15.50L69.03-15.50L69.03-15.50Q68.84-11.63 68.84-6.74L68.84-6.74L68.84-6.74Q68.84-1.85 69.47-0.59L69.47-0.59L69.47-0.59Q69.64-0.29 69.64-0.04L69.64-0.04L69.64-0.04Q69.64 0.59 67.83 0.59L67.83 0.59L67.83 0.59Q64.39 0.59 64.39-1.05L64.39-1.05L64.39-1.05Q64.30-1.72 64.30-3.13L64.30-3.13L64.30-3.13Q64.30-4.54 64.58-8.38L64.58-8.38L64.58-8.38Q64.85-12.22 64.85-14.30L64.85-14.30L64.85-14.30Q64.85-16.38 62.77-16.38L62.77-16.38L62.77-16.38Q60.69-16.38 59.60-13.94L59.60-13.94L59.60-13.94Q58.51-11.51 58.51-9.07L58.51-9.07L58.51-9.07Q58.51-3.91 61.11-3.91L61.11-3.91L61.11-3.91Q61.49-3.91 61.85-4.05L61.85-4.05L61.85-4.05Q62.20-4.20 62.29-4.20L62.29-4.20L62.29-4.20Q62.62-4.20 62.81-3.78L62.81-3.78L62.81-3.78Q63-3.36 63-2.94L63-2.94L63-2.94Q63-1.51 61.87-0.53L61.87-0.53L61.87-0.53Q60.73 0.46 59.09 0.46L59.09 0.46L59.09 0.46Q56.57 0.46 55.29-1.74L55.29-1.74L55.29-1.74Q54.01-3.95 54.01-7.22L54.01-7.22L54.01-7.22Q54.01-11.38 55.99-14.95L55.99-14.95L55.99-14.95Q56.99-16.72 58.72-17.79L58.72-17.79L58.72-17.79Q60.44-18.86 62.62-18.86" fill="#00a1d5" stroke="none" stroke-width="none" transform="translate(-113.2349853515625,11.687442861284527)" style="fill: rgb(0, 161, 213);"></path></g><g class="path" style="transform: matrix(1, 0, 0, 1, 0, 0); transform-origin: -38.14px -12.5276px; animation: 1s linear -0.424286s infinite normal forwards running bounce-baea6187-5fad-4574-ac11-d6f1aae83674;"><path d="M75.85-22.47L75.85-22.47L74.84-22.51L74.84-22.51Q73.71-22.51 73.37-21.97L73.37-21.97L73.37-21.97Q73.29-21.84 73.16-21.84L73.16-21.84L73.16-21.84Q72.62-21.84 72.62-23.71L72.62-23.71L72.62-23.71Q72.62-25.58 73.19-26.08L73.19-26.08L73.19-26.08Q73.75-26.59 75.16-26.59L75.16-26.59L75.16-26.59Q76.57-26.59 77.07-26.10L77.07-26.10L77.07-26.10Q77.57-25.62 77.57-24.49L77.57-24.49L77.57-24.49Q77.57-23.35 77.20-22.91L77.20-22.91L77.20-22.91Q76.82-22.47 75.85-22.47" fill="#00a1d5" stroke="none" stroke-width="none" transform="translate(-113.2349853515625,11.687442861284527)" style="fill: rgb(0, 161, 213);"></path></g><g class="path" style="transform: matrix(1, 0, 0, 1, 0, 0); transform-origin: -38.685px 2.67744px; animation: 1s linear -0.377143s infinite normal forwards running bounce-baea6187-5fad-4574-ac11-d6f1aae83674;"><path d="M72.49-1.26L72.49-1.26L72.95-11.05L72.95-11.05Q72.95-14.53 72.16-15.79L72.16-15.79L72.16-15.79Q71.90-16.21 71.57-16.42L71.57-16.42L71.57-16.42Q71.32-16.51 71.32-16.76L71.32-16.76L71.32-16.76Q71.32-17.51 73.46-18.23L73.46-18.23L73.46-18.23Q75.60-18.94 76.59-18.94L76.59-18.94L76.59-18.94Q77.57-18.94 77.62-18.44L77.62-18.44L77.62-18.44Q77.62-17.60 77.39-13.67L77.39-13.67L77.39-13.67Q77.15-9.74 77.15-5.42L77.15-5.42L77.15-5.42Q77.15-1.09 77.66-0.04L77.66-0.04L77.66-0.04Q77.78 0.17 77.78 0.38L77.78 0.38L77.78 0.38Q77.78 0.92 76.19 0.92L76.19 0.92L76.19 0.92Q74.59 0.92 72.91 0.08L72.91 0.08L72.91 0.08Q72.49-0.13 72.49-1.26" fill="#00a1d5" stroke="none" stroke-width="none" transform="translate(-113.2349853515625,11.687442861284527)" style="fill: rgb(0, 161, 213);"></path></g><g class="path" style="transform: matrix(1, 0, 0, 1, 0, 0); transform-origin: -25.2px 2.51244px; animation: 1s linear -0.33s infinite normal forwards running bounce-baea6187-5fad-4574-ac11-d6f1aae83674;"><path d="M80.35 0.29L80.35 0.29L80.35 0.29Q81.10-4.24 81.10-10.58L81.10-10.58L81.10-10.58Q81.10-16.93 80.72-18.82L80.72-18.82L80.72-18.82Q80.72-19.36 81.98-19.36L81.98-19.36L81.98-19.36Q83.92-19.36 84.55-17.89L84.55-17.89L84.55-17.89Q84.59-17.77 84.76-17.77L84.76-17.77L84.76-17.77Q84.92-17.77 85.01-17.85L85.01-17.85L85.01-17.85Q86.31-19.19 89.04-19.19L89.04-19.19L89.04-19.19Q91.77-19.19 93.37-17.81L93.37-17.81L93.37-17.81Q94.96-16.42 94.96-13.78L94.96-13.78L94.96-13.78Q94.96-12.18 94.69-9.24L94.69-9.24L94.69-9.24Q94.42-6.30 94.42-4.87L94.42-4.87L94.42-4.87Q94.42-1.47 95.55 0.04L95.55 0.04L95.55 0.04Q95.72 0.25 95.72 0.46L95.72 0.46L95.72 0.46Q95.72 1.01 94.54 1.01L94.54 1.01L94.54 1.01Q89.33 1.01 89.33-3.61L89.33-3.61L89.33-3.61Q89.33-5.38 90.13-8.53L90.13-8.53L90.13-8.53Q90.93-11.68 90.93-13.31L90.93-13.31L90.93-13.31Q90.93-16.67 88.16-16.67L88.16-16.67L88.16-16.67Q86.81-16.67 86.12-15.88L86.12-15.88L86.12-15.88Q85.43-15.08 85.34-14.05L85.34-14.05L85.34-14.05Q85.26-13.02 85.26-10.16L85.26-10.16L85.26-10.16Q85.26-5.80 85.55-2.56L85.55-2.56L85.64-1.64L85.64-1.64Q85.64-0.46 84.11 0.19L84.11 0.19L84.11 0.19Q82.57 0.84 81.46 0.84L81.46 0.84L81.46 0.84Q80.35 0.84 80.35 0.29" fill="#00a1d5" stroke="none" stroke-width="none" transform="translate(-113.2349853515625,11.687442861284527)" style="fill: rgb(0, 161, 213);"></path></g><g class="path" style="transform: matrix(1, 0, 0, 1, 0, 0); transform-origin: -8.96999px 8.53744px; animation: 1s linear -0.282857s infinite normal forwards running bounce-baea6187-5fad-4574-ac11-d6f1aae83674;"><path d="M99.88-16.95L99.88-16.95L99.88-16.95Q100.80-17.89 102.31-18.54L102.31-18.54L102.31-18.54Q103.82-19.19 105.21-19.19L105.21-19.19L105.21-19.19Q106.60-19.19 108.02-18.56L108.02-18.56L108.02-18.56Q108.19-18.56 108.28-18.65L108.28-18.65L108.28-18.65Q109.37-19.74 111.47-19.74L111.47-19.74L111.47-19.74Q111.97-19.74 111.97-19.28L111.97-19.28L111.97-19.28Q111.97-19.24 111.89-18.90L111.89-18.90L111.89-18.90Q111.80-18.56 111.68-17.91L111.68-17.91L111.68-17.91Q111.55-17.26 111.47-16.34L111.47-16.34L111.47-16.34Q111.17-13.94 111.15-11.05L111.15-11.05L111.15-11.05Q111.13-8.15 111.13-5.25L111.13-5.25L111.26 3.57L111.26 3.57Q111.26 7.81 109.07 10.63L109.07 10.63L109.07 10.63Q108.19 11.76 106.41 12.60L106.41 12.60L106.41 12.60Q104.62 13.44 102.23 13.44L102.23 13.44L102.23 13.44Q101.68 13.10 101.68 12.77L101.68 12.77L101.68 12.77Q101.68 12.43 102.14 12.22L102.14 12.22L102.14 12.22Q104.79 11.00 105.92 6.45L105.92 6.45L105.92 6.45Q107.06 1.89 107.06-7.39L107.06-7.39L106.97-13.27L106.85-16.13L106.85-16.13Q106.85-16.51 105.67-16.67L105.67-16.67L105.67-16.67Q104.16-16.67 103.13-15.69L103.13-15.69L103.13-15.69Q102.10-14.70 101.72-13.10L101.72-13.10L101.72-13.10Q101.05-10.54 101.05-8.67L101.05-8.67L101.05-8.67Q101.05-6.80 101.66-5.38L101.66-5.38L101.66-5.38Q102.27-3.95 103.78-3.95L103.78-3.95L103.78-3.95Q104.20-3.95 104.56-4.12L104.56-4.12L104.56-4.12Q104.92-4.28 105.04-4.28L105.04-4.28L105.04-4.28Q105.46-4.28 105.46-3.44L105.46-3.44L105.46-3.44Q105.46-2.60 105.34-2.08L105.34-2.08L105.34-2.08Q105.21-1.55 104.83-0.92L104.83-0.92L104.83-0.92Q103.99 0.46 101.56 0.46L101.56 0.46L101.56 0.46Q99.12 0.46 98.07-1.30L98.07-1.30L98.07-1.30Q96.98-3.11 96.81-4.54L96.81-4.54L96.81-4.54Q96.56-6.68 96.56-7.35L96.56-7.35L96.56-7.35Q96.56-8.02 96.58-8.42L96.58-8.42L96.58-8.42Q96.60-8.82 96.79-10.02L96.79-10.02L96.79-10.02Q96.98-11.21 97.29-12.29L97.29-12.29L97.29-12.29Q97.61-13.36 98.28-14.68L98.28-14.68L98.28-14.68Q98.95-16.00 99.88-16.95" fill="#00a1d5" stroke="none" stroke-width="none" transform="translate(-113.2349853515625,11.687442861284527)" style="fill: rgb(0, 161, 213);"></path></g><g class="path" style="transform: matrix(1, 0, 0, 1, 0, 0); transform-origin: 19.15px -3.15756px; animation: 1s linear -0.235714s infinite normal forwards running bounce-baea6187-5fad-4574-ac11-d6f1aae83674;"><path d="M132.34-24.07L132.34-24.07L132.34-24.07Q129.02-19.91 127.55-15.75L127.55-15.75L127.60-15.75L127.60-15.75Q133.43-15.75 134.30-15.73L134.30-15.73L134.30-15.73Q135.16-15.71 135.24-15.79L135.24-15.79L135.24-15.79Q135.32-15.88 135.37-16.00L135.37-16.00L135.37-16.00Q134.65-21.17 134.23-23.04L134.23-23.04L134.23-23.04Q133.81-24.91 133.39-24.91L133.39-24.91L133.39-24.91Q132.97-24.91 132.34-24.07zM128.60-4.28L128.60-4.28L129.53-4.45L129.53-4.45Q129.95-4.45 129.95-3.99L129.95-3.99L129.95-3.99Q129.95-2.52 129.36-1.51L129.36-1.51L129.36-1.51Q128.77-0.50 127.89-0.08L127.89-0.08L127.89-0.08Q126.46 0.63 125.45 0.63L125.45 0.63L125.45 0.63Q123.52 0.63 122.56-0.82L122.56-0.82L122.56-0.82Q121.59-2.27 121.59-5.19L121.59-5.19L121.59-5.19Q121.59-8.11 123.19-12.77L123.19-12.77L120.75-12.77L120.75-12.77Q120.29-12.77 120.29-13.23L120.29-13.23L120.29-13.23Q120.29-13.69 121.00-14.72L121.00-14.72L121.00-14.72Q121.72-15.75 122.51-15.75L122.51-15.75L124.40-15.75L124.40-15.75Q127.39-22.39 131.42-27.22L131.42-27.22L131.42-27.22Q132.47-28.48 134.00-29.57L134.00-29.57L134.00-29.57Q135.53-30.66 136.37-30.66L136.37-30.66L136.37-30.66Q137.21-30.66 137.63-29.90L137.63-29.90L137.63-29.90Q138.73-28.14 140.20-17.01L140.20-17.01L140.20-17.01Q140.70-12.22 141.94-7.12L141.94-7.12L141.94-7.12Q143.18-2.02 144.23-1.18L144.23-1.18L144.23-1.18Q144.48-1.01 144.48-0.76L144.48-0.76L144.48-0.76Q144.48-0.13 142.70 0.42L142.70 0.42L142.70 0.42Q140.91 0.97 139.97 0.97L139.97 0.97L139.97 0.97Q139.02 0.97 138.52 0.74L138.52 0.74L138.52 0.74Q138.01 0.50 137.89 0.25L137.89 0.25L137.89 0.25Q137.13-1.39 136.37-7.56L136.37-7.56L136.12-9.53L136.12-9.53Q135.95-11.51 135.79-12.52L135.79-12.52L135.49-12.73L126.71-12.77L126.71-12.77Q126.21-10.63 126.21-9.03L126.21-9.03L126.21-9.03Q126.21-7.43 126.32-6.70L126.32-6.70L126.32-6.70Q126.42-5.96 127.01-5.12L127.01-5.12L127.01-5.12Q127.60-4.28 128.60-4.28" fill="#00a1d5" stroke="none" stroke-width="none" transform="translate(-113.2349853515625,11.687442861284527)" style="fill: rgb(0, 161, 213);"></path></g><g class="path" style="transform: matrix(1, 0, 0, 1, 0, 0); transform-origin: 34.94px -2.42256px; animation: 1s linear -0.188571s infinite normal forwards running bounce-baea6187-5fad-4574-ac11-d6f1aae83674;"><path d="M151.16-24.02L151.16-24.02L150.91-8.61L150.91-8.61Q150.91-1.39 151.37 0.04L151.37 0.04L151.37 0.04Q151.49 0.29 151.49 0.55L151.49 0.55L151.49 0.55Q151.49 1.05 150.28 1.05L150.28 1.05L150.28 1.05Q149.06 1.05 147.57 0.44L147.57 0.44L147.57 0.44Q146.08-0.17 146.08-1.13L146.08-1.13L146.08-1.13Q146.92-7.01 146.92-16.84L146.92-16.84L146.75-23.27L146.75-23.27Q146.66-24.44 146.27-25.28L146.27-25.28L146.27-25.28Q145.87-26.12 145.49-26.38L145.49-26.38L145.15-26.59L145.15-26.59Q144.86-26.75 144.86-26.96L144.86-26.96L144.86-26.96Q144.86-27.55 146.69-28.41L146.69-28.41L146.69-28.41Q148.51-29.27 150.23-29.27L150.23-29.27L150.23-29.27Q150.91-29.27 150.99-28.81L150.99-28.81L150.99-28.81Q151.16-27.72 151.16-24.02" fill="#00a1d5" stroke="none" stroke-width="none" transform="translate(-113.2349853515625,11.687442861284527)" style="fill: rgb(0, 161, 213);"></path></g><g class="path" style="transform: matrix(1, 0, 0, 1, 0, 0); transform-origin: 48.105px -2.53256px; animation: 1s linear -0.141429s infinite normal forwards running bounce-baea6187-5fad-4574-ac11-d6f1aae83674;"><path d="M162.50-14.49L162.50-14.49L161.53-14.24L161.53-14.24Q160.78-14.24 160.78-15.65L160.78-15.65L160.78-15.65Q160.78-17.05 161.81-17.91L161.81-17.91L161.81-17.91Q162.83-18.77 164.43-18.77L164.43-18.77L164.43-18.77Q165.31-18.77 166.32-18.25L166.32-18.25L166.32-18.25Q167.33-17.72 168.00-16.95L168.00-16.95L168.00-16.95Q168.67-16.17 169.20-14.51L169.20-14.51L169.20-14.51Q169.72-12.85 169.72-10.63L169.72-10.63L169.72-10.63Q169.72-5.50 166.97-2.31L166.97-2.31L166.97-2.31Q164.22 0.88 159.01 0.88L159.01 0.88L159.01 0.88Q157.50 0.88 156.03 0.59L156.03 0.59L155.61 0.50L155.61 0.50Q155.06 0.34 154.98-0.08L154.98-0.08L154.98-0.08Q154.85-0.97 154.85-4.24L154.85-4.24L155.11-17.85L155.11-17.85Q155.11-21 154.94-22.68L154.94-22.68L154.85-23.27L154.85-23.27Q154.77-24.44 154.37-25.28L154.37-25.28L154.37-25.28Q153.97-26.12 153.59-26.38L153.59-26.38L153.26-26.59L153.26-26.59Q152.96-26.75 152.96-26.96L152.96-26.96L152.96-26.96Q152.96-27.59 155.06-28.46L155.06-28.46L155.06-28.46Q157.16-29.32 158.13-29.32L158.13-29.32L158.13-29.32Q159.10-29.32 159.14-28.81L159.14-28.81L159.14-28.81Q159.43-26.25 159.43-21.50L159.43-21.50L159.22-11.42L159.22-11.42Q159.22-4.83 159.60-2.31L159.60-2.31L159.60-2.31Q159.64-1.72 160.92-1.72L160.92-1.72L160.92-1.72Q162.20-1.72 163.13-2.44L163.13-2.44L163.13-2.44Q164.05-3.15 164.51-4.33L164.51-4.33L164.51-4.33Q165.35-6.47 165.35-9.07L165.35-9.07L165.35-9.07Q165.35-10.29 165.02-11.72L165.02-11.72L165.02-11.72Q164.43-14.49 162.50-14.49" fill="#00a1d5" stroke="none" stroke-width="none" transform="translate(-113.2349853515625,11.687442861284527)" style="fill: rgb(0, 161, 213);"></path></g><g class="path" style="transform: matrix(1, 0, 0, 1, 0, 0); transform-origin: 65.81px 2.47244px; animation: 1s linear -0.0942857s infinite normal forwards running bounce-baea6187-5fad-4574-ac11-d6f1aae83674;"><path d="M186.48-18.69L186.48-18.69L186.48-18.69Q185.72-14.15 185.72-7.14L185.72-7.14L185.72-7.14Q185.72-1.97 186.14-0.34L186.14-0.34L186.31 0.21L186.31 0.21Q186.31 0.76 185.39 0.76L185.39 0.76L185.39 0.76Q182.15 0.76 181.69-1.05L181.69-1.05L181.69-1.05Q181.65-1.26 181.50-1.26L181.50-1.26L181.50-1.26Q181.36-1.26 181.23-1.09L181.23-1.09L181.23-1.09Q179.93 0.63 177.20 0.63L177.20 0.63L177.20 0.63Q175.69 0.63 174.05-0.13L174.05-0.13L174.05-0.13Q173.04-0.59 172.41-1.74L172.41-1.74L172.41-1.74Q171.78-2.90 171.78-4.58L171.78-4.58L172.41-13.78L172.41-13.78Q172.41-16.67 171.82-17.89L171.82-17.89L171.82-17.89Q171.61-18.35 171.61-18.48L171.61-18.48L171.61-18.48Q171.61-18.73 171.82-18.82L171.82-18.82L171.82-18.82Q172.49-19.03 173.54-19.03L173.54-19.03L173.54-19.03Q177.62-19.03 177.62-15.67L177.62-15.67L177.62-15.67Q177.62-14.62 176.76-10.88L176.76-10.88L176.76-10.88Q175.90-7.14 175.90-5.57L175.90-5.57L175.90-5.57Q175.90-3.99 176.59-3.15L176.59-3.15L176.59-3.15Q177.28-2.31 178.52-2.31L178.52-2.31L178.52-2.31Q179.76-2.31 180.47-3.19L180.47-3.19L180.47-3.19Q181.19-4.07 181.31-4.96L181.31-4.96L181.44-5.84L181.44-5.84Q181.61-7.31 181.61-11.00L181.61-11.00L181.61-11.00Q181.61-14.70 181.38-15.69L181.38-15.69L181.38-15.69Q181.15-16.67 181.15-16.93L181.15-16.93L181.15-16.93Q181.15-17.98 182.83-18.59L182.83-18.59L182.83-18.59Q184.51-19.19 185.85-19.19L185.85-19.19L185.85-19.19Q186.48-19.19 186.48-18.69" fill="#00a1d5" stroke="none" stroke-width="none" transform="translate(-113.2349853515625,11.687442861284527)" style="fill: rgb(0, 161, 213);"></path></g><g class="path" style="transform: matrix(1, 0, 0, 1, 0, 0); transform-origin: 87.525px 2.53244px; animation: 1s linear -0.0471429s infinite normal forwards running bounce-baea6187-5fad-4574-ac11-d6f1aae83674;"><path d="M197.99 0.25L197.99 0.25L197.99 0.25Q198.58-2.69 198.58-8.00L198.58-8.00L198.58-8.00Q198.58-13.31 198.53-14.28L198.53-14.28L198.53-14.28Q198.49-15.25 197.95-15.83L197.95-15.83L197.95-15.83Q197.40-16.42 197.00-16.51L197.00-16.51L197.00-16.51Q196.60-16.59 195.89-16.59L195.89-16.59L195.89-16.59Q195.17-16.59 194.50-15.94L194.50-15.94L194.50-15.94Q193.83-15.29 193.70-14.62L193.70-14.62L193.54-13.94L193.54-13.94Q193.41-12.68 193.41-8.36L193.41-8.36L193.41-8.36Q193.41-4.03 193.60-2.92L193.60-2.92L193.60-2.92Q193.79-1.81 193.79-1.43L193.79-1.43L193.79-1.43Q193.79-1.05 193.45-0.67L193.45-0.67L193.45-0.67Q192.02 0.84 189.42 0.84L189.42 0.84L189.42 0.84Q188.50 0.84 188.50 0.29L188.50 0.29L188.50 0.29Q189.34-4.75 189.34-12.56L189.34-12.56L189.34-12.56Q189.34-15.46 189.21-16.46L189.21-16.46L189.04-17.81L189.04-17.81Q189.00-18.27 188.87-18.82L188.87-18.82L188.87-18.82Q188.87-19.32 190.18-19.32L190.18-19.32L190.18-19.32Q192.11-19.32 192.74-17.89L192.74-17.89L192.74-17.89Q192.78-17.72 192.91-17.72L192.91-17.72L192.91-17.72Q193.03-17.72 193.49-18.06L193.49-18.06L193.49-18.06Q194.88-19.15 197.23-19.15L197.23-19.15L197.23-19.15Q198.58-19.15 199.88-18.65L199.88-18.65L199.88-18.65Q201.18-18.14 201.68-17.30L201.68-17.30L201.68-17.30Q201.73-17.22 201.81-17.22L201.81-17.22L201.81-17.22Q201.89-17.22 202.06-17.39L202.06-17.39L202.06-17.39Q203.83-19.15 206.64-19.15L206.64-19.15L206.64-19.15Q210.38-19.15 211.76-16.46L211.76-16.46L211.76-16.46Q212.27-15.41 212.27-13.82L212.27-13.82L212.27-13.82Q212.27-12.22 212.02-9.28L212.02-9.28L212.02-9.28Q211.76-6.34 211.76-4.79L211.76-4.79L211.76-4.79Q211.76-3.23 212.08-1.97L212.08-1.97L212.08-1.97Q212.39-0.71 212.71-0.17L212.71-0.17L212.71-0.17Q213.02 0.38 213.02 0.46L213.02 0.46L213.02 0.46Q213.02 1.01 211.85 1.01L211.85 1.01L211.85 1.01Q208.95 1.01 207.82-0.17L207.82-0.17L207.82-0.17Q206.68-1.34 206.68-3.26L206.68-3.26L206.68-3.26Q206.68-5.17 207.46-8.42L207.46-8.42L207.46-8.42Q208.24-11.68 208.24-13.31L208.24-13.31L208.24-13.31Q208.24-16.63 205.55-16.63L205.55-16.63L205.55-16.63Q204.41-16.63 203.74-15.96L203.74-15.96L203.74-15.96Q203.07-15.29 202.94-14.62L202.94-14.62L202.86-13.94L202.86-13.94Q202.69-12.01 202.69-9.28L202.69-9.28L202.69-9.28Q202.69-6.55 202.78-5.02L202.78-5.02L202.78-5.02Q202.86-3.49 202.94-2.63L202.94-2.63L202.94-2.63Q203.03-1.76 203.03-1.60L203.03-1.60L203.03-1.60Q203.03-0.42 201.56 0.21L201.56 0.21L201.56 0.21Q200.09 0.84 198.70 0.84L198.70 0.84L198.70 0.84Q197.99 0.84 197.99 0.25" fill="#00a1d5" stroke="none" stroke-width="none" transform="translate(-113.2349853515625,11.687442861284527)" style="fill: rgb(0, 161, 213);"></path></g><g class="path" style="transform: matrix(1, 0, 0, 1, 0, 0); transform-origin: 107.14px 2.61244px; animation: 1s linear 0s infinite normal forwards running bounce-baea6187-5fad-4574-ac11-d6f1aae83674;"><path d="M227.18-5.75L227.18-5.75L227.18-5.75Q227.18-3.95 226.49-2.60L226.49-2.60L226.49-2.60Q225.79-1.26 224.91-0.63L224.91-0.63L224.91-0.63Q224.03 0 222.81 0.38L222.81 0.38L222.81 0.38Q221.21 0.88 219.91 0.88L219.91 0.88L219.91 0.88Q217.18 0.88 215.38-0.19L215.38-0.19L215.38-0.19Q213.57-1.26 213.57-3.61L213.57-3.61L213.57-3.61Q213.57-5.00 214.33-5.88L214.33-5.88L214.33-5.88Q215.50-7.18 217.14-7.18L217.14-7.18L217.14-7.18Q217.64-7.18 217.64-6.72L217.64-6.72L217.64-6.72Q217.64-6.68 217.46-6.07L217.46-6.07L217.46-6.07Q217.27-5.46 217.27-4.54L217.27-4.54L217.27-4.54Q217.27-3.61 218.00-2.90L218.00-2.90L218.00-2.90Q218.74-2.18 219.79-2.18L219.79-2.18L219.79-2.18Q220.84-2.18 221.47-2.54L221.47-2.54L221.47-2.54Q222.10-2.90 222.35-3.44L222.35-3.44L222.35-3.44Q222.73-4.20 222.73-4.87L222.73-4.87L222.73-4.87Q222.73-6.09 221.51-6.97L221.51-6.97L221.51-6.97Q220.29-7.85 218.82-8.36L218.82-8.36L218.82-8.36Q217.35-8.86 216.13-10.04L216.13-10.04L216.13-10.04Q214.91-11.21 214.91-12.98L214.91-12.98L214.91-12.98Q214.91-16.00 216.83-17.51L216.83-17.51L216.83-17.51Q218.74-19.03 222.01-19.03L222.01-19.03L222.01-19.03Q223.44-19.03 225.02-18.63L225.02-18.63L225.02-18.63Q226.59-18.23 226.59-17.28L226.59-17.28L226.59-17.28Q226.59-16.34 226.28-15.54L226.28-15.54L226.28-15.54Q225.96-14.74 225.50-14.74L225.50-14.74L225.50-14.74Q225.25-14.74 225.16-14.93L225.16-14.93L225.16-14.93Q225.08-15.12 224.87-15.37L224.87-15.37L224.87-15.37Q224.66-15.62 223.86-16.02L223.86-16.02L223.86-16.02Q223.06-16.42 222.50-16.42L222.50-16.42L222.50-16.42Q221.93-16.42 221.74-16.40L221.74-16.40L221.74-16.40Q221.55-16.38 221.09-16.28L221.09-16.28L221.09-16.28Q220.63-16.17 220.25-15.96L220.25-15.96L220.25-15.96Q219.28-15.41 219.28-14.36L219.28-14.36L219.28-14.36Q219.28-13.69 219.58-13.38L219.58-13.38L219.58-13.38Q219.87-13.06 220.04-12.89L220.04-12.89L220.04-12.89Q220.21-12.73 220.63-12.50L220.63-12.50L220.63-12.50Q221.05-12.26 221.21-12.18L221.21-12.18L221.21-12.18Q221.38-12.10 221.97-11.82L221.97-11.82L221.97-11.82Q222.56-11.55 222.73-11.47L222.73-11.47L222.73-11.47Q227.18-9.37 227.18-5.75" fill="#00a1d5" stroke="none" stroke-width="none" transform="translate(-113.2349853515625,11.687442861284527)" style="fill: rgb(0, 161, 213);"></path></g></g>
</g>
</g>
<style id="bounce-baea6187-5fad-4574-ac11-d6f1aae83674" data-anikit="">@keyframes bounce-baea6187-5fad-4574-ac11-d6f1aae83674
{
  0% {
    animation-timing-function: cubic-bezier(0.1361,0.2514,0.2175,0.8786);
    transform: translate(0,0px) scaleY(1);
  }
  37% {
    animation-timing-function: cubic-bezier(0.7674,0.1844,0.8382,0.7157);
    transform: translate(0,-6.993px) scaleY(1);
  }
  72% {
    animation-timing-function: cubic-bezier(0.3337,0.6674,0.6634,1);
    transform: translate(0,0px) scaleY(1);
  }
  87% {
    animation-timing-function: cubic-bezier(0.336,0.168,0.6659,0.4989);
    transform: translate(0,0.3600000000000003px) scaleY(0.99);
  }
  100% {
    transform: translate(0,0px) scaleY(1);
  }
}</style></svg>