<?xml version="1.0" encoding="utf-8"?>
<svg xmlns="http://www.w3.org/2000/svg" style="margin: auto; background: none; display: block; shape-rendering: auto;" width="281" height="71" preserveAspectRatio="xMidYMid">
<style type="text/css">
  text {
    text-anchor: middle; font-size: 50px; opacity: 0;
  }
</style>
<g style="transform-origin: 140.5px 35.5px; transform: scale(1.13636);">
<g transform="translate(140.5,35.5)">
  <g transform="translate(0,0)"><g class="path" style="transform: matrix(1, 0, 0, 1, 0, 0); transform-origin: -97.83px -3.27447px; animation: 1s linear -0.609231s infinite normal forwards running bounce-baea6187-5fad-4574-ac11-d6f1aae83674;"><path d="M13.55-0.04L13.55-0.04L11.04-0.09L11.04-0.09Q10.52-0.09 9.99-0.09L9.99-0.09L1.98 0.31L1.98 0.31Q1.32 0.31 1.32-0.13L1.32-0.13L1.32-0.13Q1.32-0.26 1.45-0.75L1.45-0.75L1.45-0.75Q1.89-1.76 2.09-7.17L2.09-7.17L2.09-7.17Q2.29-12.58 2.29-17.05L2.29-17.05L2.29-17.05Q2.29-21.52 2.11-24.29L2.11-24.29L2.11-24.29Q1.85-28.47 1.23-29.30L1.23-29.30L1.23-29.30Q0.75-29.92 0.75-30.10L0.75-30.10L0.75-30.10Q0.75-30.80 3.12-31.33L3.12-31.33L3.12-31.33Q5.50-31.86 6.53-31.86L6.53-31.86L6.53-31.86Q7.57-31.86 7.83-31.75L7.83-31.75L7.83-31.75Q8.10-31.64 8.10-31.28L8.10-31.28L8.10-31.28Q8.10-30.93 7.92-29.04L7.92-29.04L7.92-29.04Q7.48-23.45 7.48-16.04L7.48-16.04L7.48-16.04Q7.48-8.62 7.83-4.18L7.83-4.18L7.83-4.18Q7.83-3.70 8.67-3.34L8.67-3.34L8.67-3.34Q9.50-2.99 10.74-2.99L10.74-2.99L10.74-2.99Q15.05-2.99 15.05-9.64L15.05-9.64L15.05-9.64Q15.05-11.48 14.85-11.92L14.85-11.92L14.85-11.92Q14.65-12.36 14.65-12.50L14.65-12.50L14.65-12.50Q14.65-12.94 15.27-12.94L15.27-12.94L15.27-12.94Q15.75-12.94 16.57-12.45L16.57-12.45L16.57-12.45Q17.38-11.97 17.91-11.24L17.91-11.24L17.91-11.24Q18.44-10.52 18.88-8.95L18.88-8.95L18.88-8.95Q19.32-7.39 19.32-5.28L19.32-5.28L19.32-5.28Q19.32-0.04 18.04-0.04L18.04-0.04L18.04-0.04Q15.80-0.04 13.55-0.04" fill="#00a1d5" stroke="none" stroke-width="none" transform="translate(-107.864990234375,12.5005329308143)" style="fill: rgb(0, 161, 213);"></path></g><g class="path" style="transform: matrix(1, 0, 0, 1, 0, 0); transform-origin: -78.895px 2.99553px; animation: 1s linear -0.558462s infinite normal forwards running bounce-baea6187-5fad-4574-ac11-d6f1aae83674;"><path d="M25.26-16.59L25.26-16.59L25.26-16.59Q24.11-16.54 23.61-16.52L23.61-16.52L23.61-16.52Q23.10-16.50 23.10-16.76L23.10-16.76L23.10-16.76Q23.10-17.03 23.36-17.29L23.36-17.29L23.36-17.29Q26.18-19.89 32.87-19.89L32.87-19.89L32.87-19.89Q35.16-19.89 36.48-19.49L36.48-19.49L36.92-19.36L36.92-19.36Q37.44-19.14 37.44-18.88L37.44-18.88L37.44-18.88Q37.44-18.66 37.14-18.52L37.14-18.52L37.14-18.52Q35.95-18.17 34.85-17.40L34.85-17.40L34.85-17.40Q33.75-16.63 33.75-16.32L33.75-16.32L34.01-16.02L34.01-16.02Q35.42-15.22 36.19-13.51L36.19-13.51L36.19-13.51Q36.96-11.79 37.05-10.47L37.05-10.47L37.14-9.11L37.14-9.11Q37.14-4.75 34.72-1.94L34.72-1.94L34.72-1.94Q32.30 0.88 28.12 0.88L28.12 0.88L28.12 0.88Q26.00 0.88 24.46 0.13L24.46 0.13L24.46 0.13Q22.92-0.62 22.20-1.56L22.20-1.56L22.20-1.56Q21.47-2.51 21.03-3.70L21.03-3.70L21.03-3.70Q20.50-5.32 20.50-7.06L20.50-7.06L20.50-7.06Q20.50-8.80 21.10-10.56L21.10-10.56L21.10-10.56Q21.69-12.32 22.46-13.16L22.46-13.16L22.46-13.16Q23.23-13.99 24.20-14.52L24.20-14.52L24.20-14.52Q25.43-15.18 26.18-15.18L26.18-15.18L26.18-15.18Q26.93-15.18 26.93-14.87L26.93-14.87L26.66-14.43L26.66-14.43Q25.70-13.29 25.28-11.44L25.28-11.44L25.28-11.44Q24.86-9.59 24.86-8.16L24.86-8.16L24.86-8.16Q24.86-6.73 25.21-5.32L25.21-5.32L25.21-5.32Q25.56-3.92 26.00-3.23L26.00-3.23L26.00-3.23Q26.44-2.55 27.02-2.20L27.02-2.20L27.02-2.20Q27.85-1.67 28.78-1.67L28.78-1.67L28.78-1.67Q29.70-1.67 30.58-2.40L30.58-2.40L30.58-2.40Q31.46-3.12 31.86-4.31L31.86-4.31L31.86-4.31Q32.65-6.51 32.65-8.84L32.65-8.84L32.65-8.84Q32.65-12.54 30.78-14.56L30.78-14.56L30.78-14.56Q28.91-16.59 25.26-16.59" fill="#00a1d5" stroke="none" stroke-width="none" transform="translate(-107.864990234375,12.5005329308143)" style="fill: rgb(0, 161, 213);"></path></g><g class="path" style="transform: matrix(1, 0, 0, 1, 0, 0); transform-origin: -60.83px 2.84053px; animation: 1s linear -0.507692s infinite normal forwards running bounce-baea6187-5fad-4574-ac11-d6f1aae83674;"><path d="M54.12-13.20L54.12-13.20L54.03-7.57L54.03-7.57Q54.03-1.72 55.31-0.53L55.31-0.53L55.31-0.53Q55.48-0.35 55.48-0.13L55.48-0.13L55.48-0.13Q55.48 0.53 52.65 0.53L52.65 0.53L52.65 0.53Q49.81 0.53 49.63-1.14L49.63-1.14L49.63-1.14Q49.59-1.54 49.59-2.77L49.59-2.77L49.76-9.81L49.76-9.81Q49.76-10.12 49.41-10.12L49.41-10.12L49.41-10.12Q47.30-10.12 45.45-8.93L45.45-8.93L45.45-8.93Q43.60-7.74 43.60-5.90L43.60-5.90L43.60-5.90Q43.60-4.93 44.13-4.27L44.13-4.27L44.13-4.27Q44.66-3.61 45.43-3.61L45.43-3.61L45.43-3.61Q46.20-3.61 46.71-3.92L46.71-3.92L46.71-3.92Q47.21-4.22 47.30-4.27L47.30-4.27L47.30-4.27Q48.05-4.18 48.05-2.71L48.05-2.71L48.05-2.71Q48.05-1.23 46.68-0.33L46.68-0.33L46.68-0.33Q45.32 0.57 43.82 0.57L43.82 0.57L43.82 0.57Q42.33 0.57 41.25 0.04L41.25 0.04L41.25 0.04Q40.17-0.48 39.69-1.14L39.69-1.14L39.69-1.14Q39.20-1.80 38.90-2.64L38.90-2.64L38.90-2.64Q38.59-3.65 38.59-4.40L38.59-4.40L38.59-4.40Q38.59-7.48 40.52-9.33L40.52-9.33L40.52-9.33Q42.46-11.18 45.50-11.97L45.50-11.97L45.50-11.97Q49.50-12.76 49.68-13.42L49.68-13.42L49.68-13.42Q49.81-13.90 49.81-15.05L49.81-15.05L49.81-15.05Q49.81-17.38 47.43-17.38L47.43-17.38L47.43-17.38Q46.42-17.38 45.63-16.74L45.63-16.74L45.63-16.74Q44.84-16.10 44.84-15.14L44.84-15.14L45.10-14.08L45.10-14.08Q45.01-13.33 43.52-13.20L43.52-13.20L43.03-13.16L43.03-13.16Q41.71-13.16 40.94-13.82L40.94-13.82L40.94-13.82Q40.17-14.48 40.17-15.58L40.17-15.58L40.17-15.58Q40.17-16.28 40.63-17.14L40.63-17.14L40.63-17.14Q41.10-18.00 41.80-18.52L41.80-18.52L41.80-18.52Q42.50-19.05 43.98-19.47L43.98-19.47L43.98-19.47Q45.45-19.89 46.82-19.89L46.82-19.89L46.82-19.89Q48.18-19.89 48.93-19.80L48.93-19.80L48.93-19.80Q49.68-19.71 50.97-19.38L50.97-19.38L50.97-19.38Q52.27-19.05 53.13-18.13L53.13-18.13L53.13-18.13Q53.99-17.20 54.05-16.17L54.05-16.17L54.05-16.17Q54.12-15.14 54.12-13.20" fill="#00a1d5" stroke="none" stroke-width="none" transform="translate(-107.864990234375,12.5005329308143)" style="fill: rgb(0, 161, 213);"></path></g><g class="path" style="transform: matrix(1, 0, 0, 1, 0, 0); transform-origin: -43.1px -2.52447px; animation: 1s linear -0.456923s infinite normal forwards running bounce-baea6187-5fad-4574-ac11-d6f1aae83674;"><path d="M65.60-19.76L65.60-19.76L65.60-19.76Q66.40-19.76 67.03-19.56L67.03-19.56L67.03-19.56Q67.67-19.36 67.72-19.36L67.72-19.36L67.98-19.58L67.80-24.38L67.80-24.38Q67.72-25.61 67.28-26.49L67.28-26.49L67.28-26.49Q66.84-27.37 66.48-27.63L66.48-27.63L66.09-27.85L66.09-27.85Q65.82-28.03 65.82-28.25L65.82-28.25L65.82-28.25Q65.82-28.91 67.87-29.79L67.87-29.79L67.87-29.79Q69.92-30.67 71.06-30.67L71.06-30.67L71.06-30.67Q72.20-30.67 72.29-30.18L72.29-30.18L72.29-30.18Q72.51-28.69 72.51-24.49L72.51-24.49L72.51-24.49Q72.51-20.28 72.31-16.24L72.31-16.24L72.31-16.24Q72.12-12.19 72.12-7.06L72.12-7.06L72.12-7.06Q72.12-1.94 72.78-0.62L72.78-0.62L72.78-0.62Q72.95-0.31 72.95-0.04L72.95-0.04L72.95-0.04Q72.95 0.62 71.06 0.62L71.06 0.62L71.06 0.62Q67.45 0.62 67.45-1.10L67.45-1.10L67.45-1.10Q67.36-1.80 67.36-3.28L67.36-3.28L67.36-3.28Q67.36-4.75 67.65-8.78L67.65-8.78L67.65-8.78Q67.94-12.80 67.94-14.98L67.94-14.98L67.94-14.98Q67.94-17.16 65.76-17.16L65.76-17.16L65.76-17.16Q63.58-17.16 62.44-14.61L62.44-14.61L62.44-14.61Q61.29-12.06 61.29-9.50L61.29-9.50L61.29-9.50Q61.29-4.09 64.02-4.09L64.02-4.09L64.02-4.09Q64.42-4.09 64.79-4.25L64.79-4.25L64.79-4.25Q65.16-4.40 65.25-4.40L65.25-4.40L65.25-4.40Q65.60-4.40 65.80-3.96L65.80-3.96L65.80-3.96Q66-3.52 66-3.08L66-3.08L66-3.08Q66-1.58 64.81-0.55L64.81-0.55L64.81-0.55Q63.62 0.48 61.91 0.48L61.91 0.48L61.91 0.48Q59.27 0.48 57.93-1.83L57.93-1.83L57.93-1.83Q56.58-4.14 56.58-7.57L56.58-7.57L56.58-7.57Q56.58-11.92 58.65-15.66L58.65-15.66L58.65-15.66Q59.71-17.51 61.51-18.63L61.51-18.63L61.51-18.63Q63.32-19.76 65.60-19.76" fill="#00a1d5" stroke="none" stroke-width="none" transform="translate(-107.864990234375,12.5005329308143)" style="fill: rgb(0, 161, 213);"></path></g><g class="path" style="transform: matrix(1, 0, 0, 1, 0, 0); transform-origin: -29.19px -12.8645px; animation: 1s linear -0.406154s infinite normal forwards running bounce-baea6187-5fad-4574-ac11-d6f1aae83674;"><path d="M79.46-23.54L79.46-23.54L78.41-23.58L78.41-23.58Q77.22-23.58 76.87-23.01L76.87-23.01L76.87-23.01Q76.78-22.88 76.65-22.88L76.65-22.88L76.65-22.88Q76.08-22.88 76.08-24.84L76.08-24.84L76.08-24.84Q76.08-26.80 76.67-27.32L76.67-27.32L76.67-27.32Q77.26-27.85 78.74-27.85L78.74-27.85L78.74-27.85Q80.21-27.85 80.74-27.35L80.74-27.35L80.74-27.35Q81.27-26.84 81.27-25.65L81.27-25.65L81.27-25.65Q81.27-24.46 80.87-24.00L80.87-24.00L80.87-24.00Q80.48-23.54 79.46-23.54" fill="#00a1d5" stroke="none" stroke-width="none" transform="translate(-107.864990234375,12.5005329308143)" style="fill: rgb(0, 161, 213);"></path></g><g class="path" style="transform: matrix(1, 0, 0, 1, 0, 0); transform-origin: -29.765px 3.06553px; animation: 1s linear -0.355385s infinite normal forwards running bounce-baea6187-5fad-4574-ac11-d6f1aae83674;"><path d="M75.94-1.32L75.94-1.32L76.43-11.57L76.43-11.57Q76.43-15.22 75.59-16.54L75.59-16.54L75.59-16.54Q75.33-16.98 74.98-17.20L74.98-17.20L74.98-17.20Q74.71-17.29 74.71-17.56L74.71-17.56L74.71-17.56Q74.71-18.35 76.96-19.10L76.96-19.10L76.96-19.10Q79.20-19.84 80.23-19.84L80.23-19.84L80.23-19.84Q81.27-19.84 81.31-19.32L81.31-19.32L81.31-19.32Q81.31-18.44 81.07-14.32L81.07-14.32L81.07-14.32Q80.83-10.21 80.83-5.68L80.83-5.68L80.83-5.68Q80.83-1.14 81.36-0.04L81.36-0.04L81.36-0.04Q81.49 0.18 81.49 0.40L81.49 0.40L81.49 0.40Q81.49 0.97 79.82 0.97L79.82 0.97L79.82 0.97Q78.14 0.97 76.38 0.09L76.38 0.09L76.38 0.09Q75.94-0.13 75.94-1.32" fill="#00a1d5" stroke="none" stroke-width="none" transform="translate(-107.864990234375,12.5005329308143)" style="fill: rgb(0, 161, 213);"></path></g><g class="path" style="transform: matrix(1, 0, 0, 1, 0, 0); transform-origin: -15.64px 2.89053px; animation: 1s linear -0.304615s infinite normal forwards running bounce-baea6187-5fad-4574-ac11-d6f1aae83674;"><path d="M84.17 0.31L84.17 0.31L84.17 0.31Q84.96-4.44 84.96-11.09L84.96-11.09L84.96-11.09Q84.96-17.73 84.57-19.71L84.57-19.71L84.57-19.71Q84.57-20.28 85.89-20.28L85.89-20.28L85.89-20.28Q87.91-20.28 88.57-18.74L88.57-18.74L88.57-18.74Q88.62-18.61 88.79-18.61L88.79-18.61L88.79-18.61Q88.97-18.61 89.06-18.70L89.06-18.70L89.06-18.70Q90.42-20.11 93.28-20.11L93.28-20.11L93.28-20.11Q96.14-20.11 97.81-18.66L97.81-18.66L97.81-18.66Q99.48-17.20 99.48-14.43L99.48-14.43L99.48-14.43Q99.48-12.76 99.20-9.68L99.20-9.68L99.20-9.68Q98.91-6.60 98.91-5.10L98.91-5.10L98.91-5.10Q98.91-1.54 100.10 0.04L100.10 0.04L100.10 0.04Q100.28 0.26 100.28 0.48L100.28 0.48L100.28 0.48Q100.28 1.06 99.04 1.06L99.04 1.06L99.04 1.06Q93.59 1.06 93.59-3.78L93.59-3.78L93.59-3.78Q93.59-5.63 94.42-8.93L94.42-8.93L94.42-8.93Q95.26-12.23 95.26-13.95L95.26-13.95L95.26-13.95Q95.26-17.47 92.36-17.47L92.36-17.47L92.36-17.47Q90.95-17.47 90.22-16.63L90.22-16.63L90.22-16.63Q89.50-15.80 89.41-14.72L89.41-14.72L89.41-14.72Q89.32-13.64 89.32-10.65L89.32-10.65L89.32-10.65Q89.32-6.07 89.63-2.68L89.63-2.68L89.72-1.72L89.72-1.72Q89.72-0.48 88.11 0.20L88.11 0.20L88.11 0.20Q86.50 0.88 85.34 0.88L85.34 0.88L85.34 0.88Q84.17 0.88 84.17 0.31" fill="#00a1d5" stroke="none" stroke-width="none" transform="translate(-107.864990234375,12.5005329308143)" style="fill: rgb(0, 161, 213);"></path></g><g class="path" style="transform: matrix(1, 0, 0, 1, 0, 0); transform-origin: 1.36501px 9.20053px; animation: 1s linear -0.253846s infinite normal forwards running bounce-baea6187-5fad-4574-ac11-d6f1aae83674;"><path d="M104.63-17.75L104.63-17.75L104.63-17.75Q105.60-18.74 107.18-19.43L107.18-19.43L107.18-19.43Q108.77-20.11 110.22-20.11L110.22-20.11L110.22-20.11Q111.67-20.11 113.17-19.45L113.17-19.45L113.17-19.45Q113.34-19.45 113.43-19.54L113.43-19.54L113.43-19.54Q114.58-20.68 116.78-20.68L116.78-20.68L116.78-20.68Q117.30-20.68 117.30-20.20L117.30-20.20L117.30-20.20Q117.30-20.15 117.22-19.80L117.22-19.80L117.22-19.80Q117.13-19.45 117.00-18.77L117.00-18.77L117.00-18.77Q116.86-18.08 116.78-17.12L116.78-17.12L116.78-17.12Q116.47-14.61 116.45-11.57L116.45-11.57L116.45-11.57Q116.42-8.54 116.42-5.50L116.42-5.50L116.56 3.74L116.56 3.74Q116.56 8.18 114.27 11.13L114.27 11.13L114.27 11.13Q113.34 12.32 111.47 13.20L111.47 13.20L111.47 13.20Q109.60 14.08 107.10 14.08L107.10 14.08L107.10 14.08Q106.52 13.73 106.52 13.38L106.52 13.38L106.52 13.38Q106.52 13.02 107.01 12.80L107.01 12.80L107.01 12.80Q109.78 11.53 110.97 6.75L110.97 6.75L110.97 6.75Q112.16 1.98 112.16-7.74L112.16-7.74L112.07-13.90L111.94-16.90L111.94-16.90Q111.94-17.29 110.70-17.47L110.70-17.47L110.70-17.47Q109.12-17.47 108.04-16.43L108.04-16.43L108.04-16.43Q106.96-15.40 106.57-13.73L106.57-13.73L106.57-13.73Q105.86-11.04 105.86-9.09L105.86-9.09L105.86-9.09Q105.86-7.13 106.50-5.63L106.50-5.63L106.50-5.63Q107.14-4.14 108.72-4.14L108.72-4.14L108.72-4.14Q109.16-4.14 109.54-4.31L109.54-4.31L109.54-4.31Q109.91-4.49 110.04-4.49L110.04-4.49L110.04-4.49Q110.48-4.49 110.48-3.61L110.48-3.61L110.48-3.61Q110.48-2.73 110.35-2.18L110.35-2.18L110.35-2.18Q110.22-1.63 109.82-0.97L109.82-0.97L109.82-0.97Q108.94 0.48 106.39 0.48L106.39 0.48L106.39 0.48Q103.84 0.48 102.74-1.36L102.74-1.36L102.74-1.36Q101.60-3.26 101.42-4.75L101.42-4.75L101.42-4.75Q101.16-7.00 101.16-7.70L101.16-7.70L101.16-7.70Q101.16-8.40 101.18-8.82L101.18-8.82L101.18-8.82Q101.20-9.24 101.40-10.49L101.40-10.49L101.40-10.49Q101.60-11.75 101.93-12.87L101.93-12.87L101.93-12.87Q102.26-13.99 102.96-15.38L102.96-15.38L102.96-15.38Q103.66-16.76 104.63-17.75" fill="#00a1d5" stroke="none" stroke-width="none" transform="translate(-107.864990234375,12.5005329308143)" style="fill: rgb(0, 161, 213);"></path></g><g class="path" style="transform: matrix(1, 0, 0, 1, 0, 0); transform-origin: 29.175px -2.89947px; animation: 1s linear -0.203077s infinite normal forwards running bounce-baea6187-5fad-4574-ac11-d6f1aae83674;"><path d="M141.20-24.38L141.20-24.38L141.37-25.74L141.37-25.74Q141.37-27.76 139.79-28.34L139.79-28.34L139.79-28.34Q138.56-28.73 137.90-28.73L137.90-28.73L137.85-28.73L137.85-28.73Q136.53-28.73 135.56-28.31L135.56-28.31L135.56-28.31Q134.60-27.90 134.16-27.28L134.16-27.28L134.16-27.28Q133.23-26.00 133.10-24.60L133.10-24.60L133.10-24.60Q133.10-22.92 134.60-21.71L134.60-21.71L134.60-21.71Q136.09-20.50 138.23-19.60L138.23-19.60L138.23-19.60Q140.36-18.70 142.49-17.64L142.49-17.64L142.49-17.64Q144.63-16.59 146.12-14.61L146.12-14.61L146.12-14.61Q147.62-12.63 147.62-9.86L147.62-9.86L147.62-9.86Q147.62-4.44 144.21-1.76L144.21-1.76L144.21-1.76Q140.80 0.92 136.47 0.92L136.47 0.92L136.47 0.92Q132.13 0.92 129.29-1.03L129.29-1.03L129.29-1.03Q126.46-2.99 126.46-6.29L126.46-6.29L126.46-6.34L126.46-6.34Q126.46-7.96 126.96-9.17L126.96-9.17L126.96-9.17Q127.47-10.38 128.17-10.96L128.17-10.96L128.17-10.96Q129.62-12.14 130.81-12.23L130.81-12.23L131.34-12.28L131.34-12.28Q132.57-12.28 133.58-11.68L133.58-11.68L133.58-11.68Q134.60-11.09 134.60-10.03L134.60-10.03L134.60-10.03Q134.60-9.50 134.02-9.15L134.02-9.15L134.02-9.15Q133.45-8.80 133.03-8.10L133.03-8.10L133.03-8.10Q132.62-7.39 132.57-6.91L132.57-6.91L132.48-6.42L132.48-6.42Q132.48-3.74 134.95-2.86L134.95-2.86L134.95-2.86Q135.83-2.55 136.36-2.55L136.36-2.55L136.36-2.55Q138.78-2.55 140.25-4.00L140.25-4.00L140.25-4.00Q141.72-5.46 141.72-7.70L141.72-7.70L141.72-7.70Q141.72-10.38 139.44-12.06L139.44-12.06L139.44-12.06Q137.72-13.29 135.72-14.12L135.72-14.12L135.72-14.12Q133.72-14.96 133.01-15.31L133.01-15.31L133.01-15.31Q132.31-15.66 131.52-16.15L131.52-16.15L131.52-16.15Q130.72-16.63 129.76-17.51L129.76-17.51L129.76-17.51Q127.64-19.36 127.64-22.51L127.64-22.51L127.64-22.51Q127.64-25.65 129.36-27.81L129.36-27.81L129.36-27.81Q132.44-31.72 138.60-31.72L138.60-31.72L138.60-31.72Q141.86-31.72 144.10-30.47L144.10-30.47L144.10-30.47Q146.34-29.22 146.34-27.02L146.34-27.02L146.34-27.02Q146.34-25.43 145.44-24.38L145.44-24.38L145.44-24.38Q144.54-23.32 143.13-23.32L143.13-23.32L143.13-23.32Q142.47-23.32 141.83-23.58L141.83-23.58L141.83-23.58Q141.20-23.85 141.20-24.38" fill="#00a1d5" stroke="none" stroke-width="none" transform="translate(-107.864990234375,12.5005329308143)" style="fill: rgb(0, 161, 213);"></path></g><g class="path" style="transform: matrix(1, 0, 0, 1, 0, 0); transform-origin: 49.805px 2.99553px; animation: 1s linear -0.152308s infinite normal forwards running bounce-baea6187-5fad-4574-ac11-d6f1aae83674;"><path d="M153.96-16.59L153.96-16.59L153.96-16.59Q152.81-16.54 152.31-16.52L152.31-16.52L152.31-16.52Q151.80-16.50 151.80-16.76L151.80-16.76L151.80-16.76Q151.80-17.03 152.06-17.29L152.06-17.29L152.06-17.29Q154.88-19.89 161.57-19.89L161.57-19.89L161.57-19.89Q163.86-19.89 165.18-19.49L165.18-19.49L165.62-19.36L165.62-19.36Q166.14-19.14 166.14-18.88L166.14-18.88L166.14-18.88Q166.14-18.66 165.84-18.52L165.84-18.52L165.84-18.52Q164.65-18.17 163.55-17.40L163.55-17.40L163.55-17.40Q162.45-16.63 162.45-16.32L162.45-16.32L162.71-16.02L162.71-16.02Q164.12-15.22 164.89-13.51L164.89-13.51L164.89-13.51Q165.66-11.79 165.75-10.47L165.75-10.47L165.84-9.11L165.84-9.11Q165.84-4.75 163.42-1.94L163.42-1.94L163.42-1.94Q161.00 0.88 156.82 0.88L156.82 0.88L156.82 0.88Q154.70 0.88 153.16 0.13L153.16 0.13L153.16 0.13Q151.62-0.62 150.90-1.56L150.90-1.56L150.90-1.56Q150.17-2.51 149.73-3.70L149.73-3.70L149.73-3.70Q149.20-5.32 149.20-7.06L149.20-7.06L149.20-7.06Q149.20-8.80 149.80-10.56L149.80-10.56L149.80-10.56Q150.39-12.32 151.16-13.16L151.16-13.16L151.16-13.16Q151.93-13.99 152.90-14.52L152.90-14.52L152.90-14.52Q154.13-15.18 154.88-15.18L154.88-15.18L154.88-15.18Q155.63-15.18 155.63-14.87L155.63-14.87L155.36-14.43L155.36-14.43Q154.40-13.29 153.98-11.44L153.98-11.44L153.98-11.44Q153.56-9.59 153.56-8.16L153.56-8.16L153.56-8.16Q153.56-6.73 153.91-5.32L153.91-5.32L153.91-5.32Q154.26-3.92 154.70-3.23L154.70-3.23L154.70-3.23Q155.14-2.55 155.72-2.20L155.72-2.20L155.72-2.20Q156.55-1.67 157.48-1.67L157.48-1.67L157.48-1.67Q158.40-1.67 159.28-2.40L159.28-2.40L159.28-2.40Q160.16-3.12 160.56-4.31L160.56-4.31L160.56-4.31Q161.35-6.51 161.35-8.84L161.35-8.84L161.35-8.84Q161.35-12.54 159.48-14.56L159.48-14.56L159.48-14.56Q157.61-16.59 153.96-16.59" fill="#00a1d5" stroke="none" stroke-width="none" transform="translate(-107.864990234375,12.5005329308143)" style="fill: rgb(0, 161, 213);"></path></g><g class="path" style="transform: matrix(1, 0, 0, 1, 0, 0); transform-origin: 68.18px 2.89053px; animation: 1s linear -0.101538s infinite normal forwards running bounce-baea6187-5fad-4574-ac11-d6f1aae83674;"><path d="M167.99 0.31L167.99 0.31L167.99 0.31Q168.78-4.44 168.78-11.09L168.78-11.09L168.78-11.09Q168.78-17.73 168.39-19.71L168.39-19.71L168.39-19.71Q168.39-20.28 169.71-20.28L169.71-20.28L169.71-20.28Q171.73-20.28 172.39-18.74L172.39-18.74L172.39-18.74Q172.44-18.61 172.61-18.61L172.61-18.61L172.61-18.61Q172.79-18.61 172.88-18.70L172.88-18.70L172.88-18.70Q174.24-20.11 177.10-20.11L177.10-20.11L177.10-20.11Q179.96-20.11 181.63-18.66L181.63-18.66L181.63-18.66Q183.30-17.20 183.30-14.43L183.30-14.43L183.30-14.43Q183.30-12.76 183.02-9.68L183.02-9.68L183.02-9.68Q182.73-6.60 182.73-5.10L182.73-5.10L182.73-5.10Q182.73-1.54 183.92 0.04L183.92 0.04L183.92 0.04Q184.10 0.26 184.10 0.48L184.10 0.48L184.10 0.48Q184.10 1.06 182.86 1.06L182.86 1.06L182.86 1.06Q177.41 1.06 177.41-3.78L177.41-3.78L177.41-3.78Q177.41-5.63 178.24-8.93L178.24-8.93L178.24-8.93Q179.08-12.23 179.08-13.95L179.08-13.95L179.08-13.95Q179.08-17.47 176.18-17.47L176.18-17.47L176.18-17.47Q174.77-17.47 174.04-16.63L174.04-16.63L174.04-16.63Q173.32-15.80 173.23-14.72L173.23-14.72L173.23-14.72Q173.14-13.64 173.14-10.65L173.14-10.65L173.14-10.65Q173.14-6.07 173.45-2.68L173.45-2.68L173.54-1.72L173.54-1.72Q173.54-0.48 171.93 0.20L171.93 0.20L171.93 0.20Q170.32 0.88 169.16 0.88L169.16 0.88L169.16 0.88Q167.99 0.88 167.99 0.31" fill="#00a1d5" stroke="none" stroke-width="none" transform="translate(-107.864990234375,12.5005329308143)" style="fill: rgb(0, 161, 213);"></path></g><g class="path" style="transform: matrix(1, 0, 0, 1, 0, 0); transform-origin: 85.185px 9.20053px; animation: 1s linear -0.0507692s infinite normal forwards running bounce-baea6187-5fad-4574-ac11-d6f1aae83674;"><path d="M188.45-17.75L188.45-17.75L188.45-17.75Q189.42-18.74 191.00-19.43L191.00-19.43L191.00-19.43Q192.59-20.11 194.04-20.11L194.04-20.11L194.04-20.11Q195.49-20.11 196.99-19.45L196.99-19.45L196.99-19.45Q197.16-19.45 197.25-19.54L197.25-19.54L197.25-19.54Q198.40-20.68 200.60-20.68L200.60-20.68L200.60-20.68Q201.12-20.68 201.12-20.20L201.12-20.20L201.12-20.20Q201.12-20.15 201.04-19.80L201.04-19.80L201.04-19.80Q200.95-19.45 200.82-18.77L200.82-18.77L200.82-18.77Q200.68-18.08 200.60-17.12L200.60-17.12L200.60-17.12Q200.29-14.61 200.27-11.57L200.27-11.57L200.27-11.57Q200.24-8.54 200.24-5.50L200.24-5.50L200.38 3.74L200.38 3.74Q200.38 8.18 198.09 11.13L198.09 11.13L198.09 11.13Q197.16 12.32 195.29 13.20L195.29 13.20L195.29 13.20Q193.42 14.08 190.92 14.08L190.92 14.08L190.92 14.08Q190.34 13.73 190.34 13.38L190.34 13.38L190.34 13.38Q190.34 13.02 190.83 12.80L190.83 12.80L190.83 12.80Q193.60 11.53 194.79 6.75L194.79 6.75L194.79 6.75Q195.98 1.98 195.98-7.74L195.98-7.74L195.89-13.90L195.76-16.90L195.76-16.90Q195.76-17.29 194.52-17.47L194.52-17.47L194.52-17.47Q192.94-17.47 191.86-16.43L191.86-16.43L191.86-16.43Q190.78-15.40 190.39-13.73L190.39-13.73L190.39-13.73Q189.68-11.04 189.68-9.09L189.68-9.09L189.68-9.09Q189.68-7.13 190.32-5.63L190.32-5.63L190.32-5.63Q190.96-4.14 192.54-4.14L192.54-4.14L192.54-4.14Q192.98-4.14 193.36-4.31L193.36-4.31L193.36-4.31Q193.73-4.49 193.86-4.49L193.86-4.49L193.86-4.49Q194.30-4.49 194.30-3.61L194.30-3.61L194.30-3.61Q194.30-2.73 194.17-2.18L194.17-2.18L194.17-2.18Q194.04-1.63 193.64-0.97L193.64-0.97L193.64-0.97Q192.76 0.48 190.21 0.48L190.21 0.48L190.21 0.48Q187.66 0.48 186.56-1.36L186.56-1.36L186.56-1.36Q185.42-3.26 185.24-4.75L185.24-4.75L185.24-4.75Q184.98-7.00 184.98-7.70L184.98-7.70L184.98-7.70Q184.98-8.40 185.00-8.82L185.00-8.82L185.00-8.82Q185.02-9.24 185.22-10.49L185.22-10.49L185.22-10.49Q185.42-11.75 185.75-12.87L185.75-12.87L185.75-12.87Q186.08-13.99 186.78-15.38L186.78-15.38L186.78-15.38Q187.48-16.76 188.45-17.75" fill="#00a1d5" stroke="none" stroke-width="none" transform="translate(-107.864990234375,12.5005329308143)" style="fill: rgb(0, 161, 213);"></path></g><g class="path" style="transform: matrix(1, 0, 0, 1, 0, 0); transform-origin: 101.485px 2.99553px; animation: 1s linear 0s infinite normal forwards running bounce-baea6187-5fad-4574-ac11-d6f1aae83674;"><path d="M216.48-6.03L216.48-6.03L216.48-6.03Q216.48-4.14 215.75-2.73L215.75-2.73L215.75-2.73Q215.03-1.32 214.10-0.66L214.10-0.66L214.10-0.66Q213.18 0 211.90 0.40L211.90 0.40L211.90 0.40Q210.23 0.92 208.87 0.92L208.87 0.92L208.87 0.92Q206.01 0.92 204.12-0.20L204.12-0.20L204.12-0.20Q202.22-1.32 202.22-3.78L202.22-3.78L202.22-3.78Q202.22-5.24 203.02-6.16L203.02-6.16L203.02-6.16Q204.25-7.52 205.96-7.52L205.96-7.52L205.96-7.52Q206.49-7.52 206.49-7.04L206.49-7.04L206.49-7.04Q206.49-7.00 206.29-6.36L206.29-6.36L206.29-6.36Q206.10-5.72 206.10-4.75L206.10-4.75L206.10-4.75Q206.10-3.78 206.87-3.04L206.87-3.04L206.87-3.04Q207.64-2.29 208.74-2.29L208.74-2.29L208.74-2.29Q209.84-2.29 210.50-2.66L210.50-2.66L210.50-2.66Q211.16-3.04 211.42-3.61L211.42-3.61L211.42-3.61Q211.82-4.40 211.82-5.10L211.82-5.10L211.82-5.10Q211.82-6.38 210.54-7.30L210.54-7.30L210.54-7.30Q209.26-8.23 207.72-8.76L207.72-8.76L207.72-8.76Q206.18-9.28 204.91-10.52L204.91-10.52L204.91-10.52Q203.63-11.75 203.63-13.60L203.63-13.60L203.63-13.60Q203.63-16.76 205.63-18.35L205.63-18.35L205.63-18.35Q207.64-19.93 211.07-19.93L211.07-19.93L211.07-19.93Q212.56-19.93 214.21-19.51L214.21-19.51L214.21-19.51Q215.86-19.10 215.86-18.11L215.86-18.11L215.86-18.11Q215.86-17.12 215.53-16.28L215.53-16.28L215.53-16.28Q215.20-15.44 214.72-15.44L214.72-15.44L214.72-15.44Q214.46-15.44 214.37-15.64L214.37-15.64L214.37-15.64Q214.28-15.84 214.06-16.10L214.06-16.10L214.06-16.10Q213.84-16.37 213.00-16.79L213.00-16.79L213.00-16.79Q212.17-17.20 211.57-17.20L211.57-17.20L211.57-17.20Q210.98-17.20 210.78-17.18L210.78-17.18L210.78-17.18Q210.58-17.16 210.10-17.05L210.10-17.05L210.10-17.05Q209.62-16.94 209.22-16.72L209.22-16.72L209.22-16.72Q208.21-16.15 208.21-15.05L208.21-15.05L208.21-15.05Q208.21-14.34 208.52-14.01L208.52-14.01L208.52-14.01Q208.82-13.68 209.00-13.51L209.00-13.51L209.00-13.51Q209.18-13.33 209.62-13.09L209.62-13.09L209.62-13.09Q210.06-12.85 210.23-12.76L210.23-12.76L210.23-12.76Q210.41-12.67 211.02-12.39L211.02-12.39L211.02-12.39Q211.64-12.10 211.82-12.01L211.82-12.01L211.82-12.01Q216.48-9.81 216.48-6.03" fill="#00a1d5" stroke="none" stroke-width="none" transform="translate(-107.864990234375,12.5005329308143)" style="fill: rgb(0, 161, 213);"></path></g></g>
</g>
</g>
<style id="bounce-baea6187-5fad-4574-ac11-d6f1aae83674" data-anikit="">@keyframes bounce-baea6187-5fad-4574-ac11-d6f1aae83674
{
  0% {
    animation-timing-function: cubic-bezier(0.1361,0.2514,0.2175,0.8786);
    transform: translate(0,0px) scaleY(1);
  }
  37% {
    animation-timing-function: cubic-bezier(0.7674,0.1844,0.8382,0.7157);
    transform: translate(0,-6.993px) scaleY(1);
  }
  72% {
    animation-timing-function: cubic-bezier(0.3337,0.6674,0.6634,1);
    transform: translate(0,0px) scaleY(1);
  }
  87% {
    animation-timing-function: cubic-bezier(0.336,0.168,0.6659,0.4989);
    transform: translate(0,0.3600000000000003px) scaleY(0.99);
  }
  100% {
    transform: translate(0,0px) scaleY(1);
  }
}</style></svg>